<?xml version="1.0" standalone="no"?>
<!DOCTYPE svg PUBLIC "-//W3C//DTD SVG 1.1//EN" "http://www.w3.org/Graphics/SVG/1.1/DTD/svg11.dtd" >
<svg xmlns="http://www.w3.org/2000/svg" xmlns:xlink="http://www.w3.org/1999/xlink" version="1.1">
<metadata>
Created by FontForge 20170924 at Wed Apr 20 06:23:33 2011
 By www-data
(c) 2011 Sergiy S. Tkachenko / 4th february
(c) 2011 ArchyStudio.com
http://creativecommons.org/licenses/by-nd/3.0
http://creativecommons.org/licenses/by-nd/3.0/deed.ru
</metadata>
<defs>
<font id="Designosaur" horiz-adv-x="564" >
  <font-face 
    font-family="Designosaur"
    font-weight="400"
    font-stretch="normal"
    units-per-em="1000"
    panose-1="0 0 0 0 0 0 0 0 0 0"
    ascent="750"
    descent="-250"
    x-height="520"
    cap-height="720"
    bbox="-111.429 -399.765 1121 1196"
    underline-thickness="50"
    underline-position="-100"
    unicode-range="U+0020-25FF"
  />
<missing-glyph horiz-adv-x="300" 
 />
    <glyph glyph-name=".notdef" horiz-adv-x="300" 
 />
    <glyph glyph-name=".null" horiz-adv-x="0" 
 />
    <glyph glyph-name="nonmarkingreturn" horiz-adv-x="300" 
 />
    <glyph glyph-name="space" unicode=" " horiz-adv-x="300" 
 />
    <glyph glyph-name="space" unicode="&#xa0;" horiz-adv-x="300" 
 />
    <glyph glyph-name="numbersign" unicode="#" horiz-adv-x="569" 
d="M267 19q-20 4 -14 24l50 186h-108l-56 -209q-4 -20 -24 -14l-48 13q-20 4 -14 24l50 186h-43q-20 0 -20 20v50q0 20 20 20h67l24 90h-52q-20 0 -20 20v50q0 20 20 20h76l54 201q4 20 24 14l48 -13q20 -4 14 -24l-48 -178h108l54 201q4 20 24 14l48 -13q20 -4 14 -24
l-48 -178h42q20 0 20 -20v-50q0 -20 -20 -20h-66l-24 -90h51q20 0 20 -20v-50q0 -20 -20 -20h-75l-56 -209q-4 -20 -24 -14zM219 319h108l24 90h-108z" />
    <glyph glyph-name="dollar" unicode="$" horiz-adv-x="555" 
d="M209 318q-35 13 -64.5 29.5t-52 39t-35 51t-12.5 64.5q0 38 14 69t39 55t59.5 39.5t74.5 21.5v73q0 20 20 20h50q20 0 20 -20v-70q29 -3 57.5 -8.5t51.5 -12.5t40 -14t23 -12q5 -4 5.5 -9t-4.5 -17l-16 -42q-2 -6 -10 -5t-16 3q-10 3 -27.5 7t-39.5 7.5t-46.5 6.5
t-47.5 3q-39 0 -64 -8t-40 -20t-21 -26.5t-6 -27.5q0 -20 17 -39.5t69 -37.5l96 -33q45 -16 77.5 -38t53.5 -48t31 -54.5t10 -57.5q0 -71 -53 -116t-140 -58v-73q0 -20 -20 -20h-50q-20 0 -20 20v69q-30 2 -59.5 7.5t-55 12t-44.5 14.5t-27 14q-5 5 -5.5 10t4.5 16l16 42
q2 6 10 5t16 -3q10 -3 29 -7t42.5 -7.5t49.5 -6.5t50 -3q63 0 102 20.5t39 53.5q0 15 -8 27.5t-21 23t-30 19.5t-34 15z" />
    <glyph glyph-name="percent" unicode="%" horiz-adv-x="708" 
d="M99 39q-16 12 -5 28l448 638q11 16 28 5l41 -29q16 -12 5 -28l-448 -638q-11 -16 -28 -5zM521 -11q-57 0 -96.5 46t-39.5 140t39 140t97 46q29 0 54 -11.5t43.5 -34.5t29 -58t10.5 -82t-10.5 -82t-29 -58t-43.5 -34.5t-54 -11.5zM521 78q20 0 35 21.5t15 75.5t-15 75
t-35 21t-34.5 -21t-14.5 -75t14.5 -75.5t34.5 -21.5zM186 356q-57 0 -96.5 46t-39.5 140t39 140t97 46q29 0 54 -11.5t43.5 -34.5t29 -58t10.5 -82t-10.5 -82t-29 -58t-43.5 -34.5t-54 -11.5zM186 445q20 0 35 21.5t15 75.5t-15 75t-35 21t-34.5 -21t-14.5 -75t14.5 -75.5
t34.5 -21.5z" />
    <glyph glyph-name="ampersand" unicode="&#x26;" horiz-adv-x="713" 
d="M40 168q0 46 16 83.5t43.5 68t63.5 55.5t76 47l-25 29q-21 29 -33.5 63t-12.5 73q0 33 13 59t37 44.5t57 28.5t72 10q43 0 79 -10t61.5 -28t39.5 -43t14 -55q0 -34 -12.5 -62.5t-32 -53t-45 -45t-50.5 -36.5l89 -137l97 89q14 14 27 -3l47 -61q12 -16 -3 -29l-103 -89
l105 -150q13 -16 -8 -16h-112q-20 0 -31 17l-47 68q-29 -25 -55.5 -42.5t-51.5 -29t-50.5 -16.5t-52.5 -5q-50 0 -89.5 13.5t-66.5 37.5t-41.5 56t-14.5 69zM252 92q34 0 72 25t76 59l-100 157q-65 -38 -100 -75t-35 -86q0 -32 24 -56t63 -24zM293 589q0 -24 12.5 -49.5
t34.5 -57.5q33 25 54.5 51.5t21.5 58.5q0 21 -18.5 34.5t-50.5 13.5q-20 0 -37 -12t-17 -39z" />
    <glyph glyph-name="quotesingle" unicode="'" horiz-adv-x="188" 
d="M71 520q-19 0 -20 20l-10 160q-1 20 20 20h66q21 0 20 -20l-10 -160q-1 -20 -20 -20h-46z" />
    <glyph glyph-name="parenleft" unicode="(" horiz-adv-x="372" 
d="M172 360q0 -104 10 -172.5t29 -109t47 -56.5t64 -16q20 0 20 -20v-56q0 -20 -20 -20h-27q-54 0 -100.5 27.5t-81 83.5t-54 141t-19.5 199t19.5 199t54 141t81 83.5t100.5 27.5h27q20 0 20 -20v-56q0 -20 -20 -20q-36 0 -64 -16.5t-47 -57t-29 -109t-10 -173.5z" />
    <glyph glyph-name="parenright" unicode=")" horiz-adv-x="372" 
d="M200 360q0 105 -10 173.5t-29 109t-47 57t-64 16.5q-20 0 -20 20v56q0 20 20 20h27q54 0 100.5 -27.5t81 -83.5t54 -141t19.5 -199t-19.5 -199t-54 -141t-81 -83.5t-100.5 -27.5h-27q-20 0 -20 20v56q0 20 20 20q36 0 64 16t47 56.5t29 109t10 172.5z" />
    <glyph glyph-name="asterisk" unicode="*" horiz-adv-x="428" 
d="M182 740q0 20 19 20h26q19 0 19 -20l-3 -113l101 38q19 7 25 -12l7 -24q6 -19 -14 -25l-103 -31l71 -88q13 -15 -5 -27l-21 -13q-17 -10 -28 6l-62 90l-62 -90q-11 -16 -28 -6l-21 13q-18 12 -5 27l71 88l-103 31q-20 6 -14 25l7 24q6 19 25 12l101 -38z" />
    <glyph glyph-name="plus" unicode="+" horiz-adv-x="450" 
d="M270 409h120q20 0 20 -20v-50q0 -20 -20 -20h-120v-120q0 -20 -20 -20h-50q-20 0 -20 20v120h-120q-20 0 -20 20v50q0 20 20 20h120v120q0 20 20 20h50q20 0 20 -20v-120z" />
    <glyph glyph-name="comma" unicode="," horiz-adv-x="240" 
d="M70 0q-20 0 -20 20v100q0 20 20 20h100q20 0 20 -20v-115q0 -25 -5 -49t-12.5 -44t-16 -35t-15.5 -22q-5 -5 -10.5 -6.5t-15.5 5.5l-32 21q-5 4 -4.5 11.5t2.5 14.5q5 15 15 40.5t10 58.5h-36z" />
    <glyph glyph-name="hyphen" unicode="-" horiz-adv-x="370" 
d="M70 319q-20 0 -20 20v50q0 20 20 20h230q20 0 20 -20v-50q0 -20 -20 -20h-230z" />
    <glyph glyph-name="period" unicode="." horiz-adv-x="240" 
d="M170 140q20 0 20 -20v-100q0 -20 -20 -20h-100q-20 0 -20 20v100q0 20 20 20h100z" />
    <glyph glyph-name="slash" unicode="/" horiz-adv-x="438" 
d="M23 -1q-19 9 -10 27l330 706q9 19 27 10l45 -21q19 -9 10 -27l-330 -706q-9 -19 -27 -10z" />
    <glyph glyph-name="zero" unicode="0" horiz-adv-x="626" 
d="M313 -12q-57 0 -107 23t-87 69.5t-58 116t-21 163.5t21 163.5t57.5 116t86.5 69.5t108 23t107.5 -23t86.5 -69.5t58 -116t21 -163.5t-21 -163.5t-58 -116t-87 -69.5t-107 -23zM313 83q29 0 55 14.5t45 47.5t30 86t11 129t-11 129t-30 86t-45 47.5t-55 14.5t-55 -14.5
t-45 -47.5t-30 -86t-11 -129t11 -129t30 -86t45 -47.5t55 -14.5z" />
    <glyph glyph-name="one" unicode="1" horiz-adv-x="328" 
d="M10 584q0 21 18 29l232 113q18 8 18 -11v-695q0 -20 -20 -20h-85q-20 0 -20 20v553l-125 -57q-18 -8 -18 12v56z" />
    <glyph glyph-name="two" unicode="2" horiz-adv-x="508" 
d="M47 48q0 8 1.5 18t8.5 20l212 324q3 4 12.5 17t20 32t19 42t8.5 47q0 17 -5.5 33t-16.5 28.5t-29 20t-42 7.5q-16 0 -36.5 -2.5t-41.5 -6.5t-40 -8t-31 -7q-24 -6 -26 2l-16 42q-5 12 -4.5 16.5t5.5 9.5q8 6 29 14.5t49.5 16t61 13t64.5 5.5q42 0 79 -11t65.5 -33.5
t45.5 -57t19 -81.5q2 -44 -10.5 -81t-42.5 -75l-241 -303h283q20 0 20 -20v-50q0 -20 -20 -20h-381q-20 0 -20 20v28z" />
    <glyph glyph-name="three" unicode="3" horiz-adv-x="532" 
d="M194 406q0 20 11 37l105 187h-233q-20 0 -20 20v50q0 20 20 20h361q20 0 20 -20v-28q0 -8 -1.5 -18t-8.5 -20l-138 -190q40 -6 73.5 -24t57.5 -46t37.5 -65t13.5 -82q0 -52 -19 -95.5t-51 -75.5t-75 -50t-91 -18q-32 0 -65 5t-62.5 12.5t-51.5 16t-31 15.5q-5 5 -5.5 10
t4.5 16l16 42q2 6 10 5t16 -3q10 -3 29 -7t43 -7.5t49 -6.5t47 -3q20 0 39 8.5t34 26t24.5 43t9.5 59.5q1 67 -33.5 106.5t-89.5 38.5h-25q-20 0 -20 20v21z" />
    <glyph glyph-name="four" unicode="4" horiz-adv-x="578" 
d="M349 523h-2l-162 -262h164v262zM455 720q20 0 20 -20v-439h63q20 0 20 -20v-49q0 -20 -20 -20h-63v-152q0 -20 -20 -20h-86q-20 0 -20 20v152h-289q-20 0 -20 20v10q0 21 11 36l307 466q12 16 31 16h66z" />
    <glyph glyph-name="five" unicode="5" horiz-adv-x="526" 
d="M96 366q-15 12 -13 34l16 300q1 20 21 20h295q20 0 20 -20v-50q0 -20 -20 -20h-231l-9 -180q22 5 42.5 7.5t42.5 2.5q39 0 79 -14.5t72.5 -43.5t53.5 -72.5t21 -101.5q0 -51 -17 -95t-48 -76t-73 -50.5t-92 -18.5q-32 0 -65 5t-62.5 12.5t-51.5 16t-31 15.5q-5 5 -5.5 10
t4.5 16l16 42q2 6 10 5t16 -3q10 -3 29 -7t43 -7.5t49 -6.5t47 -3q19 0 37 8t32 25.5t23 44.5t9 65q0 28 -7 53.5t-19.5 44.5t-30.5 30t-40 11q-17 0 -36 -2t-36 -4.5t-30.5 -5.5t-20.5 -4q-11 -2 -18.5 1t-15.5 11z" />
    <glyph glyph-name="six" unicode="6" horiz-adv-x="550" 
d="M297 637q-32 0 -59.5 -13.5t-47.5 -45t-31.5 -84t-11.5 -130.5q9 36 24 59t34 36.5t41.5 18.5t47.5 5q60 0 101 -19.5t66.5 -52.5t37 -77t11.5 -94q0 -52 -12.5 -98t-40.5 -80t-72.5 -54t-107.5 -20q-110 0 -173.5 91.5t-63.5 276.5q0 96 19 166.5t52.5 117t80 69.5
t100.5 23q30 0 62 -6.5t58.5 -16t43.5 -19.5t17 -17t-4 -16l-16 -42q-3 -5 -10 -5q1 0 -13 4t-36.5 9.5t-48.5 9.5t-48 4zM161 210q0 -33 10 -56.5t25.5 -39.5t34.5 -23.5t37 -7.5q37 0 60.5 13.5t37 36t19 51.5t5.5 59t-4.5 56.5t-17.5 46t-35 31t-56 11.5
q-36 0 -58.5 -14.5t-35.5 -39t-17.5 -56.5t-4.5 -68z" />
    <glyph glyph-name="seven" unicode="7" horiz-adv-x="482" 
d="M121 0q-20 0 -14 19l210 611h-267q-20 0 -20 20v50q0 20 20 20h382q20 0 20 -20v-36q0 -11 -2.5 -19t-7.5 -19l-202 -607q-6 -19 -26 -19h-93z" />
    <glyph glyph-name="eight" unicode="8" horiz-adv-x="574" 
d="M409 209q0 31 -10 56.5t-26.5 42.5t-38.5 26.5t-47 9.5t-47 -9.5t-38.5 -27t-26.5 -42t-10 -55.5q0 -30 10 -54t26.5 -40.5t38.5 -25t47 -8.5t47 8.5t38.5 25t26.5 40t10 53.5zM379 547q0 42 -27.5 66.5t-65.5 24.5q-40 0 -65.5 -26.5t-25.5 -64.5q0 -21 7 -39.5
t19.5 -32.5t29 -22.5t36.5 -8.5q18 0 35 8t29.5 21.5t20 32.5t7.5 41zM40 207q0 66 36.5 114.5t108.5 74.5q-56 23 -85.5 59.5t-29.5 90.5q0 41 12.5 75.5t39 59t67.5 38t98 13.5t98 -13.5t67.5 -38t39 -58.5t12.5 -75q0 -102 -115 -151q70 -26 107.5 -74t37.5 -116
q0 -106 -65 -162t-182 -56q-121 0 -184 56.5t-63 162.5z" />
    <glyph glyph-name="nine" unicode="9" horiz-adv-x="550" 
d="M253 83q32 0 59.5 13.5t47.5 45t31.5 84t11.5 130.5q-9 -36 -24 -59t-34 -36.5t-41.5 -18.5t-47.5 -5q-60 0 -101.5 19.5t-67 52.5t-36.5 77t-11 94q0 52 12.5 98t40.5 80t72.5 54t107.5 20q110 0 173.5 -92t63.5 -276q0 -96 -19 -167t-52.5 -117.5t-80 -69t-100.5 -22.5
q-30 0 -62 6.5t-58.5 16t-43.5 19.5t-17 17t4 16l16 42q2 5 10 5q-2 0 12.5 -4t37 -9.5t48.5 -9.5t48 -4zM379 510q0 33 -9 56.5t-23 39.5t-31.5 23.5t-33.5 7.5q-37 0 -60.5 -13.5t-37 -36t-19 -51.5t-5.5 -59t4.5 -56.5t17.5 -46t34.5 -31t56.5 -11.5q33 0 53.5 14.5
t32.5 39t16 56.5t4 68z" />
    <glyph glyph-name="colon" unicode=":" horiz-adv-x="240" 
d="M170 140q20 0 20 -20v-100q0 -20 -20 -20h-100q-20 0 -20 20v100q0 20 20 20h100zM170 464q20 0 20 -20v-100q0 -20 -20 -20h-100q-20 0 -20 20v100q0 20 20 20h100z" />
    <glyph glyph-name="semicolon" unicode=";" horiz-adv-x="240" 
d="M170 464q20 0 20 -20v-100q0 -20 -20 -20h-100q-20 0 -20 20v100q0 20 20 20h100zM106 0q0 -33 -10 -58.5t-15 -40.5q-2 -7 -2.5 -14.5t4.5 -11.5l32 -21q10 -7 15.5 -5.5t10.5 6.5q7 7 15.5 22t16 35t12.5 44t5 49v115q0 20 -20 20h-100q-20 0 -20 -20v-100
q0 -20 20 -20h36z" />
    <glyph glyph-name="less" unicode="&#x3c;" horiz-adv-x="606" 
d="M184 363l354 -159q18 -8 18 -28v-54q0 -20 -18 -12l-470 211q-18 8 -18 28v28q0 20 18 28l470 211q18 8 18 -12v-54q0 -20 -18 -28z" />
    <glyph glyph-name="equal" unicode="=" horiz-adv-x="486" 
d="M40 482q0 20 20 20h366q20 0 20 -20v-44q0 -20 -20 -20h-366q-20 0 -20 20v44zM40 288q0 20 20 20h366q20 0 20 -20v-44q0 -20 -20 -20h-366q-20 0 -20 20v44z" />
    <glyph glyph-name="greater" unicode="&#x3e;" horiz-adv-x="606" 
d="M68 522q-18 8 -18 28v54q0 20 18 12l470 -211q18 -8 18 -28v-28q0 -20 -18 -28l-470 -211q-18 -8 -18 12v54q0 20 18 28l354 159z" />
    <glyph glyph-name="question" unicode="?" horiz-adv-x="508" 
d="M206 220q-20 0 -20 20v14q0 22 5.5 41t16 37t26 36.5t35.5 41.5q3 3 12.5 16.5t20 32.5t19 42t8.5 47q0 17 -5.5 33t-16.5 28.5t-29.5 20t-43.5 7.5q-15 0 -35 -2.5t-40.5 -6.5t-39.5 -8t-32 -7q-14 -3 -19 -3t-7 5l-16 42q-5 12 -4.5 16.5t5.5 9.5q8 6 29 14.5t49.5 16
t61 13t64.5 5.5q39 0 76 -10t65.5 -31.5t46.5 -56.5t21 -85q4 -90 -53 -156q-3 -4 -18.5 -17.5t-32 -32.5t-30 -42t-13.5 -47v-14q0 -20 -20 -20h-86zM292 120q20 0 20 -20v-80q0 -20 -20 -20h-86q-20 0 -20 20v80q0 20 20 20h86z" />
    <glyph glyph-name="at" unicode="@" horiz-adv-x="816" 
d="M491 262q0 65 -20 91t-60 26q-17 0 -30 -5t-22 -18.5t-14 -36t-5 -58.5t5 -59.5t14 -37t22 -18.5t30 -5q40 0 60 27.5t20 93.5zM491 132h-2q-10 -20 -20 -34.5t-22 -23.5t-27 -13t-35 -4q-32 0 -61.5 10.5t-52.5 34.5t-37 63t-14 96t14 95.5t37 62.5t53 34t62 10
q36 0 59 -15.5t44 -59.5h2l10 42q2 11 5.5 15.5t14.5 4.5h50q20 0 20 -20v-280q0 -5 3.5 -8.5t14.5 -3.5q18 0 29.5 10t17.5 27t8 41t2 52q0 83 -13.5 138.5t-41 89t-70.5 47.5t-101 14q-141 0 -215.5 -71.5t-74.5 -213.5q0 -77 22 -131.5t61.5 -89.5t94.5 -51.5t121 -16.5
q29 0 59.5 2.5t59 6.5t53 8t41.5 7t20.5 3t5.5 -5l16 -37q6 -14 5.5 -20t-6.5 -11q-10 -8 -36.5 -16.5t-63 -15.5t-79 -12t-84.5 -5q-85 0 -158 22.5t-127 69.5t-84.5 118t-30.5 169q0 91 27.5 159.5t79 114t124.5 68.5t165 23q81 0 144 -19t106.5 -61t66.5 -109.5
t23 -164.5q0 -52 -7.5 -92.5t-27.5 -69t-54.5 -43.5t-87.5 -15q-35 0 -54 5.5t-27.5 13t-10.5 14.5t-3 10z" />
    <glyph glyph-name="A" unicode="A" horiz-adv-x="672" 
d="M552 0q-20 0 -27 19l-62 158h-284l-62 -158q-7 -19 -27 -19h-65q-9 0 -13 4.5t1 13.5l273 684q7 18 28 18h44q20 0 28 -18l273 -684q9 -18 -12 -18h-95zM341 520l-20 75l-19 -75l-90 -259h218z" />
    <glyph glyph-name="B" unicode="B" 
d="M70 0q-20 0 -20 20v680q0 20 20 20h148q117 0 185 -49t68 -141q0 -54 -24.5 -91t-70.5 -59v-2q73 -11 110.5 -58t37.5 -115q0 -44 -17.5 -81t-48.5 -65t-72.5 -43.5t-90.5 -15.5h-225zM236 409q22 0 42 8t35 23.5t23.5 37.5t8.5 50q0 49 -30.5 78.5t-97.5 29.5h-41v-227
h60zM262 84q41 0 67.5 10.5t41.5 27t21 38t6 44.5q0 22 -6.5 43.5t-22.5 39t-42 28t-65 10.5h-86v-241h86z" />
    <glyph glyph-name="C" unicode="C" horiz-adv-x="639" 
d="M594 68q5 -14 4.5 -20t-5.5 -11q-9 -7 -29.5 -15.5t-47.5 -16t-58.5 -12.5t-64.5 -5q-75 0 -139.5 23t-112 69.5t-74.5 116t-27 163.5t27 163.5t74.5 116t112 69.5t139.5 23q33 0 64.5 -5t58.5 -12.5t47.5 -16t29.5 -15.5q5 -5 5.5 -10t-4.5 -16l-16 -42q-4 -5 -11 -4.5
t-15 2.5q-23 6 -66 15t-93 9q-45 0 -85.5 -14.5t-70.5 -47.5t-47.5 -86t-17.5 -129t17.5 -129t48 -86t70.5 -47.5t85 -14.5q50 0 93 9t66 15q7 2 14.5 2.5t11.5 -4.5z" />
    <glyph glyph-name="D" unicode="D" horiz-adv-x="645" 
d="M70 0q-20 0 -20 20v680q0 20 20 20h230q61 0 116.5 -26.5t97.5 -74t66.5 -113t24.5 -143.5t-26 -144t-70.5 -114.5t-104.5 -76t-128 -28.5h-206zM275 90q43 0 79.5 21t63 58.5t41 88t14.5 110.5q0 58 -16.5 106.5t-44.5 83t-65.5 53.5t-79.5 19h-91v-540h99z" />
    <glyph glyph-name="E" unicode="E" horiz-adv-x="483" 
d="M70 0q-20 0 -20 20v680q0 20 20 20h353q20 0 20 -20v-50q0 -20 -20 -20h-247v-221h197q20 0 20 -20v-50q0 -20 -20 -20h-197v-229h247q20 0 20 -20v-50q0 -20 -20 -20h-353z" />
    <glyph glyph-name="F" unicode="F" horiz-adv-x="483" 
d="M70 0q-20 0 -20 20v680q0 20 20 20h353q20 0 20 -20v-50q0 -20 -20 -20h-247v-221h197q20 0 20 -20v-50q0 -20 -20 -20h-197v-299q0 -20 -20 -20h-86z" />
    <glyph glyph-name="G" unicode="G" horiz-adv-x="649" 
d="M472 319h-88q-20 0 -20 20v50q0 20 20 20h194q20 0 20 -20v-338q1 -9 -5 -14q-9 -7 -29.5 -15.5t-47.5 -16t-58.5 -12.5t-64.5 -5q-75 0 -139.5 23t-112 69.5t-74.5 116t-27 163.5t27 163.5t74.5 116t112 69.5t139.5 23q33 0 64.5 -5t58.5 -12.5t47.5 -16t29.5 -15.5
q5 -5 5.5 -10t-4.5 -16l-16 -37q-4 -5 -11 -4.5t-15 2.5q-23 6 -66 15t-93 9q-45 0 -85.5 -15t-70.5 -48.5t-47.5 -87t-17.5 -131.5t17.5 -131.5t48 -87t70.5 -48.5t85 -15q41 0 79 6v235z" />
    <glyph glyph-name="H" unicode="H" horiz-adv-x="609" 
d="M453 0q-20 0 -20 20v304h-257v-304q0 -20 -20 -20h-86q-20 0 -20 20v680q0 20 20 20h86q20 0 20 -20v-286h257v286q0 20 20 20h86q20 0 20 -20v-680q0 -20 -20 -20h-86z" />
    <glyph glyph-name="I" unicode="I" horiz-adv-x="226" 
d="M70 0q-20 0 -20 20v680q0 20 20 20h86q20 0 20 -20v-680q0 -20 -20 -20h-86z" />
    <glyph glyph-name="J" unicode="J" horiz-adv-x="356" 
d="M10 70q0 20 20 20h13q37 0 64.5 9.5t46 31.5t27.5 58.5t9 90.5v420q0 20 20 20h86q20 0 20 -20v-441q-2 -128 -69 -193.5t-181 -65.5q-17 0 -28.5 0.5t-9.5 0.5q-18 1 -18 21v48z" />
    <glyph glyph-name="K" unicode="K" horiz-adv-x="637" 
d="M449 0q-20 0 -32 16l-241 311v-307q0 -20 -20 -20h-86q-20 0 -20 20v680q0 20 20 20h86q20 0 20 -20v-308l248 312q12 16 32 16h103q20 0 8 -16l-279 -335l287 -353q12 -16 -8 -16h-118z" />
    <glyph glyph-name="L" unicode="L" horiz-adv-x="463" 
d="M443 20q0 -20 -20 -20h-353q-20 0 -20 20v680q0 20 20 20h86q20 0 20 -20v-610h247q20 0 20 -20v-50z" />
    <glyph glyph-name="M" unicode="M" horiz-adv-x="835" 
d="M679 0q-20 0 -20 20v280l10 201h-2l-202 -483q-8 -18 -29 -18h-65q-20 0 -30 17l-193 484h-2l10 -201v-280q0 -20 -20 -20h-66q-20 0 -20 20v680q0 20 20 20h91q20 0 30 -17l225 -546l238 545q10 18 30 18h81q20 0 20 -20v-680q0 -20 -20 -20h-86z" />
    <glyph glyph-name="N" unicode="N" horiz-adv-x="636" 
d="M496 0q-22 0 -33 16l-305 488h-2l10 -204v-280q0 -20 -20 -20h-76q-20 0 -20 20v680q0 20 20 20h70q22 0 33 -16l305 -488h2l-10 204v280q0 20 20 20h76q20 0 20 -20v-680q0 -20 -20 -20h-70z" />
    <glyph glyph-name="O" unicode="O" horiz-adv-x="786" 
d="M393 -12q-75 0 -139.5 23t-112 69.5t-74.5 116t-27 163.5t27 163.5t74.5 116t112 69.5t139.5 23t139.5 -23t112 -69.5t74.5 -116t27 -163.5t-27 -163.5t-74.5 -116t-112 -69.5t-139.5 -23zM393 83q45 0 85 14.5t70.5 47.5t48 86t17.5 129t-17.5 129t-47.5 86t-70.5 47.5
t-85.5 14.5t-85.5 -14.5t-70.5 -47.5t-47.5 -86t-17.5 -129t17.5 -129t48 -86t70.5 -47.5t85 -14.5z" />
    <glyph glyph-name="P" unicode="P" horiz-adv-x="557" 
d="M70 0q-20 0 -20 20v680q0 20 20 20h190q57 0 104 -19.5t81 -53.5t53 -80t19 -98q0 -51 -19 -96.5t-53 -79.5t-81.5 -54t-103.5 -20h-84v-199q0 -20 -20 -20h-86zM240 308q74 0 112.5 40t38.5 121t-38.5 121t-112.5 41h-64v-323h64z" />
    <glyph glyph-name="Q" unicode="Q" horiz-adv-x="786" 
d="M605 -106q-20 0 -30 17l-60 94q-59 -17 -122 -17q-75 0 -139.5 23t-112 69.5t-74.5 116t-27 163.5t27 163.5t74.5 116t112 69.5t139.5 23t139.5 -23t112 -69.5t74.5 -116t27 -163.5q0 -106 -33.5 -180t-91.5 -120l102 -150q6 -8 5 -12t-13 -4h-110zM360 240q-6 8 -5 12
t13 4h110q20 0 30 -17l50 -82q26 33 41 83t15 120q0 76 -17.5 129t-47.5 86t-70.5 47.5t-85.5 14.5t-85.5 -14.5t-70.5 -47.5t-47.5 -86t-17.5 -129t17.5 -129t48 -86t70.5 -47.5t85 -14.5q17 0 33.5 1.5t32.5 6.5z" />
    <glyph glyph-name="R" unicode="R" horiz-adv-x="567" 
d="M411 0q-20 0 -30 17l-127 202h-78v-199q0 -20 -20 -20h-86q-20 0 -20 20v680q0 20 20 20h190q57 0 104 -19.5t81 -53.5t53 -80t19 -98q0 -74 -38 -134t-104 -91l154 -228q6 -8 5 -12t-13 -4h-110zM240 308q74 0 112.5 40t38.5 121t-38.5 121t-112.5 41h-64v-323h64z" />
    <glyph glyph-name="S" unicode="S" horiz-adv-x="555" 
d="M209 319q-73 28 -118.5 77t-45.5 126q0 49 19.5 88t52.5 66t77 41.5t94 14.5q33 0 66.5 -5.5t62 -13.5t49.5 -16t28 -14q5 -4 5.5 -9t-4.5 -17l-16 -42q-2 -6 -10 -5t-16 3q-10 3 -28 7t-40 7.5t-46 6.5t-45 3q-40 0 -66 -10t-41 -25.5t-20.5 -33.5t-5.5 -34
q0 -27 17.5 -50.5t68.5 -43.5l96 -36q43 -16 75.5 -39.5t54 -52t32 -60.5t10.5 -65q0 -46 -19 -82.5t-53 -62.5t-82 -40t-105 -14q-32 0 -65 5t-62.5 12.5t-51.5 16t-31 15.5q-5 5 -5.5 10t4.5 16l16 42q2 6 10 5t16 -3q10 -3 29 -7t43 -7.5t49 -6.5t47 -3q66 0 105 25.5
t39 67.5q0 36 -27.5 63t-65.5 42z" />
    <glyph glyph-name="T" unicode="T" horiz-adv-x="480" 
d="M197 0q-20 0 -20 20v610h-147q-20 0 -20 20v50q0 20 20 20h420q20 0 20 -20v-50q0 -20 -20 -20h-147v-610q0 -20 -20 -20h-86z" />
    <glyph glyph-name="U" unicode="U" horiz-adv-x="636" 
d="M490 700q0 20 20 20h56q20 0 20 -20v-444q0 -58 -20 -107t-56 -85t-85.5 -56t-108.5 -20q-57 0 -106 20.5t-84.5 56.5t-55.5 85t-20 106v444q0 20 20 20h86q20 0 20 -20v-416q0 -42 9 -79.5t27 -65.5t44.5 -44.5t61.5 -16.5q42 0 74 16t53.5 44t33 65.5t11.5 80.5v416z
" />
    <glyph glyph-name="V" unicode="V" horiz-adv-x="622" 
d="M284 0q-21 0 -28 18l-243 684q-9 18 12 18h95q20 0 27 -19l105 -322l49 -179l20 -75l19 75l40 139l125 362q7 19 27 19h65q9 0 13 -4.5t-1 -13.5l-253 -684q-8 -18 -28 -18h-44z" />
    <glyph glyph-name="W" unicode="W" horiz-adv-x="872" 
d="M564 0q-11 0 -18.5 4t-9.5 14l-102 486l-108 -486q-2 -10 -9.5 -14t-18.5 -4h-64q-22 0 -28 18l-193 684q-9 18 12 18h95q23 0 27 -19l96 -401l28 -175l28 175l96 401q4 19 25 19h62q21 0 25 -19l89 -401l25 -175l31 175l103 401q7 19 27 19h65q9 0 13 -4.5t-1 -13.5
l-203 -684q-6 -18 -28 -18h-64z" />
    <glyph glyph-name="X" unicode="X" horiz-adv-x="587" 
d="M465 0q-24 0 -37 19l-142 249l-149 -249q-6 -11 -16 -15t-22 -4h-71q-17 0 -17.5 5t6.5 17l205 346l-194 330q-7 12 -5 17t16 5h94q27 0 37 -19l127 -229l137 229q11 19 39 19h70q17 0 18 -5t-7 -17l-194 -320l211 -356q8 -11 5.5 -16.5t-17.5 -5.5h-94z" />
    <glyph glyph-name="Y" unicode="Y" horiz-adv-x="628" 
d="M266 0q-20 0 -20 20v243l-232 440q-10 17 10 17h107q20 0 30 -17l160 -324l172 323q8 18 29 18h82q19 0 11 -18l-243 -439v-243q0 -20 -20 -20h-86z" />
    <glyph glyph-name="Z" unicode="Z" horiz-adv-x="486" 
d="M30 0q-20 0 -20 20v36q0 19 10 38l303 536h-287q-20 0 -20 20v50q0 20 20 20h412q20 0 20 -20v-36q0 -19 -10 -38l-302 -536h300q20 0 20 -20v-50q0 -20 -20 -20h-426z" />
    <glyph glyph-name="bracketleft" unicode="[" horiz-adv-x="273" 
d="M70 -150q-20 0 -20 20v980q0 20 20 20h153q20 0 20 -20v-50q0 -20 -20 -20h-47v-840h47q20 0 20 -20v-50q0 -20 -20 -20h-153z" />
    <glyph glyph-name="backslash" unicode="\" horiz-adv-x="438" 
d="M370 -22q-18 -9 -27 10l-330 706q-9 18 10 27l45 21q18 9 27 -10l330 -706q9 -18 -10 -27z" />
    <glyph glyph-name="bracketright" unicode="]" horiz-adv-x="273" 
d="M50 -150q-20 0 -20 20v50q0 20 20 20h47v840h-47q-20 0 -20 20v50q0 20 20 20h153q20 0 20 -20v-980q0 -20 -20 -20h-153z" />
    <glyph glyph-name="asciicircum" unicode="^" horiz-adv-x="504" 
d="M284 740q11 0 17 -5t11 -13l179 -284q5 -9 1 -13.5t-13 -4.5h-72q-11 0 -16 5t-10 14l-129 231l-129 -231q-5 -9 -10 -14t-16 -5h-72q-21 0 -12 18l179 284q5 8 11 13t17 5h64z" />
    <glyph glyph-name="underscore" unicode="_" horiz-adv-x="670" 
d="M20 -250q-20 0 -20 20v50q0 20 20 20h630q20 0 20 -20v-50q0 -20 -20 -20h-630z" />
    <glyph glyph-name="grave" unicode="`" horiz-adv-x="299" 
d="M245 625q10 -17 -10 -17h-31q-20 0 -35 14l-111 104q-15 14 5 14h91q20 0 31 -17z" />
    <glyph glyph-name="a" unicode="a" horiz-adv-x="514" 
d="M404 0q-11 0 -14.5 4.5t-5.5 15.5l-10 41h-2q-20 -36 -56.5 -54.5t-87.5 -18.5q-38 0 -72 11t-60 33.5t-41 56.5t-15 80q0 48 16.5 79.5t45 50t66.5 26t81 7.5h103q-2 16 -7.5 36t-17.5 38t-32.5 30.5t-51.5 12.5q-24 0 -51.5 -7t-61.5 -18q-14 -5 -19 -3t-7 5l-21 32
q-9 14 1 26q7 8 24 17t40 16t51 11.5t58 4.5q65 0 107 -21.5t66.5 -58.5t34 -85t9.5 -102v-246q0 -20 -20 -20h-50zM354 248h-105q-40 0 -64 -20t-24 -56q0 -15 5 -32.5t16 -32.5t29 -25t45 -10q46 0 72 35t26 112v29z" />
    <glyph glyph-name="b" unicode="b" horiz-adv-x="581" 
d="M70 0q-20 0 -20 20v700q0 20 20 20h80q20 0 20 -20v-261h2q19 29 54.5 51t99.5 22q43 0 82.5 -13.5t68.5 -45.5t46.5 -84.5t17.5 -130.5q0 -77 -17 -129t-46 -83.5t-67.5 -45t-81.5 -13.5q-57 0 -101.5 18t-75.5 57h-2l-10 -42q-2 -11 -5.5 -15.5t-14.5 -4.5h-50zM308 71
q27 0 48.5 8t35.5 29t21.5 57t7.5 93q0 58 -8 95t-22.5 58t-35 29t-46.5 8q-66 0 -102.5 -44t-36.5 -146q0 -100 35.5 -143.5t102.5 -43.5z" />
    <glyph glyph-name="c" unicode="c" horiz-adv-x="479" 
d="M433 63q9 -14 -1 -26q-14 -16 -55 -32.5t-105 -16.5q-68 0 -113 22.5t-71.5 60t-37 87t-10.5 103.5q0 55 11 104.5t38.5 86.5t74 59t118.5 22q25 0 49 -5t44 -12.5t34.5 -16t22.5 -15.5q5 -5 6.5 -10.5t-5.5 -15.5l-21 -32q-4 -5 -11.5 -4.5t-14.5 2.5q-15 5 -40.5 15
t-58.5 10q-37 0 -61.5 -16t-39 -42t-20.5 -60t-6 -71q0 -38 6 -72t20.5 -60t39 -41t60.5 -15q29 0 53 8.5t47 16.5q8 3 15 3t11 -5z" />
    <glyph glyph-name="d" unicode="d" horiz-adv-x="581" 
d="M461 0q-11 0 -14.5 4.5t-5.5 15.5l-10 42h-2q-31 -39 -75.5 -57t-101.5 -18q-43 0 -81.5 13.5t-67.5 45t-46 83.5t-17 129q0 78 17.5 130.5t46.5 84.5t68 45.5t83 13.5q64 0 99.5 -22t54.5 -51h2v261q0 20 20 20h80q20 0 20 -20v-700q0 -20 -20 -20h-50zM273 71
q67 0 102.5 43.5t35.5 143.5q0 102 -36.5 146t-102.5 44q-26 0 -46.5 -8t-35 -29t-22.5 -58t-8 -95q0 -57 7.5 -93t21.5 -57t35.5 -29t48.5 -8z" />
    <glyph glyph-name="e" unicode="e" horiz-adv-x="516" 
d="M453 63q9 -14 -1 -26q-7 -8 -23.5 -17t-40 -16t-52.5 -11.5t-61 -4.5q-69 0 -114.5 22t-72.5 59t-37.5 85t-10.5 101q0 58 12 108.5t38.5 88t68.5 59.5t103 22q45 0 84.5 -13t68 -40t45 -67.5t16.5 -94.5q0 -29 -5.5 -48t-18 -30.5t-33.5 -16.5t-52 -5h-205
q3 -32 10.5 -58.5t22.5 -46t37.5 -30.5t55.5 -11q29 0 58 7.5t60 17.5q15 5 19.5 3t6.5 -5zM316 302q23 0 31 5.5t8 28.5q0 22 -6.5 42.5t-18 36t-27.5 25t-36 9.5q-27 0 -46 -12t-31.5 -32t-19 -46.5t-8.5 -56.5h154z" />
    <glyph glyph-name="f" unicode="f" horiz-adv-x="295" 
d="M202 20q0 -20 -20 -20h-80q-20 0 -20 20v421h-52q-20 0 -20 20v39q0 20 20 20h52v64q0 79 35 117.5t103 38.5h37q20 0 20 -20v-44q0 -20 -20 -20h-7q-17 0 -32.5 -16t-15.5 -53v-67h63q20 0 20 -20v-39q0 -20 -20 -20h-63v-421z" />
    <glyph glyph-name="g" unicode="g" horiz-adv-x="581" 
d="M411 61h-2q-19 -29 -54.5 -51t-99.5 -22q-44 0 -83 13.5t-68 45.5t-46.5 84.5t-17.5 130.5q0 77 17 129t46 83.5t67.5 45t81.5 13.5q57 0 101.5 -18t75.5 -57h2l10 42q2 11 5.5 15.5t14.5 4.5h50q20 0 20 -20v-470q0 -59 -17.5 -107t-49 -82t-75.5 -52t-97 -18
q-32 0 -65 5t-62.5 12.5t-51.5 16t-31 15.5q-5 5 -5.5 10t4.5 16l16 42q2 6 10 5t16 -3q10 -3 29 -7t43 -7.5t49 -6.5t47 -3q27 0 49 11t38 31.5t24.5 48.5t8.5 62v42zM272 72q66 0 102.5 44t36.5 146q0 100 -35.5 143.5t-102.5 43.5q-27 0 -48.5 -8t-35.5 -29t-21.5 -57
t-7.5 -93q0 -59 8 -96t22.5 -58t35 -28.5t46.5 -7.5z" />
    <glyph glyph-name="h" unicode="h" horiz-adv-x="551" 
d="M401 0q-20 0 -20 20v238q0 58 -6.5 95t-18.5 58t-29 29t-38 8q-57 0 -88 -36.5t-31 -123.5v-268q0 -20 -20 -20h-80q-20 0 -20 20v700q0 20 20 20h80q20 0 20 -20v-261h2q16 29 47 51t87 22q40 0 75.5 -13.5t62 -45.5t42 -84.5t15.5 -130.5v-238q0 -20 -20 -20h-80z" />
    <glyph glyph-name="i" unicode="i" horiz-adv-x="220" 
d="M70 620q-20 0 -20 20v80q0 20 20 20h80q20 0 20 -20v-80q0 -20 -20 -20h-80zM70 0q-20 0 -20 20v480q0 20 20 20h80q20 0 20 -20v-480q0 -20 -20 -20h-80z" />
    <glyph glyph-name="j" unicode="j" horiz-adv-x="220" 
d="M70 620q-20 0 -20 20v80q0 20 20 20h80q20 0 20 -20v-80q0 -20 -20 -20h-80zM15 -220q-20 0 -20 20v44q0 20 20 20h7q10 0 19 18.5t9 60.5v557q0 20 20 20h80q20 0 20 -20v-564q0 -79 -35 -117.5t-103 -38.5h-17z" />
    <glyph glyph-name="k" unicode="k" horiz-adv-x="487" 
d="M365 0q-20 0 -32 16l-164 211v-207q0 -20 -20 -20h-79q-20 0 -20 20v700q0 20 20 20h79q20 0 20 -20v-428l168 212q12 16 32 16h83q22 0 8 -16l-199 -235l210 -253q14 -16 -8 -16h-98z" />
    <glyph glyph-name="l" unicode="l" horiz-adv-x="226" 
d="M188 0q-68 0 -103 38.5t-35 117.5v564q0 20 20 20h80q20 0 20 -20v-557q0 -42 9 -60.5t19 -18.5h7q20 0 20 -20v-44q0 -20 -20 -20h-17z" />
    <glyph glyph-name="m" unicode="m" horiz-adv-x="772" 
d="M621 0q-19 0 -19 20v282q0 29 -3.5 55.5t-12 46.5t-22 32t-33.5 12q-83 0 -85 -149v-279q0 -20 -19 -20h-82q-19 0 -19 20v282q0 29 -3.5 55.5t-12 46.5t-22 32t-33.5 12q-85 0 -85 -156v-272q0 -20 -20 -20h-80q-20 0 -20 20v480q0 20 20 20h50q11 0 14.5 -4.5
t5.5 -15.5l10 -41h2q15 35 48 54t65 19q47 0 85.5 -21t62.5 -61q20 39 56 60.5t72 21.5q37 0 70 -13t57.5 -38t39 -61.5t14.5 -83.5v-316q0 -20 -19 -20h-82z" />
    <glyph glyph-name="n" unicode="n" horiz-adv-x="536" 
d="M385 0q-19 0 -19 20v282q0 29 -4.5 55.5t-15 46.5t-28 32t-43.5 12q-105 0 -105 -156v-272q0 -20 -20 -20h-80q-20 0 -20 20v480q0 20 20 20h50q11 0 14.5 -4.5t5.5 -15.5l10 -41h2q9 18 23.5 31.5t32.5 22.5t38 14t39 5q42 0 78.5 -13t63.5 -38t43 -61.5t16 -83.5v-316
q0 -20 -19 -20h-82z" />
    <glyph glyph-name="o" unicode="o" 
d="M282 -12q-72 0 -119 21.5t-74 58t-38 86t-11 105.5t11 105.5t38 87t74 59.5t119 22t119 -22t74 -59t38 -87t11 -105q0 -56 -11 -105.5t-38 -86.5t-74 -58.5t-119 -21.5zM282 78q37 0 61 14.5t37.5 39t18.5 57.5t5 71q0 37 -5 70.5t-18.5 58.5t-37.5 39.5t-61 14.5
q-38 0 -61.5 -14.5t-37 -39.5t-18.5 -58.5t-5 -70.5q0 -38 5 -71t18.5 -57.5t37 -39t61.5 -14.5z" />
    <glyph glyph-name="p" unicode="p" horiz-adv-x="581" 
d="M70 -220q-20 0 -20 20v700q0 20 20 20h50q11 0 14.5 -4.5t5.5 -15.5l10 -42h2q31 39 75.5 57t101.5 18q43 0 81.5 -13.5t67.5 -45t46 -83.5t17 -129q0 -78 -17.5 -130.5t-46.5 -84.5t-68.5 -45.5t-82.5 -13.5q-64 0 -99.5 22t-54.5 51h-2v-261q0 -20 -20 -20h-80zM309 72
q26 0 46.5 7.5t35 28.5t22.5 58t8 96q0 57 -7.5 93t-21.5 57t-35.5 29t-48.5 8q-67 0 -102.5 -43.5t-35.5 -143.5q0 -102 36.5 -146t102.5 -44z" />
    <glyph glyph-name="q" unicode="q" horiz-adv-x="581" 
d="M431 -220q-20 0 -20 20v261h-2q-19 -29 -54.5 -51t-99.5 -22q-44 0 -83 13.5t-68 45.5t-46.5 84.5t-17.5 130.5q0 77 17 129t46 83.5t67.5 45t81.5 13.5q57 0 101.5 -18t75.5 -57h2l10 42q2 11 5.5 15.5t14.5 4.5h50q20 0 20 -20v-700q0 -20 -20 -20h-80zM272 72
q66 0 102.5 44t36.5 146q0 100 -35.5 143.5t-102.5 43.5q-27 0 -48.5 -8t-35.5 -29t-21.5 -57t-7.5 -93q0 -59 8 -96t22.5 -58t35 -28.5t46.5 -7.5z" />
    <glyph glyph-name="r" unicode="r" horiz-adv-x="316" 
d="M70 0q-20 0 -20 20v480q0 20 20 20h50q11 0 13 -5t7 -15l10 -38h2q16 25 33.5 38t34.5 19t34.5 7.5t33.5 1.5q11 0 14.5 -2t3.5 -13v-75q0 -10 -3.5 -13.5t-9.5 -4t-13.5 1t-14.5 1.5q-95 0 -95 -97v-306q0 -20 -20 -20h-80z" />
    <glyph glyph-name="s" unicode="s" horiz-adv-x="474" 
d="M156 227q-56 17 -81 56t-25 89q0 34 12 63.5t35.5 51.5t58.5 34t81 12q64 0 110.5 -16t63.5 -33q3 -3 5.5 -9t-5.5 -17l-21 -32q-3 -7 -11 -5.5t-15 3.5q-27 10 -55.5 17.5t-60.5 7.5q-45 0 -64.5 -18t-19.5 -47q0 -17 9 -30t30 -19l117 -34q65 -19 89.5 -56t24.5 -95
q0 -41 -17 -71t-45.5 -50.5t-66.5 -30.5t-79 -10q-32 0 -61 4t-53 10.5t-41.5 15.5t-24.5 19q-9 13 -1 26l21 32q4 5 11.5 4.5t14.5 -2.5q29 -10 60 -17.5t68 -7.5q31 0 50.5 6t30.5 15.5t15 21.5t4 24q0 23 -17.5 35.5t-60.5 26.5z" />
    <glyph glyph-name="t" unicode="t" horiz-adv-x="315" 
d="M220 0q-68 0 -103 38.5t-35 117.5v285h-52q-20 0 -20 20v39q0 20 20 20h52v77q0 11 5 13.5t15 6.5l80 30q10 4 15 -2.5t5 -17.5v-107h63q20 0 20 -20v-39q0 -20 -20 -20h-63v-288q0 -37 15.5 -53t32.5 -16h7q20 0 20 -20v-44q0 -20 -20 -20h-37z" />
    <glyph glyph-name="u" unicode="u" horiz-adv-x="536" 
d="M416 0q-11 0 -14.5 4.5t-5.5 15.5l-10 41h-2q-9 -18 -23.5 -31.5t-32.5 -22.5t-38 -14t-39 -5q-42 0 -78.5 13t-63.5 38t-43 61.5t-16 83.5v316q0 20 19 20h82q19 0 19 -20v-282q0 -29 4.5 -55.5t15 -46.5t28 -32t43.5 -12q105 0 105 156v272q0 20 20 20h80q20 0 20 -20
v-480q0 -20 -20 -20h-50z" />
    <glyph glyph-name="v" unicode="v" horiz-adv-x="504" 
d="M220 0q-19 0 -28 18l-179 484q-9 18 12 18h92q20 0 26 -19l109 -381l109 381q4 19 26 19h92q9 0 13 -4.5t-1 -13.5l-179 -484q-9 -18 -28 -18h-64z" />
    <glyph glyph-name="w" unicode="w" horiz-adv-x="784" 
d="M520 0q-19 0 -28 18l-100 324l-100 -324q-9 -18 -28 -18h-64q-19 0 -28 18l-159 484q-9 18 12 18h92q20 0 26 -19l89 -381l99 381q4 19 25 19h72q21 0 25 -19l99 -381l89 381q4 19 26 19h92q9 0 13 -4.5t-1 -13.5l-159 -484q-9 -18 -28 -18h-64z" />
    <glyph glyph-name="x" unicode="x" horiz-adv-x="504" 
d="M371 0q-20 0 -30 17l-89 177l-94 -177q-10 -17 -31 -17h-104q-20 0 -8 16l168 250l-160 238q-12 16 8 16h110q20 0 30 -17l81 -170l86 170q10 17 31 17h104q12 0 13 -4t-5 -12l-160 -238l168 -250q12 -16 -8 -16h-110z" />
    <glyph glyph-name="y" unicode="y" horiz-adv-x="524" 
d="M120 -220q-9 0 -13 4.5t1 13.5l94 210l-189 494q-9 18 12 18h92q20 0 26 -19l121 -382l122 382q7 19 27 19h86q9 0 13 -4.5t-1 -13.5l-274 -704q-9 -18 -28 -18h-89z" />
    <glyph glyph-name="z" unicode="z" horiz-adv-x="426" 
d="M50 0q-20 0 -20 20v36q0 19 10 38l210 347h-194q-20 0 -20 20v39q0 20 20 20h312q20 0 20 -20v-36q0 -19 -10 -38l-209 -347h207q20 0 20 -20v-39q0 -20 -20 -20h-326z" />
    <glyph glyph-name="braceleft" unicode="{" horiz-adv-x="407" 
d="M70 319q-20 0 -20 20v50q0 20 20 20q19 0 34.5 10.5t26 28.5t16 41.5t5.5 49.5v144q0 30 12 54t31.5 40.5t44 25.5t50.5 9h47q20 0 20 -20v-56q0 -20 -20 -20h-14q-26 0 -36 -26.5t-10 -70.5v-112q0 -60 -23 -94t-59 -48v-2q37 -13 59.5 -47.5t22.5 -94.5v-118
q0 -44 10 -70.5t36 -26.5h14q20 0 20 -20v-56q0 -20 -20 -20h-47q-25 0 -50 8.5t-44.5 25t-31.5 40.5t-12 55v150q0 26 -5 49.5t-15.5 41.5t-26 28.5t-35.5 10.5z" />
    <glyph glyph-name="bar" unicode="|" horiz-adv-x="190" 
d="M70 -150q-20 0 -20 20v880q0 20 20 20h50q20 0 20 -20v-880q0 -20 -20 -20h-50z" />
    <glyph glyph-name="braceright" unicode="}" horiz-adv-x="407" 
d="M337 319q-20 0 -35.5 -10.5t-26 -28.5t-15.5 -41.5t-5 -49.5v-150q0 -31 -12 -55t-31.5 -40.5t-44.5 -25t-50 -8.5h-47q-20 0 -20 20v56q0 20 20 20h14q26 0 36 26.5t10 70.5v118q0 60 22.5 94.5t59.5 47.5v2q-36 14 -59 48t-23 94v112q0 44 -10 70.5t-36 26.5h-14
q-20 0 -20 20v56q0 20 20 20h47q26 0 50.5 -9t44 -25.5t31.5 -40.5t12 -54v-144q0 -26 5.5 -49.5t16 -41.5t25.5 -28.5t35 -10.5t20 -20v-50q0 -20 -20 -20z" />
    <glyph glyph-name="asciitilde" unicode="~" horiz-adv-x="381" 
d="M66 309q-7 0 -11.5 5t-4.5 11q1 20 6 38t15.5 31.5t27 21.5t39.5 8q17 0 33.5 -6t32.5 -13q24 -11 31 -13.5t9 -2.5q8 0 11.5 5t6.5 11.5t8 11.5t16 5h30q6 0 10.5 -5t4.5 -11q-1 -41 -21 -70t-66 -29q-9 0 -17.5 2.5t-16.5 5.5q-26 10 -46 18.5t-26 8.5q-8 0 -12.5 -5
t-8 -11.5t-8.5 -11.5t-13 -5h-30z" />
    <glyph glyph-name="exclamdown" unicode="&#xa1;" horiz-adv-x="226" 
d="M136 250q19 0 20 -20l20 -460q1 -20 -20 -20h-86q-21 0 -20 20l20 460q1 20 20 20h46zM70 350q-20 0 -20 20v80q0 20 20 20h86q20 0 20 -20v-80q0 -20 -20 -20h-86z" />
    <glyph glyph-name="cent" unicode="&#xa2;" horiz-adv-x="479" 
d="M433 63q9 -14 -1 -26q-11 -12 -37 -25t-66 -19v-123q0 -20 -20 -20h-50q-20 0 -20 20v120q-59 5 -97 29t-61 60.5t-32 83.5t-9 98t9 96.5t32 81.5t61 60t97 31v120q0 20 20 20h50q20 0 20 -20v-122q36 -7 64 -20.5t39 -23.5q5 -5 6.5 -10.5t-5.5 -15.5l-21 -32
q-4 -5 -11.5 -4.5t-14.5 2.5q-15 5 -40.5 15t-58.5 10q-37 0 -61.5 -16t-39 -42t-20.5 -60t-6 -71q0 -38 6 -72t20.5 -60t39 -41t60.5 -15q29 0 53 8.5t47 16.5q8 3 15 3t11 -5z" />
    <glyph glyph-name="yen" unicode="&#xa5;" horiz-adv-x="628" 
d="M111 322q0 20 20 20h73l-190 361q-10 17 10 17h107q20 0 30 -17l160 -324l172 323q8 18 29 18h82q19 0 11 -18l-200 -360h82q20 0 20 -20v-44q0 -20 -20 -20h-125v-70h125q20 0 20 -20v-44q0 -20 -20 -20h-125v-84q0 -20 -20 -20h-86q-20 0 -20 20v84h-115q-20 0 -20 20
v44q0 20 20 20h115v70h-115q-20 0 -20 20v44z" />
    <glyph glyph-name="dieresis" unicode="&#xa8;" horiz-adv-x="400" 
d="M70 610q-20 0 -20 20v70q0 20 20 20h70q20 0 20 -20v-70q0 -20 -20 -20h-70zM260 610q-20 0 -20 20v70q0 20 20 20h70q20 0 20 -20v-70q0 -20 -20 -20h-70z" />
    <glyph glyph-name="copyright" unicode="&#xa9;" horiz-adv-x="700" 
d="M50 280q0 62 23.5 117t64 95.5t95.5 64t117 23.5t117 -23.5t95.5 -64t64 -95.5t23.5 -117t-23.5 -117t-64 -95.5t-95.5 -64t-117 -23.5t-117 23.5t-95.5 64t-64 95.5t-23.5 117zM90 280q0 -54 20.5 -101.5t55.5 -82.5t82.5 -55.5t101.5 -20.5t101.5 20.5t82.5 55.5
t55.5 82.5t20.5 101.5t-20.5 101.5t-55.5 82.5t-82.5 55.5t-101.5 20.5t-101.5 -20.5t-82.5 -55.5t-55.5 -82.5t-20.5 -101.5zM471 140q4 -11 -1 -16q-9 -7 -38 -15.5t-62 -8.5q-37 0 -69 11.5t-56 34.5t-37.5 58t-13.5 82t13.5 82t37 58t55.5 34.5t70 11.5q33 0 62 -9
t38 -16q5 -3 1 -13l-8 -21q-3 -3 -13 -1q-12 3 -33.5 7.5t-46.5 4.5q-23 0 -43 -7.5t-35 -24t-23.5 -42.5t-8.5 -64t8.5 -64.5t23.5 -43t35 -24t43 -7.5q25 0 46.5 4.5t33.5 7.5q3 2 7 2t6 -3z" />
    <glyph glyph-name="guillemotleft" unicode="&#xab;" horiz-adv-x="536" 
d="M124 363l204 -159q8 -7 13 -12t5 -16v-54q0 -20 -18 -12l-270 211q-8 7 -13 12t-5 16v28q0 11 5 16t13 12l270 211q18 8 18 -12v-54q0 -11 -5 -16t-13 -12zM324 363l154 -119q8 -7 13 -12t5 -16v-54q0 -20 -18 -12l-220 171q-8 7 -13 12t-5 16v28q0 11 5 16t13 12
l220 171q9 5 13.5 1t4.5 -13v-54q0 -11 -5 -16t-13 -12z" />
    <glyph glyph-name="registered" unicode="&#xae;" horiz-adv-x="700" 
d="M50 460q0 62 23.5 117t64 95.5t95.5 64t117 23.5t117 -23.5t95.5 -64t64 -95.5t23.5 -117t-23.5 -117t-64 -95.5t-95.5 -64t-117 -23.5t-117 23.5t-95.5 64t-64 95.5t-23.5 117zM90 460q0 -54 20.5 -101.5t55.5 -82.5t82.5 -55.5t101.5 -20.5t101.5 20.5t82.5 55.5
t55.5 82.5t20.5 101.5t-20.5 101.5t-55.5 82.5t-82.5 55.5t-101.5 20.5t-101.5 -20.5t-82.5 -55.5t-55.5 -82.5t-20.5 -101.5zM427 287q-10 0 -15 8l-63 101h-39v-99q0 -10 -10 -10h-43q-10 0 -10 10v340q0 10 10 10h95q28 0 51.5 -10t40.5 -27t26.5 -40t9.5 -49
q0 -37 -19 -67t-52 -45l77 -114q3 -5 2.5 -6.5t-6.5 -1.5h-55zM342 441q75 0 75 80q0 81 -75 81h-32v-161h32z" />
    <glyph glyph-name="macron" unicode="&#xaf;" horiz-adv-x="450" 
d="M70 630q-20 0 -20 20v30q0 20 20 20h310q20 0 20 -20v-30q0 -20 -20 -20h-310z" />
    <glyph glyph-name="acute" unicode="&#xb4;" horiz-adv-x="299" 
d="M114 723q11 17 31 17h91q20 0 5 -14l-111 -104q-15 -14 -35 -14h-31q-20 0 -10 17z" />
    <glyph glyph-name="cedilla" unicode="&#xb8;" horiz-adv-x="276" 
d="M115 0h55l-14 -54q34 -5 52 -25.5t18 -49.5q0 -39 -31 -66t-85 -27q-18 0 -30.5 1t-10.5 3q-19 1 -18 22l1 18q1 20 21 19v-1h21q33 0 48.5 10.5t15.5 27.5q0 15 -13.5 24t-51.5 9z" />
    <glyph glyph-name="guillemotright" unicode="&#xbb;" horiz-adv-x="536" 
d="M208 522q-8 7 -13 12t-5 16v54q0 20 18 12l270 -211q8 -7 13 -12t5 -16v-28q0 -11 -5 -16t-13 -12l-270 -211q-18 -8 -18 12v54q0 11 5 16t13 12l204 159zM58 482q-8 7 -13 12t-5 16v54q0 9 4.5 13t13.5 -1l220 -171q8 -7 13 -12t5 -16v-28q0 -11 -5 -16t-13 -12
l-220 -171q-18 -8 -18 12v54q0 11 5 16t13 12l154 119z" />
    <glyph glyph-name="questiondown" unicode="&#xbf;" horiz-adv-x="508" 
d="M209 262q-20 0 -20 -20v-14q0 -24 -13.5 -47t-30 -42t-32 -32.5t-18.5 -17.5q-29 -35 -42 -73t-11 -83q3 -50 21 -85t46.5 -57t65.5 -31.5t76 -9.5q31 0 64 5.5t61.5 13t49.5 16t29 14.5q5 5 5.5 9.5t-4.5 16.5l-16 42q-2 5 -7 5t-19 -3q-13 -3 -32 -7t-39.5 -8
t-40.5 -6.5t-35 -2.5q-26 0 -44 7.5t-29 20t-16.5 28.5t-5.5 33q0 24 8 47t18.5 42t20.5 32.5t13 16.5q20 23 35.5 41.5t26 36.5t16 36.5t5.5 41.5v14q0 20 -20 20h-86zM209 362q-20 0 -20 20v80q0 20 20 20h86q20 0 20 -20v-80q0 -20 -20 -20h-86z" />
    <glyph glyph-name="Agrave" unicode="&#xc0;" horiz-adv-x="672" 
d="M552 0q-20 0 -27 19l-62 158h-284l-62 -158q-7 -19 -27 -19h-65q-9 0 -13 4.5t1 13.5l273 684q7 18 28 18h44q20 0 28 -18l273 -684q9 -18 -12 -18h-95zM341 520l-20 75l-19 -75l-90 -259h218zM369 825q10 -17 -10 -17h-31q-20 0 -35 14l-111 104q-15 14 5 14h91
q20 0 31 -17z" />
    <glyph glyph-name="Aacute" unicode="&#xc1;" horiz-adv-x="672" 
d="M552 0q-20 0 -27 19l-62 158h-284l-62 -158q-7 -19 -27 -19h-65q-9 0 -13 4.5t1 13.5l273 684q7 18 28 18h44q20 0 28 -18l273 -684q9 -18 -12 -18h-95zM341 520l-20 75l-19 -75l-90 -259h218zM377 923q11 17 31 17h91q20 0 5 -14l-111 -104q-15 -14 -35 -14h-31
q-20 0 -10 17z" />
    <glyph glyph-name="Acircumflex" unicode="&#xc2;" horiz-adv-x="672" 
d="M552 0q-20 0 -27 19l-62 158h-284l-62 -158q-7 -19 -27 -19h-65q-9 0 -13 4.5t1 13.5l273 684q7 18 28 18h44q20 0 28 -18l273 -684q9 -18 -12 -18h-95zM341 520l-20 75l-19 -75l-90 -259h218zM274 822q-14 -14 -34 -14h-34q-20 0 -8 16l72 100q12 16 32 16h68
q20 0 32 -16l72 -100q12 -16 -8 -16h-34q-20 0 -34 14l-62 62z" />
    <glyph glyph-name="Atilde" unicode="&#xc3;" horiz-adv-x="672" 
d="M552 0q-20 0 -27 19l-62 158h-284l-62 -158q-7 -19 -27 -19h-65q-9 0 -13 4.5t1 13.5l273 684q7 18 28 18h44q20 0 28 -18l273 -684q9 -18 -12 -18h-95zM341 520l-20 75l-19 -75l-90 -259h218zM211 809q-7 0 -11.5 5t-4.5 11q1 20 6 38t15.5 31.5t27 21.5t39.5 8
q17 0 33.5 -6t32.5 -13q24 -11 31 -13.5t9 -2.5q8 0 11.5 5t6.5 11.5t8 11.5t16 5h30q6 0 10.5 -5t4.5 -11q-1 -41 -21 -70t-66 -29q-9 0 -17.5 2.5t-16.5 5.5q-26 10 -46 18.5t-26 8.5q-8 0 -12.5 -5t-8 -11.5t-8.5 -11.5t-13 -5h-30z" />
    <glyph glyph-name="Adieresis" unicode="&#xc4;" horiz-adv-x="672" 
d="M552 0q-20 0 -27 19l-62 158h-284l-62 -158q-7 -19 -27 -19h-65q-9 0 -13 4.5t1 13.5l273 684q7 18 28 18h44q20 0 28 -18l273 -684q9 -18 -12 -18h-95zM341 520l-20 75l-19 -75l-90 -259h218zM206 810q-20 0 -20 20v70q0 20 20 20h70q20 0 20 -20v-70q0 -20 -20 -20h-70
zM396 810q-20 0 -20 20v70q0 20 20 20h70q20 0 20 -20v-70q0 -20 -20 -20h-70z" />
    <glyph glyph-name="Aring" unicode="&#xc5;" horiz-adv-x="672" 
d="M552 0q-20 0 -27 19l-62 158h-284l-62 -158q-7 -19 -27 -19h-65q-9 0 -13 4.5t1 13.5l273 684q7 18 28 18h44q20 0 28 -18l273 -684q9 -18 -12 -18h-95zM341 520l-20 75l-19 -75l-90 -259h218zM243 868q0 19 7.5 36t20 30t29.5 20t36 7q40 0 66.5 -26.5t26.5 -66.5
q0 -19 -7 -36t-20 -29.5t-30 -20t-36 -7.5q-18 0 -35 7.5t-30 20t-20.5 29.5t-7.5 36zM285 868q0 -20 15.5 -35.5t35.5 -15.5t35.5 14t15.5 37q0 22 -14 36.5t-37 14.5t-37 -15.5t-14 -35.5z" />
    <glyph glyph-name="AE" unicode="&#xc6;" horiz-adv-x="717" 
d="M354 0q-20 0 -20 20v157h-155l-62 -158q-7 -19 -27 -19h-65q-20 0 -12 18l273 684q7 18 28 18h343q20 0 20 -20v-50q0 -20 -20 -20h-197v-221h147q20 0 20 -20v-50q0 -20 -20 -20h-147v-229h197q20 0 20 -20v-50q0 -20 -20 -20h-303zM212 261h122v334h-13l-19 -75z" />
    <glyph glyph-name="Ccedilla" unicode="&#xc7;" horiz-adv-x="639" 
d="M356 -10q-68 5 -126 30.5t-100 71.5t-66 113t-24 155q0 94 27 163.5t74.5 116t112 69.5t139.5 23q33 0 64.5 -5t58.5 -12.5t47.5 -16t29.5 -15.5q5 -5 5.5 -10t-4.5 -16l-16 -42q-4 -5 -11 -4.5t-15 2.5q-23 6 -66 15t-93 9q-45 0 -85.5 -14.5t-70.5 -47.5t-47.5 -86
t-17.5 -129t17.5 -129t48 -86t70.5 -47.5t85 -14.5q50 0 93 9t66 15q7 2 14.5 2.5t11.5 -4.5l16 -37q5 -14 4.5 -20t-5.5 -11q-9 -6 -27 -14t-42.5 -15t-53.5 -12.5t-59 -6.5l-11 -43q34 -5 52 -25.5t18 -49.5q0 -39 -31 -66t-85 -27q-18 0 -30.5 1t-10.5 3q-19 1 -18 22
l1 18q1 20 21 19v-1h21q33 0 48.5 10.5t15.5 27.5q0 15 -11 18.5t-36 5.5q-11 1 -13.5 9.5t0.5 18.5z" />
    <glyph glyph-name="Egrave" unicode="&#xc8;" horiz-adv-x="483" 
d="M70 0q-20 0 -20 20v680q0 20 20 20h353q20 0 20 -20v-50q0 -20 -20 -20h-247v-221h197q20 0 20 -20v-50q0 -20 -20 -20h-197v-229h247q20 0 20 -20v-50q0 -20 -20 -20h-353zM305 825q10 -17 -10 -17h-31q-20 0 -35 14l-111 104q-15 14 5 14h91q20 0 31 -17z" />
    <glyph glyph-name="Eacute" unicode="&#xc9;" horiz-adv-x="483" 
d="M70 0q-20 0 -20 20v680q0 20 20 20h353q20 0 20 -20v-50q0 -20 -20 -20h-247v-221h197q20 0 20 -20v-50q0 -20 -20 -20h-197v-229h247q20 0 20 -20v-50q0 -20 -20 -20h-353zM245 923q11 17 31 17h91q20 0 5 -14l-111 -104q-15 -14 -35 -14h-31q-20 0 -10 17z" />
    <glyph glyph-name="Ecircumflex" unicode="&#xca;" horiz-adv-x="483" 
d="M70 0q-20 0 -20 20v680q0 20 20 20h353q20 0 20 -20v-50q0 -20 -20 -20h-247v-221h197q20 0 20 -20v-50q0 -20 -20 -20h-197v-229h247q20 0 20 -20v-50q0 -20 -20 -20h-353zM179 822q-14 -14 -34 -14h-34q-20 0 -8 16l72 100q12 16 32 16h68q20 0 32 -16l72 -100
q12 -16 -8 -16h-34q-20 0 -34 14l-62 62z" />
    <glyph glyph-name="Edieresis" unicode="&#xcb;" horiz-adv-x="483" 
d="M70 0q-20 0 -20 20v680q0 20 20 20h353q20 0 20 -20v-50q0 -20 -20 -20h-247v-221h197q20 0 20 -20v-50q0 -20 -20 -20h-197v-229h247q20 0 20 -20v-50q0 -20 -20 -20h-353zM111 810q-20 0 -20 20v70q0 20 20 20h70q20 0 20 -20v-70q0 -20 -20 -20h-70zM301 810
q-20 0 -20 20v70q0 20 20 20h70q20 0 20 -20v-70q0 -20 -20 -20h-70z" />
    <glyph glyph-name="Igrave" unicode="&#xcc;" horiz-adv-x="226" 
d="M70 0q-20 0 -20 20v680q0 20 20 20h86q20 0 20 -20v-680q0 -20 -20 -20h-86zM168 825q10 -17 -10 -17h-31q-20 0 -35 14l-111 104q-15 14 5 14h91q20 0 31 -17z" />
    <glyph glyph-name="Iacute" unicode="&#xcd;" horiz-adv-x="226" 
d="M70 0q-20 0 -20 20v680q0 20 20 20h86q20 0 20 -20v-680q0 -20 -20 -20h-86zM116 923q11 17 31 17h91q20 0 5 -14l-111 -104q-15 -14 -35 -14h-31q-20 0 -10 17z" />
    <glyph glyph-name="Icircumflex" unicode="&#xce;" horiz-adv-x="226" 
d="M70 0q-20 0 -20 20v680q0 20 20 20h86q20 0 20 -20v-680q0 -20 -20 -20h-86zM52 822q-14 -14 -34 -14h-34q-20 0 -8 16l72 100q12 16 32 16h68q20 0 32 -16l72 -100q12 -16 -8 -16h-34q-20 0 -34 14l-62 62z" />
    <glyph glyph-name="Idieresis" unicode="&#xcf;" horiz-adv-x="226" 
d="M70 0q-20 0 -20 20v680q0 20 20 20h86q20 0 20 -20v-680q0 -20 -20 -20h-86zM-16 810q-20 0 -20 20v70q0 20 20 20h70q20 0 20 -20v-70q0 -20 -20 -20h-70zM174 810q-20 0 -20 20v70q0 20 20 20h70q20 0 20 -20v-70q0 -20 -20 -20h-70z" />
    <glyph glyph-name="Eth" unicode="&#xd0;" horiz-adv-x="705" 
d="M130 0q-20 0 -20 20v299h-50q-20 0 -20 20v50q0 20 20 20h50v291q0 20 20 20h230q61 0 116.5 -26.5t97.5 -74t66.5 -113t24.5 -143.5t-26 -144t-70.5 -114.5t-104.5 -76t-128 -28.5h-206zM335 90q43 0 79.5 21t63 58.5t41 88t14.5 110.5q0 58 -16.5 106.5t-44.5 83
t-65.5 53.5t-79.5 19h-91v-221h154q20 0 20 -20v-50q0 -20 -20 -20h-154v-229h99z" />
    <glyph glyph-name="Ntilde" unicode="&#xd1;" horiz-adv-x="636" 
d="M496 0q-22 0 -33 16l-305 488h-2l10 -204v-280q0 -20 -20 -20h-76q-20 0 -20 20v680q0 20 20 20h70q22 0 33 -16l305 -488h2l-10 204v280q0 20 20 20h76q20 0 20 -20v-680q0 -20 -20 -20h-70zM193 809q-7 0 -11.5 5t-4.5 11q1 20 6 38t15.5 31.5t27 21.5t39.5 8
q17 0 33.5 -6t32.5 -13q24 -11 31 -13.5t9 -2.5q8 0 11.5 5t6.5 11.5t8 11.5t16 5h30q6 0 10.5 -5t4.5 -11q-1 -41 -21 -70t-66 -29q-9 0 -17.5 2.5t-16.5 5.5q-26 10 -46 18.5t-26 8.5q-8 0 -12.5 -5t-8 -11.5t-8.5 -11.5t-13 -5h-30z" />
    <glyph glyph-name="Ograve" unicode="&#xd2;" horiz-adv-x="786" 
d="M393 -12q-75 0 -139.5 23t-112 69.5t-74.5 116t-27 163.5t27 163.5t74.5 116t112 69.5t139.5 23t139.5 -23t112 -69.5t74.5 -116t27 -163.5t-27 -163.5t-74.5 -116t-112 -69.5t-139.5 -23zM393 83q45 0 85 14.5t70.5 47.5t48 86t17.5 129t-17.5 129t-47.5 86t-70.5 47.5
t-85.5 14.5t-85.5 -14.5t-70.5 -47.5t-47.5 -86t-17.5 -129t17.5 -129t48 -86t70.5 -47.5t85 -14.5zM451 825q10 -17 -10 -17h-31q-20 0 -35 14l-111 104q-15 14 5 14h91q20 0 31 -17z" />
    <glyph glyph-name="Oacute" unicode="&#xd3;" horiz-adv-x="786" 
d="M393 -12q-75 0 -139.5 23t-112 69.5t-74.5 116t-27 163.5t27 163.5t74.5 116t112 69.5t139.5 23t139.5 -23t112 -69.5t74.5 -116t27 -163.5t-27 -163.5t-74.5 -116t-112 -69.5t-139.5 -23zM393 83q45 0 85 14.5t70.5 47.5t48 86t17.5 129t-17.5 129t-47.5 86t-70.5 47.5
t-85.5 14.5t-85.5 -14.5t-70.5 -47.5t-47.5 -86t-17.5 -129t17.5 -129t48 -86t70.5 -47.5t85 -14.5zM404 923q11 17 31 17h91q20 0 5 -14l-111 -104q-15 -14 -35 -14h-31q-20 0 -10 17z" />
    <glyph glyph-name="Ocircumflex" unicode="&#xd4;" horiz-adv-x="786" 
d="M393 -12q-75 0 -139.5 23t-112 69.5t-74.5 116t-27 163.5t27 163.5t74.5 116t112 69.5t139.5 23t139.5 -23t112 -69.5t74.5 -116t27 -163.5t-27 -163.5t-74.5 -116t-112 -69.5t-139.5 -23zM393 83q45 0 85 14.5t70.5 47.5t48 86t17.5 129t-17.5 129t-47.5 86t-70.5 47.5
t-85.5 14.5t-85.5 -14.5t-70.5 -47.5t-47.5 -86t-17.5 -129t17.5 -129t48 -86t70.5 -47.5t85 -14.5zM331 822q-14 -14 -34 -14h-34q-20 0 -8 16l72 100q12 16 32 16h68q20 0 32 -16l72 -100q12 -16 -8 -16h-34q-20 0 -34 14l-62 62z" />
    <glyph glyph-name="Otilde" unicode="&#xd5;" horiz-adv-x="786" 
d="M393 -12q-75 0 -139.5 23t-112 69.5t-74.5 116t-27 163.5t27 163.5t74.5 116t112 69.5t139.5 23t139.5 -23t112 -69.5t74.5 -116t27 -163.5t-27 -163.5t-74.5 -116t-112 -69.5t-139.5 -23zM393 83q45 0 85 14.5t70.5 47.5t48 86t17.5 129t-17.5 129t-47.5 86t-70.5 47.5
t-85.5 14.5t-85.5 -14.5t-70.5 -47.5t-47.5 -86t-17.5 -129t17.5 -129t48 -86t70.5 -47.5t85 -14.5zM268 809q-7 0 -11.5 5t-4.5 11q1 20 6 38t15.5 31.5t27 21.5t39.5 8q17 0 33.5 -6t32.5 -13q24 -11 31 -13.5t9 -2.5q8 0 11.5 5t6.5 11.5t8 11.5t16 5h30q6 0 10.5 -5
t4.5 -11q-1 -41 -21 -70t-66 -29q-9 0 -17.5 2.5t-16.5 5.5q-26 10 -46 18.5t-26 8.5q-8 0 -12.5 -5t-8 -11.5t-8.5 -11.5t-13 -5h-30z" />
    <glyph glyph-name="Odieresis" unicode="&#xd6;" horiz-adv-x="786" 
d="M393 -12q-75 0 -139.5 23t-112 69.5t-74.5 116t-27 163.5t27 163.5t74.5 116t112 69.5t139.5 23t139.5 -23t112 -69.5t74.5 -116t27 -163.5t-27 -163.5t-74.5 -116t-112 -69.5t-139.5 -23zM393 83q45 0 85 14.5t70.5 47.5t48 86t17.5 129t-17.5 129t-47.5 86t-70.5 47.5
t-85.5 14.5t-85.5 -14.5t-70.5 -47.5t-47.5 -86t-17.5 -129t17.5 -129t48 -86t70.5 -47.5t85 -14.5zM263 810q-20 0 -20 20v70q0 20 20 20h70q20 0 20 -20v-70q0 -20 -20 -20h-70zM453 810q-20 0 -20 20v70q0 20 20 20h70q20 0 20 -20v-70q0 -20 -20 -20h-70z" />
    <glyph glyph-name="multiply" unicode="&#xd7;" horiz-adv-x="392" 
d="M196 428l85 84q14 14 28 0l35 -35q14 -14 0 -28l-84 -85l84 -85q14 -14 0 -28l-35 -35q-14 -14 -28 0l-85 84l-85 -84q-14 -14 -28 0l-35 35q-14 14 0 28l84 85l-84 85q-14 14 0 28l35 35q14 14 28 0z" />
    <glyph glyph-name="Oslash" unicode="&#xd8;" horiz-adv-x="786" 
d="M90 42q-16 13 -2 29l30 35q-37 46 -57.5 109t-20.5 145q0 94 27 163.5t74.5 116t112 69.5t139.5 23q60 0 112 -14.5t96 -43.5l28 33q13 16 29 3l38 -32q16 -13 2 -29l-30 -36q37 -46 57.5 -109t20.5 -144q0 -94 -27 -163.5t-74.5 -116t-112 -69.5t-139.5 -23
q-60 0 -112 14.5t-96 43.5l-28 -33q-13 -16 -29 -3zM172 360q0 -95 28 -157l331 388q-29 24 -64 35t-74 11q-45 0 -85.5 -14.5t-70.5 -47.5t-47.5 -86t-17.5 -129zM393 83q45 0 85 14.5t70.5 47.5t48 86t17.5 129q0 49 -7 87.5t-21 69.5l-331 -389q29 -24 64 -34.5t74 -10.5
z" />
    <glyph glyph-name="Ugrave" unicode="&#xd9;" horiz-adv-x="636" 
d="M490 700q0 20 20 20h56q20 0 20 -20v-444q0 -58 -20 -107t-56 -85t-85.5 -56t-108.5 -20q-57 0 -106 20.5t-84.5 56.5t-55.5 85t-20 106v444q0 20 20 20h86q20 0 20 -20v-416q0 -42 9 -79.5t27 -65.5t44.5 -44.5t61.5 -16.5q42 0 74 16t53.5 44t33 65.5t11.5 80.5v416z
M413 825q10 -17 -10 -17h-31q-20 0 -35 14l-111 104q-15 14 5 14h91q20 0 31 -17z" />
    <glyph glyph-name="Uacute" unicode="&#xda;" horiz-adv-x="636" 
d="M490 700q0 20 20 20h56q20 0 20 -20v-444q0 -58 -20 -107t-56 -85t-85.5 -56t-108.5 -20q-57 0 -106 20.5t-84.5 56.5t-55.5 85t-20 106v444q0 20 20 20h86q20 0 20 -20v-416q0 -42 9 -79.5t27 -65.5t44.5 -44.5t61.5 -16.5q42 0 74 16t53.5 44t33 65.5t11.5 80.5v416z
M282 923q11 17 31 17h91q20 0 5 -14l-111 -104q-15 -14 -35 -14h-31q-20 0 -10 17z" />
    <glyph glyph-name="Ucircumflex" unicode="&#xdb;" horiz-adv-x="636" 
d="M490 700q0 20 20 20h56q20 0 20 -20v-444q0 -58 -20 -107t-56 -85t-85.5 -56t-108.5 -20q-57 0 -106 20.5t-84.5 56.5t-55.5 85t-20 106v444q0 20 20 20h86q20 0 20 -20v-416q0 -42 9 -79.5t27 -65.5t44.5 -44.5t61.5 -16.5q42 0 74 16t53.5 44t33 65.5t11.5 80.5v416z
M256 822q-14 -14 -34 -14h-34q-20 0 -8 16l72 100q12 16 32 16h68q20 0 32 -16l72 -100q12 -16 -8 -16h-34q-20 0 -34 14l-62 62z" />
    <glyph glyph-name="Udieresis" unicode="&#xdc;" horiz-adv-x="636" 
d="M490 700q0 20 20 20h56q20 0 20 -20v-444q0 -58 -20 -107t-56 -85t-85.5 -56t-108.5 -20q-57 0 -106 20.5t-84.5 56.5t-55.5 85t-20 106v444q0 20 20 20h86q20 0 20 -20v-416q0 -42 9 -79.5t27 -65.5t44.5 -44.5t61.5 -16.5q42 0 74 16t53.5 44t33 65.5t11.5 80.5v416z
M188 810q-20 0 -20 20v70q0 20 20 20h70q20 0 20 -20v-70q0 -20 -20 -20h-70zM378 810q-20 0 -20 20v70q0 20 20 20h70q20 0 20 -20v-70q0 -20 -20 -20h-70z" />
    <glyph glyph-name="Yacute" unicode="&#xdd;" horiz-adv-x="628" 
d="M266 0q-20 0 -20 20v243l-232 440q-10 17 10 17h107q20 0 30 -17l160 -324l172 323q8 18 29 18h82q19 0 11 -18l-243 -439v-243q0 -20 -20 -20h-86zM329 923q11 17 31 17h91q20 0 5 -14l-111 -104q-15 -14 -35 -14h-31q-20 0 -10 17z" />
    <glyph glyph-name="Thorn" unicode="&#xde;" horiz-adv-x="557" 
d="M176 609h84q57 0 104 -19.5t81 -53.5t53 -80t19 -98q0 -51 -19 -96t-53 -79t-81.5 -53.5t-103.5 -19.5h-84v-90q0 -20 -20 -20h-86q-20 0 -20 20v679q0 20 20 20h86q20 0 20 -20v-90zM240 199q74 0 112.5 39t38.5 120t-38.5 121t-112.5 41h-64v-321h64z" />
    <glyph glyph-name="germandbls" unicode="&#xdf;" horiz-adv-x="627" 
d="M88 530q0 106 59.5 163t163.5 57t163.5 -51.5t59.5 -148.5q0 -54 -24.5 -91t-70.5 -59v-2q73 -13 110.5 -65.5t37.5 -127.5q0 -44 -17.5 -81t-48.5 -65t-72.5 -43.5t-90.5 -15.5h-61q-20 0 -20 20v44q0 20 20 20h28q41 0 67.5 10.5t41.5 27t21 38t6 44.5q0 26 -6.5 51
t-22.5 45t-42 32.5t-65 12.5h-27q-20 0 -20 20v44q0 20 21 20q22 0 42 8t35 23.5t23.5 37.5t8.5 50q0 54 -23 86t-73 32q-51 0 -74.5 -37.5t-23.5 -100.5v-508q0 -20 -20 -20h-86q-20 0 -20 20v416h-58q-20 0 -20 20v44q0 20 20 20h58v10z" />
    <glyph glyph-name="agrave" unicode="&#xe0;" horiz-adv-x="514" 
d="M404 0q-11 0 -14.5 4.5t-5.5 15.5l-10 41h-2q-20 -36 -56.5 -54.5t-87.5 -18.5q-38 0 -72 11t-60 33.5t-41 56.5t-15 80q0 48 16.5 79.5t45 50t66.5 26t81 7.5h103q-2 16 -7.5 36t-17.5 38t-32.5 30.5t-51.5 12.5q-24 0 -51.5 -7t-61.5 -18q-14 -5 -19 -3t-7 5l-21 32
q-9 14 1 26q7 8 24 17t40 16t51 11.5t58 4.5q65 0 107 -21.5t66.5 -58.5t34 -85t9.5 -102v-246q0 -20 -20 -20h-50zM354 248h-105q-40 0 -64 -20t-24 -56q0 -15 5 -32.5t16 -32.5t29 -25t45 -10q46 0 72 35t26 112v29zM297 625q10 -17 -10 -17h-31q-20 0 -35 14l-111 104
q-15 14 5 14h91q20 0 31 -17z" />
    <glyph glyph-name="aacute" unicode="&#xe1;" horiz-adv-x="514" 
d="M404 0q-11 0 -14.5 4.5t-5.5 15.5l-10 41h-2q-20 -36 -56.5 -54.5t-87.5 -18.5q-38 0 -72 11t-60 33.5t-41 56.5t-15 80q0 48 16.5 79.5t45 50t66.5 26t81 7.5h103q-2 16 -7.5 36t-17.5 38t-32.5 30.5t-51.5 12.5q-24 0 -51.5 -7t-61.5 -18q-14 -5 -19 -3t-7 5l-21 32
q-9 14 1 26q7 8 24 17t40 16t51 11.5t58 4.5q65 0 107 -21.5t66.5 -58.5t34 -85t9.5 -102v-246q0 -20 -20 -20h-50zM354 248h-105q-40 0 -64 -20t-24 -56q0 -15 5 -32.5t16 -32.5t29 -25t45 -10q46 0 72 35t26 112v29zM278 723q11 17 31 17h91q20 0 5 -14l-111 -104
q-15 -14 -35 -14h-31q-20 0 -10 17z" />
    <glyph glyph-name="acircumflex" unicode="&#xe2;" horiz-adv-x="514" 
d="M404 0q-11 0 -14.5 4.5t-5.5 15.5l-10 41h-2q-20 -36 -56.5 -54.5t-87.5 -18.5q-38 0 -72 11t-60 33.5t-41 56.5t-15 80q0 48 16.5 79.5t45 50t66.5 26t81 7.5h103q-2 16 -7.5 36t-17.5 38t-32.5 30.5t-51.5 12.5q-24 0 -51.5 -7t-61.5 -18q-14 -5 -19 -3t-7 5l-21 32
q-9 14 1 26q7 8 24 17t40 16t51 11.5t58 4.5q65 0 107 -21.5t66.5 -58.5t34 -85t9.5 -102v-246q0 -20 -20 -20h-50zM354 248h-105q-40 0 -64 -20t-24 -56q0 -15 5 -32.5t16 -32.5t29 -25t45 -10q46 0 72 35t26 112v29zM195 622q-14 -14 -34 -14h-34q-20 0 -8 16l72 100
q12 16 32 16h68q20 0 32 -16l72 -100q12 -16 -8 -16h-34q-20 0 -34 14l-62 62z" />
    <glyph glyph-name="atilde" unicode="&#xe3;" horiz-adv-x="514" 
d="M404 0q-11 0 -14.5 4.5t-5.5 15.5l-10 41h-2q-20 -36 -56.5 -54.5t-87.5 -18.5q-38 0 -72 11t-60 33.5t-41 56.5t-15 80q0 48 16.5 79.5t45 50t66.5 26t81 7.5h103q-2 16 -7.5 36t-17.5 38t-32.5 30.5t-51.5 12.5q-24 0 -51.5 -7t-61.5 -18q-14 -5 -19 -3t-7 5l-21 32
q-9 14 1 26q7 8 24 17t40 16t51 11.5t58 4.5q65 0 107 -21.5t66.5 -58.5t34 -85t9.5 -102v-246q0 -20 -20 -20h-50zM354 248h-105q-40 0 -64 -20t-24 -56q0 -15 5 -32.5t16 -32.5t29 -25t45 -10q46 0 72 35t26 112v29zM132 609q-7 0 -11.5 5t-4.5 11q1 20 6 38t15.5 31.5
t27 21.5t39.5 8q17 0 33.5 -6t32.5 -13q24 -11 31 -13.5t9 -2.5q8 0 11.5 5t6.5 11.5t8 11.5t16 5h30q6 0 10.5 -5t4.5 -11q-1 -41 -21 -70t-66 -29q-9 0 -17.5 2.5t-16.5 5.5q-26 10 -46 18.5t-26 8.5q-8 0 -12.5 -5t-8 -11.5t-8.5 -11.5t-13 -5h-30z" />
    <glyph glyph-name="adieresis" unicode="&#xe4;" horiz-adv-x="514" 
d="M404 0q-11 0 -14.5 4.5t-5.5 15.5l-10 41h-2q-20 -36 -56.5 -54.5t-87.5 -18.5q-38 0 -72 11t-60 33.5t-41 56.5t-15 80q0 48 16.5 79.5t45 50t66.5 26t81 7.5h103q-2 16 -7.5 36t-17.5 38t-32.5 30.5t-51.5 12.5q-24 0 -51.5 -7t-61.5 -18q-14 -5 -19 -3t-7 5l-21 32
q-9 14 1 26q7 8 24 17t40 16t51 11.5t58 4.5q65 0 107 -21.5t66.5 -58.5t34 -85t9.5 -102v-246q0 -20 -20 -20h-50zM354 248h-105q-40 0 -64 -20t-24 -56q0 -15 5 -32.5t16 -32.5t29 -25t45 -10q46 0 72 35t26 112v29zM127 610q-20 0 -20 20v70q0 20 20 20h70q20 0 20 -20
v-70q0 -20 -20 -20h-70zM317 610q-20 0 -20 20v70q0 20 20 20h70q20 0 20 -20v-70q0 -20 -20 -20h-70z" />
    <glyph glyph-name="aring" unicode="&#xe5;" horiz-adv-x="514" 
d="M404 0q-11 0 -14.5 4.5t-5.5 15.5l-10 41h-2q-20 -36 -56.5 -54.5t-87.5 -18.5q-38 0 -72 11t-60 33.5t-41 56.5t-15 80q0 48 16.5 79.5t45 50t66.5 26t81 7.5h103q-2 16 -7.5 36t-17.5 38t-32.5 30.5t-51.5 12.5q-24 0 -51.5 -7t-61.5 -18q-14 -5 -19 -3t-7 5l-21 32
q-9 14 1 26q7 8 24 17t40 16t51 11.5t58 4.5q65 0 107 -21.5t66.5 -58.5t34 -85t9.5 -102v-246q0 -20 -20 -20h-50zM354 248h-105q-40 0 -64 -20t-24 -56q0 -15 5 -32.5t16 -32.5t29 -25t45 -10q46 0 72 35t26 112v29zM164 668q0 19 7.5 36t20 30t29.5 20t36 7
q40 0 66.5 -26.5t26.5 -66.5q0 -19 -7 -36t-20 -29.5t-30 -20t-36 -7.5q-18 0 -35 7.5t-30 20t-20.5 29.5t-7.5 36zM206 668q0 -20 15.5 -35.5t35.5 -15.5t35.5 14t15.5 37q0 22 -14 36.5t-37 14.5t-37 -15.5t-14 -35.5z" />
    <glyph glyph-name="ae" unicode="&#xe6;" horiz-adv-x="826" 
d="M585 -12q-65 0 -108.5 19t-70.5 51q-27 -32 -70.5 -51t-107.5 -19q-38 0 -72 11t-60 33.5t-41 56.5t-15 80q0 48 16.5 79.5t45 50t66.5 26t81 7.5h103q-2 16 -7.5 36t-17.5 38t-32.5 30.5t-51.5 12.5q-24 0 -51.5 -7t-61.5 -18q-14 -5 -19 -3t-7 5l-21 32q-9 14 1 26
q7 8 24 17t40 16t51 11.5t58 4.5q57 0 95 -16.5t64 -45.5q26 29 64.5 45.5t91.5 16.5q45 0 84.5 -13t68 -40t45 -67.5t16.5 -94.5q0 -29 -5.5 -48t-18 -30.5t-33.5 -16.5t-52 -5h-205q3 -32 10.5 -58.5t22.5 -46t37.5 -30.5t55.5 -11q29 0 58 7.5t60 17.5q15 5 19.5 3
t6.5 -5l21 -32q9 -14 -1 -26q-7 -8 -23.5 -17t-40 -16t-52.5 -11.5t-61 -4.5zM354 248h-105q-40 0 -64 -20t-24 -56q0 -15 5 -32.5t16 -32.5t29 -25t45 -10q46 0 72 35t26 112v29zM626 302q23 0 31 5.5t8 28.5q0 22 -6.5 42.5t-18 36t-27.5 25t-36 9.5q-27 0 -46 -12
t-31.5 -32t-19 -46.5t-8.5 -56.5h154z" />
    <glyph glyph-name="ccedilla" unicode="&#xe7;" horiz-adv-x="479" 
d="M246 -11q-60 4 -100 27.5t-63.5 60.5t-33 84.5t-9.5 99.5q0 55 11 104.5t38.5 86.5t74 59t118.5 22q25 0 49 -5t44 -12.5t34.5 -16t22.5 -15.5q5 -5 6.5 -10.5t-5.5 -15.5l-21 -32q-4 -5 -11.5 -4.5t-14.5 2.5q-15 5 -40.5 15t-58.5 10q-37 0 -61.5 -16t-39 -42
t-20.5 -60t-6 -71q0 -38 6 -72t20.5 -60t39 -41t60.5 -15q29 0 53 8.5t47 16.5q8 3 15 3t11 -5l21 -32q9 -14 -1 -26q-12 -14 -45.5 -28.5t-85.5 -19.5l-11 -43q34 -5 52 -25.5t18 -49.5q0 -39 -31 -66t-85 -27q-18 0 -30.5 1t-10.5 3q-19 1 -18 22l1 18q1 20 21 19v-1h21
q33 0 48.5 10.5t15.5 27.5q0 15 -11 18.5t-36 5.5q-11 1 -13 9.5t0 18.5z" />
    <glyph glyph-name="egrave" unicode="&#xe8;" horiz-adv-x="516" 
d="M453 63q9 -14 -1 -26q-7 -8 -23.5 -17t-40 -16t-52.5 -11.5t-61 -4.5q-69 0 -114.5 22t-72.5 59t-37.5 85t-10.5 101q0 58 12 108.5t38.5 88t68.5 59.5t103 22q45 0 84.5 -13t68 -40t45 -67.5t16.5 -94.5q0 -29 -5.5 -48t-18 -30.5t-33.5 -16.5t-52 -5h-205
q3 -32 10.5 -58.5t22.5 -46t37.5 -30.5t55.5 -11q29 0 58 7.5t60 17.5q15 5 19.5 3t6.5 -5zM316 302q23 0 31 5.5t8 28.5q0 22 -6.5 42.5t-18 36t-27.5 25t-36 9.5q-27 0 -46 -12t-31.5 -32t-19 -46.5t-8.5 -56.5h154zM317 625q10 -17 -10 -17h-31q-20 0 -35 14l-111 104
q-15 14 5 14h91q20 0 31 -17z" />
    <glyph glyph-name="eacute" unicode="&#xe9;" horiz-adv-x="516" 
d="M453 63q9 -14 -1 -26q-7 -8 -23.5 -17t-40 -16t-52.5 -11.5t-61 -4.5q-69 0 -114.5 22t-72.5 59t-37.5 85t-10.5 101q0 58 12 108.5t38.5 88t68.5 59.5t103 22q45 0 84.5 -13t68 -40t45 -67.5t16.5 -94.5q0 -29 -5.5 -48t-18 -30.5t-33.5 -16.5t-52 -5h-205
q3 -32 10.5 -58.5t22.5 -46t37.5 -30.5t55.5 -11q29 0 58 7.5t60 17.5q15 5 19.5 3t6.5 -5zM316 302q23 0 31 5.5t8 28.5q0 22 -6.5 42.5t-18 36t-27.5 25t-36 9.5q-27 0 -46 -12t-31.5 -32t-19 -46.5t-8.5 -56.5h154zM262 723q11 17 31 17h91q20 0 5 -14l-111 -104
q-15 -14 -35 -14h-31q-20 0 -10 17z" />
    <glyph glyph-name="ecircumflex" unicode="&#xea;" horiz-adv-x="516" 
d="M453 63q9 -14 -1 -26q-7 -8 -23.5 -17t-40 -16t-52.5 -11.5t-61 -4.5q-69 0 -114.5 22t-72.5 59t-37.5 85t-10.5 101q0 58 12 108.5t38.5 88t68.5 59.5t103 22q45 0 84.5 -13t68 -40t45 -67.5t16.5 -94.5q0 -29 -5.5 -48t-18 -30.5t-33.5 -16.5t-52 -5h-205
q3 -32 10.5 -58.5t22.5 -46t37.5 -30.5t55.5 -11q29 0 58 7.5t60 17.5q15 5 19.5 3t6.5 -5zM316 302q23 0 31 5.5t8 28.5q0 22 -6.5 42.5t-18 36t-27.5 25t-36 9.5q-27 0 -46 -12t-31.5 -32t-19 -46.5t-8.5 -56.5h154zM196 622q-14 -14 -34 -14h-34q-20 0 -8 16l72 100
q12 16 32 16h68q20 0 32 -16l72 -100q12 -16 -8 -16h-34q-20 0 -34 14l-62 62z" />
    <glyph glyph-name="edieresis" unicode="&#xeb;" horiz-adv-x="516" 
d="M453 63q9 -14 -1 -26q-7 -8 -23.5 -17t-40 -16t-52.5 -11.5t-61 -4.5q-69 0 -114.5 22t-72.5 59t-37.5 85t-10.5 101q0 58 12 108.5t38.5 88t68.5 59.5t103 22q45 0 84.5 -13t68 -40t45 -67.5t16.5 -94.5q0 -29 -5.5 -48t-18 -30.5t-33.5 -16.5t-52 -5h-205
q3 -32 10.5 -58.5t22.5 -46t37.5 -30.5t55.5 -11q29 0 58 7.5t60 17.5q15 5 19.5 3t6.5 -5zM316 302q23 0 31 5.5t8 28.5q0 22 -6.5 42.5t-18 36t-27.5 25t-36 9.5q-27 0 -46 -12t-31.5 -32t-19 -46.5t-8.5 -56.5h154zM128 610q-20 0 -20 20v70q0 20 20 20h70q20 0 20 -20
v-70q0 -20 -20 -20h-70zM318 610q-20 0 -20 20v70q0 20 20 20h70q20 0 20 -20v-70q0 -20 -20 -20h-70z" />
    <glyph glyph-name="igrave" unicode="&#xec;" horiz-adv-x="220" 
d="M70 0q-20 0 -20 20v480q0 20 20 20h80q20 0 20 -20v-480q0 -20 -20 -20h-80zM165 625q10 -17 -10 -17h-31q-20 0 -35 14l-111 104q-15 14 5 14h91q20 0 31 -17z" />
    <glyph glyph-name="iacute" unicode="&#xed;" horiz-adv-x="220" 
d="M70 0q-20 0 -20 20v480q0 20 20 20h80q20 0 20 -20v-480q0 -20 -20 -20h-80zM116 723q11 17 31 17h91q20 0 5 -14l-111 -104q-15 -14 -35 -14h-31q-20 0 -10 17z" />
    <glyph glyph-name="icircumflex" unicode="&#xee;" horiz-adv-x="220" 
d="M70 0q-20 0 -20 20v480q0 20 20 20h80q20 0 20 -20v-480q0 -20 -20 -20h-80zM49 622q-14 -14 -34 -14h-34q-20 0 -8 16l72 100q12 16 32 16h68q20 0 32 -16l72 -100q12 -16 -8 -16h-34q-20 0 -34 14l-62 62z" />
    <glyph glyph-name="idieresis" unicode="&#xef;" horiz-adv-x="220" 
d="M70 0q-20 0 -20 20v480q0 20 20 20h80q20 0 20 -20v-480q0 -20 -20 -20h-80zM-19 610q-20 0 -20 20v70q0 20 20 20h70q20 0 20 -20v-70q0 -20 -20 -20h-70zM171 610q-20 0 -20 20v70q0 20 20 20h70q20 0 20 -20v-70q0 -20 -20 -20h-70z" />
    <glyph glyph-name="eth" unicode="&#xf0;" horiz-adv-x="570" 
d="M460 647q33 -47 51.5 -116.5t18.5 -164.5q0 -190 -66 -284t-181 -94q-66 0 -112 20t-75.5 54t-42.5 80t-13 98t12 98t38.5 80.5t69.5 54.5t106 20q27 0 51 -5t44.5 -18.5t36 -36.5t25.5 -59q-1 72 -8 122.5t-22 83.5l-47 -48q-14 -14 -28 0l-21 21q-14 14 0 28l52 53
q-29 18 -71 18q-20 0 -20 20v50q0 20 20 20q76 0 134 -44l41 41q14 14 28 0l21 -21q14 -14 0 -28zM399 220q0 36 -4.5 68t-17.5 56.5t-35.5 39t-58.5 14.5q-38 0 -61.5 -12t-37.5 -33t-19 -49.5t-5 -60.5t5.5 -61.5t20.5 -52.5t40.5 -37t65.5 -14q18 0 37 8.5t34.5 26
t25.5 44.5t10 63z" />
    <glyph glyph-name="ntilde" unicode="&#xf1;" horiz-adv-x="536" 
d="M385 0q-19 0 -19 20v282q0 29 -4.5 55.5t-15 46.5t-28 32t-43.5 12q-105 0 -105 -156v-272q0 -20 -20 -20h-80q-20 0 -20 20v480q0 20 20 20h50q11 0 14.5 -4.5t5.5 -15.5l10 -41h2q9 18 23.5 31.5t32.5 22.5t38 14t39 5q42 0 78.5 -13t63.5 -38t43 -61.5t16 -83.5v-316
q0 -20 -19 -20h-82zM143 609q-7 0 -11.5 5t-4.5 11q1 20 6 38t15.5 31.5t27 21.5t39.5 8q17 0 33.5 -6t32.5 -13q24 -11 31 -13.5t9 -2.5q8 0 11.5 5t6.5 11.5t8 11.5t16 5h30q6 0 10.5 -5t4.5 -11q-1 -41 -21 -70t-66 -29q-9 0 -17.5 2.5t-16.5 5.5q-26 10 -46 18.5
t-26 8.5q-8 0 -12.5 -5t-8 -11.5t-8.5 -11.5t-13 -5h-30z" />
    <glyph glyph-name="ograve" unicode="&#xf2;" 
d="M282 -12q-72 0 -119 21.5t-74 58t-38 86t-11 105.5t11 105.5t38 87t74 59.5t119 22t119 -22t74 -59t38 -87t11 -105q0 -56 -11 -105.5t-38 -86.5t-74 -58.5t-119 -21.5zM282 78q37 0 61 14.5t37.5 39t18.5 57.5t5 71q0 37 -5 70.5t-18.5 58.5t-37.5 39.5t-61 14.5
q-38 0 -61.5 -14.5t-37 -39.5t-18.5 -58.5t-5 -70.5q0 -38 5 -71t18.5 -57.5t37 -39t61.5 -14.5zM343 625q10 -17 -10 -17h-31q-20 0 -35 14l-111 104q-15 14 5 14h91q20 0 31 -17z" />
    <glyph glyph-name="oacute" unicode="&#xf3;" 
d="M282 -12q-72 0 -119 21.5t-74 58t-38 86t-11 105.5t11 105.5t38 87t74 59.5t119 22t119 -22t74 -59t38 -87t11 -105q0 -56 -11 -105.5t-38 -86.5t-74 -58.5t-119 -21.5zM282 78q37 0 61 14.5t37.5 39t18.5 57.5t5 71q0 37 -5 70.5t-18.5 58.5t-37.5 39.5t-61 14.5
q-38 0 -61.5 -14.5t-37 -39.5t-18.5 -58.5t-5 -70.5q0 -38 5 -71t18.5 -57.5t37 -39t61.5 -14.5zM279 723q11 17 31 17h91q20 0 5 -14l-111 -104q-15 -14 -35 -14h-31q-20 0 -10 17z" />
    <glyph glyph-name="ocircumflex" unicode="&#xf4;" 
d="M282 -12q-72 0 -119 21.5t-74 58t-38 86t-11 105.5t11 105.5t38 87t74 59.5t119 22t119 -22t74 -59t38 -87t11 -105q0 -56 -11 -105.5t-38 -86.5t-74 -58.5t-119 -21.5zM282 78q37 0 61 14.5t37.5 39t18.5 57.5t5 71q0 37 -5 70.5t-18.5 58.5t-37.5 39.5t-61 14.5
q-38 0 -61.5 -14.5t-37 -39.5t-18.5 -58.5t-5 -70.5q0 -38 5 -71t18.5 -57.5t37 -39t61.5 -14.5zM220 622q-14 -14 -34 -14h-34q-20 0 -8 16l72 100q12 16 32 16h68q20 0 32 -16l72 -100q12 -16 -8 -16h-34q-20 0 -34 14l-62 62z" />
    <glyph glyph-name="otilde" unicode="&#xf5;" 
d="M282 -12q-72 0 -119 21.5t-74 58t-38 86t-11 105.5t11 105.5t38 87t74 59.5t119 22t119 -22t74 -59t38 -87t11 -105q0 -56 -11 -105.5t-38 -86.5t-74 -58.5t-119 -21.5zM282 78q37 0 61 14.5t37.5 39t18.5 57.5t5 71q0 37 -5 70.5t-18.5 58.5t-37.5 39.5t-61 14.5
q-38 0 -61.5 -14.5t-37 -39.5t-18.5 -58.5t-5 -70.5q0 -38 5 -71t18.5 -57.5t37 -39t61.5 -14.5zM157 609q-7 0 -11.5 5t-4.5 11q1 20 6 38t15.5 31.5t27 21.5t39.5 8q17 0 33.5 -6t32.5 -13q24 -11 31 -13.5t9 -2.5q8 0 11.5 5t6.5 11.5t8 11.5t16 5h30q6 0 10.5 -5
t4.5 -11q-1 -41 -21 -70t-66 -29q-9 0 -17.5 2.5t-16.5 5.5q-26 10 -46 18.5t-26 8.5q-8 0 -12.5 -5t-8 -11.5t-8.5 -11.5t-13 -5h-30z" />
    <glyph glyph-name="odieresis" unicode="&#xf6;" 
d="M282 -12q-72 0 -119 21.5t-74 58t-38 86t-11 105.5t11 105.5t38 87t74 59.5t119 22t119 -22t74 -59t38 -87t11 -105q0 -56 -11 -105.5t-38 -86.5t-74 -58.5t-119 -21.5zM282 78q37 0 61 14.5t37.5 39t18.5 57.5t5 71q0 37 -5 70.5t-18.5 58.5t-37.5 39.5t-61 14.5
q-38 0 -61.5 -14.5t-37 -39.5t-18.5 -58.5t-5 -70.5q0 -38 5 -71t18.5 -57.5t37 -39t61.5 -14.5zM152 610q-20 0 -20 20v70q0 20 20 20h70q20 0 20 -20v-70q0 -20 -20 -20h-70zM342 610q-20 0 -20 20v70q0 20 20 20h70q20 0 20 -20v-70q0 -20 -20 -20h-70z" />
    <glyph glyph-name="oslash" unicode="&#xf8;" 
d="M38 16q-16 13 -2 29l38 45q-19 35 -26.5 78t-7.5 91q0 56 11 105.5t38 87t74 59.5t119 22q44 0 78 -8.5t60 -23.5l29 34q13 16 29 3l38 -32q16 -13 2 -29l-34 -40q22 -36 31 -81t9 -96q0 -56 -11 -105.5t-38 -86.5t-74 -58.5t-119 -21.5q-48 0 -84 9.5t-62 26.5l-31 -37
q-13 -16 -29 -3zM282 78q37 0 61 14.5t37.5 39t18.5 57.5t5 71q0 40 -6 75l-194 -230q14 -13 33 -20t45 -7zM160 260q0 -17 1 -33t3 -31l189 225q-27 22 -71 22q-38 0 -61.5 -14.5t-37 -39.5t-18.5 -58.5t-5 -70.5z" />
    <glyph glyph-name="ugrave" unicode="&#xf9;" horiz-adv-x="536" 
d="M416 0q-11 0 -14.5 4.5t-5.5 15.5l-10 41h-2q-9 -18 -23.5 -31.5t-32.5 -22.5t-38 -14t-39 -5q-42 0 -78.5 13t-63.5 38t-43 61.5t-16 83.5v316q0 20 19 20h82q19 0 19 -20v-282q0 -29 4.5 -55.5t15 -46.5t28 -32t43.5 -12q105 0 105 156v272q0 20 20 20h80q20 0 20 -20
v-480q0 -20 -20 -20h-50zM322 625q10 -17 -10 -17h-31q-20 0 -35 14l-111 104q-15 14 5 14h91q20 0 31 -17z" />
    <glyph glyph-name="uacute" unicode="&#xfa;" horiz-adv-x="536" 
d="M416 0q-11 0 -14.5 4.5t-5.5 15.5l-10 41h-2q-9 -18 -23.5 -31.5t-32.5 -22.5t-38 -14t-39 -5q-42 0 -78.5 13t-63.5 38t-43 61.5t-16 83.5v316q0 20 19 20h82q19 0 19 -20v-282q0 -29 4.5 -55.5t15 -46.5t28 -32t43.5 -12q105 0 105 156v272q0 20 20 20h80q20 0 20 -20
v-480q0 -20 -20 -20h-50zM274 723q11 17 31 17h91q20 0 5 -14l-111 -104q-15 -14 -35 -14h-31q-20 0 -10 17z" />
    <glyph glyph-name="ucircumflex" unicode="&#xfb;" horiz-adv-x="536" 
d="M416 0q-11 0 -14.5 4.5t-5.5 15.5l-10 41h-2q-9 -18 -23.5 -31.5t-32.5 -22.5t-38 -14t-39 -5q-42 0 -78.5 13t-63.5 38t-43 61.5t-16 83.5v316q0 20 19 20h82q19 0 19 -20v-282q0 -29 4.5 -55.5t15 -46.5t28 -32t43.5 -12q105 0 105 156v272q0 20 20 20h80q20 0 20 -20
v-480q0 -20 -20 -20h-50zM206 622q-14 -14 -34 -14h-34q-20 0 -8 16l72 100q12 16 32 16h68q20 0 32 -16l72 -100q12 -16 -8 -16h-34q-20 0 -34 14l-62 62z" />
    <glyph glyph-name="udieresis" unicode="&#xfc;" horiz-adv-x="536" 
d="M416 0q-11 0 -14.5 4.5t-5.5 15.5l-10 41h-2q-9 -18 -23.5 -31.5t-32.5 -22.5t-38 -14t-39 -5q-42 0 -78.5 13t-63.5 38t-43 61.5t-16 83.5v316q0 20 19 20h82q19 0 19 -20v-282q0 -29 4.5 -55.5t15 -46.5t28 -32t43.5 -12q105 0 105 156v272q0 20 20 20h80q20 0 20 -20
v-480q0 -20 -20 -20h-50zM138 610q-20 0 -20 20v70q0 20 20 20h70q20 0 20 -20v-70q0 -20 -20 -20h-70zM328 610q-20 0 -20 20v70q0 20 20 20h70q20 0 20 -20v-70q0 -20 -20 -20h-70z" />
    <glyph glyph-name="yacute" unicode="&#xfd;" horiz-adv-x="524" 
d="M120 -220q-9 0 -13 4.5t1 13.5l94 210l-189 494q-9 18 12 18h92q20 0 26 -19l121 -382l122 382q7 19 27 19h86q9 0 13 -4.5t-1 -13.5l-274 -704q-9 -18 -28 -18h-89zM226 723q11 17 31 17h91q20 0 5 -14l-111 -104q-15 -14 -35 -14h-31q-20 0 -10 17z" />
    <glyph glyph-name="thorn" unicode="&#xfe;" horiz-adv-x="581" 
d="M70 -220q-20 0 -20 20v920q0 20 20 20h80q20 0 20 -20v-260h2q8 14 19.5 27.5t28 23.5t37.5 16t49 6q47 0 89.5 -13.5t75 -45t51.5 -83.5t19 -129q0 -78 -19 -130.5t-51.5 -84.5t-75 -45.5t-89.5 -13.5q-28 0 -49 6t-37.5 16t-28 23.5t-19.5 27.5h-2v-261q0 -20 -20 -20
h-80zM421 262q0 58 -9 94.5t-26.5 57t-42 28t-54.5 7.5q-56 0 -87.5 -43t-31.5 -144q0 -102 31.5 -146t87.5 -44q30 0 54.5 7.5t42 28.5t26.5 58t9 96z" />
    <glyph glyph-name="ydieresis" unicode="&#xff;" horiz-adv-x="524" 
d="M120 -220q-9 0 -13 4.5t1 13.5l94 210l-189 494q-9 18 12 18h92q20 0 26 -19l121 -382l122 382q7 19 27 19h86q9 0 13 -4.5t-1 -13.5l-274 -704q-9 -18 -28 -18h-89zM132 610q-20 0 -20 20v70q0 20 20 20h70q20 0 20 -20v-70q0 -20 -20 -20h-70zM322 610q-20 0 -20 20v70
q0 20 20 20h70q20 0 20 -20v-70q0 -20 -20 -20h-70z" />
    <glyph glyph-name="Amacron" unicode="&#x100;" horiz-adv-x="672" 
d="M552 0q-20 0 -27 19l-62 158h-284l-62 -158q-7 -19 -27 -19h-65q-9 0 -13 4.5t1 13.5l273 684q7 18 28 18h44q20 0 28 -18l273 -684q9 -18 -12 -18h-95zM341 520l-20 75l-19 -75l-90 -259h218zM181 830q-20 0 -20 20v30q0 20 20 20h310q20 0 20 -20v-30q0 -20 -20 -20
h-310z" />
    <glyph glyph-name="amacron" unicode="&#x101;" horiz-adv-x="514" 
d="M404 0q-11 0 -14.5 4.5t-5.5 15.5l-10 41h-2q-20 -36 -56.5 -54.5t-87.5 -18.5q-38 0 -72 11t-60 33.5t-41 56.5t-15 80q0 48 16.5 79.5t45 50t66.5 26t81 7.5h103q-2 16 -7.5 36t-17.5 38t-32.5 30.5t-51.5 12.5q-24 0 -51.5 -7t-61.5 -18q-14 -5 -19 -3t-7 5l-21 32
q-9 14 1 26q7 8 24 17t40 16t51 11.5t58 4.5q65 0 107 -21.5t66.5 -58.5t34 -85t9.5 -102v-246q0 -20 -20 -20h-50zM354 248h-105q-40 0 -64 -20t-24 -56q0 -15 5 -32.5t16 -32.5t29 -25t45 -10q46 0 72 35t26 112v29zM102 630q-20 0 -20 20v30q0 20 20 20h310q20 0 20 -20
v-30q0 -20 -20 -20h-310z" />
    <glyph glyph-name="Abreve" unicode="&#x102;" horiz-adv-x="672" 
d="M552 0q-20 0 -27 19l-62 158h-284l-62 -158q-7 -19 -27 -19h-65q-9 0 -13 4.5t1 13.5l273 684q7 18 28 18h44q20 0 28 -18l273 -684q9 -18 -12 -18h-95zM341 520l-20 75l-19 -75l-90 -259h218zM256 940q4 0 7.5 -3.5t5.5 -6.5q8 -23 24.5 -33t43.5 -10q22 0 40.5 9
t26.5 34q1 4 5 7t9 3h42q6 0 10.5 -5t4.5 -11q-2 -54 -41.5 -85.5t-96.5 -31.5q-24 0 -48.5 7.5t-44 22t-32 36.5t-14.5 51q-2 7 3 11.5t12 4.5h43z" />
    <glyph glyph-name="abreve" unicode="&#x103;" horiz-adv-x="514" 
d="M404 0q-11 0 -14.5 4.5t-5.5 15.5l-10 41h-2q-20 -36 -56.5 -54.5t-87.5 -18.5q-38 0 -72 11t-60 33.5t-41 56.5t-15 80q0 48 16.5 79.5t45 50t66.5 26t81 7.5h103q-2 16 -7.5 36t-17.5 38t-32.5 30.5t-51.5 12.5q-24 0 -51.5 -7t-61.5 -18q-14 -5 -19 -3t-7 5l-21 32
q-9 14 1 26q7 8 24 17t40 16t51 11.5t58 4.5q65 0 107 -21.5t66.5 -58.5t34 -85t9.5 -102v-246q0 -20 -20 -20h-50zM354 248h-105q-40 0 -64 -20t-24 -56q0 -15 5 -32.5t16 -32.5t29 -25t45 -10q46 0 72 35t26 112v29zM177 740q4 0 7.5 -3.5t5.5 -6.5q8 -23 24.5 -33
t43.5 -10q22 0 40.5 9t26.5 34q1 4 5 7t9 3h42q6 0 10.5 -5t4.5 -11q-2 -54 -41.5 -85.5t-96.5 -31.5q-24 0 -48.5 7.5t-44 22t-32 36.5t-14.5 51q-2 7 3 11.5t12 4.5h43z" />
    <glyph glyph-name="Aogonek" unicode="&#x104;" horiz-adv-x="672" 
d="M552 0q-20 0 -27 19l-62 158h-284l-62 -158q-7 -19 -27 -19h-65q-9 0 -13 4.5t1 13.5l273 684q7 18 28 18h44q20 0 28 -18l273 -684q4 -8 3.5 -12.5t-0.5 -5.5l-37 -58q-15 -25 -15 -43q0 -21 20 -21q5 0 8.5 2.5t7.5 4.5q11 7 16 2t8 -13l4 -10l4 -10q4 -11 0 -13.5
t-13 -10.5q-7 -5 -25 -15.5t-42 -10.5q-38 -1 -58 17.5t-20 53.5q0 16 6 39t23 46l29 40h-26zM341 520l-20 75l-19 -75l-90 -259h218z" />
    <glyph glyph-name="aogonek" unicode="&#x105;" horiz-adv-x="514" 
d="M404 0q-11 0 -14.5 4.5t-5.5 15.5l-10 41h-2q-20 -36 -56.5 -54.5t-87.5 -18.5q-38 0 -72 11t-60 33.5t-41 56.5t-15 80q0 48 16.5 79.5t45 50t66.5 26t81 7.5h103q-2 16 -7.5 36t-17.5 38t-32.5 30.5t-51.5 12.5q-24 0 -51.5 -7t-61.5 -18q-14 -5 -19 -3t-7 5l-21 32
q-9 14 1 26q7 8 24 17t40 16t51 11.5t58 4.5q65 0 107 -21.5t66.5 -58.5t34 -85t9.5 -102v-246q0 -19 -12 -37l-26 -41q-15 -25 -15 -43q0 -21 20 -21q5 0 8.5 2.5t7.5 4.5q11 7 16 2t8 -13l4 -10l4 -10q4 -11 0 -13.5t-13 -10.5q-7 -5 -25 -14.5t-42 -11.5q-38 2 -58 19
t-20 52q0 14 5 32t14.5 36t23 33t30.5 24zM354 248h-105q-40 0 -64 -20t-24 -56q0 -15 5 -32.5t16 -32.5t29 -25t45 -10q46 0 72 35t26 112v29z" />
    <glyph glyph-name="Cacute" unicode="&#x106;" horiz-adv-x="639" 
d="M594 68q5 -14 4.5 -20t-5.5 -11q-9 -7 -29.5 -15.5t-47.5 -16t-58.5 -12.5t-64.5 -5q-75 0 -139.5 23t-112 69.5t-74.5 116t-27 163.5t27 163.5t74.5 116t112 69.5t139.5 23q33 0 64.5 -5t58.5 -12.5t47.5 -16t29.5 -15.5q5 -5 5.5 -10t-4.5 -16l-16 -42q-4 -5 -11 -4.5
t-15 2.5q-23 6 -66 15t-93 9q-45 0 -85.5 -14.5t-70.5 -47.5t-47.5 -86t-17.5 -129t17.5 -129t48 -86t70.5 -47.5t85 -14.5q50 0 93 9t66 15q7 2 14.5 2.5t11.5 -4.5zM385 923q11 17 31 17h91q20 0 5 -14l-111 -104q-15 -14 -35 -14h-31q-20 0 -10 17z" />
    <glyph glyph-name="cacute" unicode="&#x107;" horiz-adv-x="479" 
d="M433 63q9 -14 -1 -26q-14 -16 -55 -32.5t-105 -16.5q-68 0 -113 22.5t-71.5 60t-37 87t-10.5 103.5q0 55 11 104.5t38.5 86.5t74 59t118.5 22q25 0 49 -5t44 -12.5t34.5 -16t22.5 -15.5q5 -5 6.5 -10.5t-5.5 -15.5l-21 -32q-4 -5 -11.5 -4.5t-14.5 2.5q-15 5 -40.5 15
t-58.5 10q-37 0 -61.5 -16t-39 -42t-20.5 -60t-6 -71q0 -38 6 -72t20.5 -60t39 -41t60.5 -15q29 0 53 8.5t47 16.5q8 3 15 3t11 -5zM274 723q11 17 31 17h91q20 0 5 -14l-111 -104q-15 -14 -35 -14h-31q-20 0 -10 17z" />
    <glyph glyph-name="Ccircumflex" unicode="&#x108;" horiz-adv-x="639" 
d="M594 68q5 -14 4.5 -20t-5.5 -11q-9 -7 -29.5 -15.5t-47.5 -16t-58.5 -12.5t-64.5 -5q-75 0 -139.5 23t-112 69.5t-74.5 116t-27 163.5t27 163.5t74.5 116t112 69.5t139.5 23q33 0 64.5 -5t58.5 -12.5t47.5 -16t29.5 -15.5q5 -5 5.5 -10t-4.5 -16l-16 -42q-4 -5 -11 -4.5
t-15 2.5q-23 6 -66 15t-93 9q-45 0 -85.5 -14.5t-70.5 -47.5t-47.5 -86t-17.5 -129t17.5 -129t48 -86t70.5 -47.5t85 -14.5q50 0 93 9t66 15q7 2 14.5 2.5t11.5 -4.5zM323 822q-14 -14 -34 -14h-34q-20 0 -8 16l72 100q12 16 32 16h68q20 0 32 -16l72 -100q12 -16 -8 -16
h-34q-20 0 -34 14l-62 62z" />
    <glyph glyph-name="ccircumflex" unicode="&#x109;" horiz-adv-x="479" 
d="M433 63q9 -14 -1 -26q-14 -16 -55 -32.5t-105 -16.5q-68 0 -113 22.5t-71.5 60t-37 87t-10.5 103.5q0 55 11 104.5t38.5 86.5t74 59t118.5 22q25 0 49 -5t44 -12.5t34.5 -16t22.5 -15.5q5 -5 6.5 -10.5t-5.5 -15.5l-21 -32q-4 -5 -11.5 -4.5t-14.5 2.5q-15 5 -40.5 15
t-58.5 10q-37 0 -61.5 -16t-39 -42t-20.5 -60t-6 -71q0 -38 6 -72t20.5 -60t39 -41t60.5 -15q29 0 53 8.5t47 16.5q8 3 15 3t11 -5zM217 622q-14 -14 -34 -14h-34q-20 0 -8 16l72 100q12 16 32 16h68q20 0 32 -16l72 -100q12 -16 -8 -16h-34q-20 0 -34 14l-62 62z" />
    <glyph glyph-name="Cdotaccent" unicode="&#x10a;" horiz-adv-x="639" 
d="M594 68q5 -14 4.5 -20t-5.5 -11q-9 -7 -29.5 -15.5t-47.5 -16t-58.5 -12.5t-64.5 -5q-75 0 -139.5 23t-112 69.5t-74.5 116t-27 163.5t27 163.5t74.5 116t112 69.5t139.5 23q33 0 64.5 -5t58.5 -12.5t47.5 -16t29.5 -15.5q5 -5 5.5 -10t-4.5 -16l-16 -42q-4 -5 -11 -4.5
t-15 2.5q-23 6 -66 15t-93 9q-45 0 -85.5 -14.5t-70.5 -47.5t-47.5 -86t-17.5 -129t17.5 -129t48 -86t70.5 -47.5t85 -14.5q50 0 93 9t66 15q7 2 14.5 2.5t11.5 -4.5zM333 820q-20 0 -20 20v80q0 20 20 20h80q20 0 20 -20v-80q0 -20 -20 -20h-80z" />
    <glyph glyph-name="cdotaccent" unicode="&#x10b;" horiz-adv-x="479" 
d="M433 63q9 -14 -1 -26q-14 -16 -55 -32.5t-105 -16.5q-68 0 -113 22.5t-71.5 60t-37 87t-10.5 103.5q0 55 11 104.5t38.5 86.5t74 59t118.5 22q25 0 49 -5t44 -12.5t34.5 -16t22.5 -15.5q5 -5 6.5 -10.5t-5.5 -15.5l-21 -32q-4 -5 -11.5 -4.5t-14.5 2.5q-15 5 -40.5 15
t-58.5 10q-37 0 -61.5 -16t-39 -42t-20.5 -60t-6 -71q0 -38 6 -72t20.5 -60t39 -41t60.5 -15q29 0 53 8.5t47 16.5q8 3 15 3t11 -5zM239 620q-20 0 -20 20v80q0 20 20 20h80q20 0 20 -20v-80q0 -20 -20 -20h-80z" />
    <glyph glyph-name="Ccaron" unicode="&#x10c;" horiz-adv-x="639" 
d="M594 68q5 -14 4.5 -20t-5.5 -11q-9 -7 -29.5 -15.5t-47.5 -16t-58.5 -12.5t-64.5 -5q-75 0 -139.5 23t-112 69.5t-74.5 116t-27 163.5t27 163.5t74.5 116t112 69.5t139.5 23q33 0 64.5 -5t58.5 -12.5t47.5 -16t29.5 -15.5q5 -5 5.5 -10t-4.5 -16l-16 -42q-4 -5 -11 -4.5
t-15 2.5q-23 6 -66 15t-93 9q-45 0 -85.5 -14.5t-70.5 -47.5t-47.5 -86t-17.5 -129t17.5 -129t48 -86t70.5 -47.5t85 -14.5q50 0 93 9t66 15q7 2 14.5 2.5t11.5 -4.5zM385 864l62 62q14 14 34 14h34q20 0 8 -16l-72 -100q-12 -16 -32 -16h-68q-20 0 -32 16l-72 100
q-12 16 8 16h34q20 0 34 -14z" />
    <glyph glyph-name="ccaron" unicode="&#x10d;" horiz-adv-x="479" 
d="M433 63q9 -14 -1 -26q-14 -16 -55 -32.5t-105 -16.5q-68 0 -113 22.5t-71.5 60t-37 87t-10.5 103.5q0 55 11 104.5t38.5 86.5t74 59t118.5 22q25 0 49 -5t44 -12.5t34.5 -16t22.5 -15.5q5 -5 6.5 -10.5t-5.5 -15.5l-21 -32q-4 -5 -11.5 -4.5t-14.5 2.5q-15 5 -40.5 15
t-58.5 10q-37 0 -61.5 -16t-39 -42t-20.5 -60t-6 -71q0 -38 6 -72t20.5 -60t39 -41t60.5 -15q29 0 53 8.5t47 16.5q8 3 15 3t11 -5zM279 664l62 62q14 14 34 14h34q20 0 8 -16l-72 -100q-12 -16 -32 -16h-68q-20 0 -32 16l-72 100q-12 16 8 16h34q20 0 34 -14z" />
    <glyph glyph-name="Dcaron" unicode="&#x10e;" horiz-adv-x="645" 
d="M70 0q-20 0 -20 20v680q0 20 20 20h230q61 0 116.5 -26.5t97.5 -74t66.5 -113t24.5 -143.5t-26 -144t-70.5 -114.5t-104.5 -76t-128 -28.5h-206zM275 90q43 0 79.5 21t63 58.5t41 88t14.5 110.5q0 58 -16.5 106.5t-44.5 83t-65.5 53.5t-79.5 19h-91v-540h99zM278 864
l62 62q14 14 34 14h34q20 0 8 -16l-72 -100q-12 -16 -32 -16h-68q-20 0 -32 16l-72 100q-12 16 8 16h34q20 0 34 -14z" />
    <glyph glyph-name="dcaron" unicode="&#x10f;" horiz-adv-x="761" 
d="M461 0q-11 0 -14.5 4.5t-5.5 15.5l-10 42h-2q-31 -39 -75.5 -57t-101.5 -18q-43 0 -81.5 13.5t-67.5 45t-46 83.5t-17 129q0 78 17.5 130.5t46.5 84.5t68 45.5t83 13.5q64 0 99.5 -22t54.5 -51h2v261q0 20 20 20h80q20 0 20 -20v-700q0 -20 -20 -20h-50zM273 71
q67 0 102.5 43.5t35.5 143.5q0 102 -36.5 146t-102.5 44q-26 0 -46.5 -8t-35 -29t-22.5 -58t-8 -95q0 -57 7.5 -93t21.5 -57t35.5 -29t48.5 -8zM601 600q-20 0 -20 20v100q0 20 20 20h100q20 0 20 -20v-115q0 -25 -5 -49t-12.5 -44t-16 -35t-15.5 -22q-5 -5 -10.5 -6.5
t-15.5 5.5l-32 21q-5 4 -4.5 11.5t2.5 14.5q5 15 15 40.5t10 58.5h-36z" />
    <glyph glyph-name="Dcroat" unicode="&#x110;" horiz-adv-x="705" 
d="M130 0q-20 0 -20 20v299h-50q-20 0 -20 20v50q0 20 20 20h50v291q0 20 20 20h230q61 0 116.5 -26.5t97.5 -74t66.5 -113t24.5 -143.5t-26 -144t-70.5 -114.5t-104.5 -76t-128 -28.5h-206zM335 90q43 0 79.5 21t63 58.5t41 88t14.5 110.5q0 58 -16.5 106.5t-44.5 83
t-65.5 53.5t-79.5 19h-91v-221h154q20 0 20 -20v-50q0 -20 -20 -20h-154v-229h99z" />
    <glyph glyph-name="dcroat" unicode="&#x111;" horiz-adv-x="620" 
d="M461 0q-11 0 -14.5 4.5t-5.5 15.5l-10 42h-2q-31 -39 -75.5 -57t-101.5 -18q-43 0 -81.5 13.5t-67.5 45t-46 83.5t-17 129q0 78 17.5 130.5t46.5 84.5t68 45.5t83 13.5q64 0 99.5 -22t54.5 -51h2v130h-151q-20 0 -20 20v50q0 20 20 20h151v41q0 20 20 20h80q20 0 20 -20
v-41h59q20 0 20 -20v-50q0 -20 -20 -20h-59v-569q0 -20 -20 -20h-50zM273 71q67 0 102.5 43.5t35.5 143.5q0 102 -36.5 146t-102.5 44q-26 0 -46.5 -8t-35 -29t-22.5 -58t-8 -95q0 -57 7.5 -93t21.5 -57t35.5 -29t48.5 -8z" />
    <glyph glyph-name="Emacron" unicode="&#x112;" horiz-adv-x="483" 
d="M70 0q-20 0 -20 20v680q0 20 20 20h353q20 0 20 -20v-50q0 -20 -20 -20h-247v-221h197q20 0 20 -20v-50q0 -20 -20 -20h-197v-229h247q20 0 20 -20v-50q0 -20 -20 -20h-353zM86 830q-20 0 -20 20v30q0 20 20 20h310q20 0 20 -20v-30q0 -20 -20 -20h-310z" />
    <glyph glyph-name="emacron" unicode="&#x113;" horiz-adv-x="516" 
d="M453 63q9 -14 -1 -26q-7 -8 -23.5 -17t-40 -16t-52.5 -11.5t-61 -4.5q-69 0 -114.5 22t-72.5 59t-37.5 85t-10.5 101q0 58 12 108.5t38.5 88t68.5 59.5t103 22q45 0 84.5 -13t68 -40t45 -67.5t16.5 -94.5q0 -29 -5.5 -48t-18 -30.5t-33.5 -16.5t-52 -5h-205
q3 -32 10.5 -58.5t22.5 -46t37.5 -30.5t55.5 -11q29 0 58 7.5t60 17.5q15 5 19.5 3t6.5 -5zM316 302q23 0 31 5.5t8 28.5q0 22 -6.5 42.5t-18 36t-27.5 25t-36 9.5q-27 0 -46 -12t-31.5 -32t-19 -46.5t-8.5 -56.5h154zM103 630q-20 0 -20 20v30q0 20 20 20h310q20 0 20 -20
v-30q0 -20 -20 -20h-310z" />
    <glyph glyph-name="Ebreve" unicode="&#x114;" horiz-adv-x="483" 
d="M70 0q-20 0 -20 20v680q0 20 20 20h353q20 0 20 -20v-50q0 -20 -20 -20h-247v-221h197q20 0 20 -20v-50q0 -20 -20 -20h-197v-229h247q20 0 20 -20v-50q0 -20 -20 -20h-353zM162 940q4 0 7.5 -3.5t5.5 -6.5q8 -23 24.5 -33t43.5 -10q22 0 40.5 9t26.5 34q1 4 5 7t9 3h42
q6 0 10.5 -5t4.5 -11q-2 -54 -41.5 -85.5t-96.5 -31.5q-24 0 -48.5 7.5t-44 22t-32 36.5t-14.5 51q-2 7 3 11.5t12 4.5h43z" />
    <glyph glyph-name="ebreve" unicode="&#x115;" horiz-adv-x="516" 
d="M453 63q9 -14 -1 -26q-7 -8 -23.5 -17t-40 -16t-52.5 -11.5t-61 -4.5q-69 0 -114.5 22t-72.5 59t-37.5 85t-10.5 101q0 58 12 108.5t38.5 88t68.5 59.5t103 22q45 0 84.5 -13t68 -40t45 -67.5t16.5 -94.5q0 -29 -5.5 -48t-18 -30.5t-33.5 -16.5t-52 -5h-205
q3 -32 10.5 -58.5t22.5 -46t37.5 -30.5t55.5 -11q29 0 58 7.5t60 17.5q15 5 19.5 3t6.5 -5zM316 302q23 0 31 5.5t8 28.5q0 22 -6.5 42.5t-18 36t-27.5 25t-36 9.5q-27 0 -46 -12t-31.5 -32t-19 -46.5t-8.5 -56.5h154zM178 740q4 0 7.5 -3.5t5.5 -6.5q8 -23 24.5 -33
t43.5 -10q22 0 40.5 9t26.5 34q1 4 5 7t9 3h42q6 0 10.5 -5t4.5 -11q-2 -54 -41.5 -85.5t-96.5 -31.5q-24 0 -48.5 7.5t-44 22t-32 36.5t-14.5 51q-2 7 3 11.5t12 4.5h43z" />
    <glyph glyph-name="Edotaccent" unicode="&#x116;" horiz-adv-x="483" 
d="M70 0q-20 0 -20 20v680q0 20 20 20h353q20 0 20 -20v-50q0 -20 -20 -20h-247v-221h197q20 0 20 -20v-50q0 -20 -20 -20h-197v-229h247q20 0 20 -20v-50q0 -20 -20 -20h-353zM201 820q-20 0 -20 20v80q0 20 20 20h80q20 0 20 -20v-80q0 -20 -20 -20h-80z" />
    <glyph glyph-name="edotaccent" unicode="&#x117;" horiz-adv-x="516" 
d="M453 63q9 -14 -1 -26q-7 -8 -23.5 -17t-40 -16t-52.5 -11.5t-61 -4.5q-69 0 -114.5 22t-72.5 59t-37.5 85t-10.5 101q0 58 12 108.5t38.5 88t68.5 59.5t103 22q45 0 84.5 -13t68 -40t45 -67.5t16.5 -94.5q0 -29 -5.5 -48t-18 -30.5t-33.5 -16.5t-52 -5h-205
q3 -32 10.5 -58.5t22.5 -46t37.5 -30.5t55.5 -11q29 0 58 7.5t60 17.5q15 5 19.5 3t6.5 -5zM316 302q23 0 31 5.5t8 28.5q0 22 -6.5 42.5t-18 36t-27.5 25t-36 9.5q-27 0 -46 -12t-31.5 -32t-19 -46.5t-8.5 -56.5h154zM218 620q-20 0 -20 20v80q0 20 20 20h80q20 0 20 -20
v-80q0 -20 -20 -20h-80z" />
    <glyph glyph-name="Eogonek" unicode="&#x118;" horiz-adv-x="483" 
d="M70 0q-20 0 -20 20v680q0 20 20 20h353q20 0 20 -20v-50q0 -20 -20 -20h-247v-221h197q20 0 20 -20v-50q0 -20 -20 -20h-197v-229h247q20 0 20 -20v-50q0 -5 -0.5 -7.5t-2 -4l-3 -3t-4.5 -5.5l-37 -58q-15 -25 -15 -43q0 -21 20 -21q5 0 8.5 2.5t7.5 4.5q9 8 15 2.5
t9 -13.5l4 -10l4 -10q2 -11 -1.5 -13.5t-11.5 -10.5q-7 -5 -25 -14.5t-42 -11.5q-38 2 -58 19t-20 52q0 16 6 39t23 46l29 40h-279z" />
    <glyph glyph-name="eogonek" unicode="&#x119;" horiz-adv-x="516" 
d="M453 63q8 -12 0 -26l-53 -95q-15 -27 -15 -43q0 -21 20 -21q5 0 8.5 2.5t7.5 4.5q9 8 15 2.5t9 -13.5l4 -10l4 -10q3 -11 -0.5 -13.5t-12.5 -10.5q-7 -5 -25 -14.5t-42 -11.5q-38 2 -58 19t-20 52q0 16 6 39t23 46l25 35q-17 -3 -35.5 -5t-38.5 -2q-69 0 -114.5 22
t-72.5 59t-37.5 85t-10.5 101q0 58 12 108.5t38.5 88t68.5 59.5t103 22q45 0 84.5 -13t68 -40t45 -67.5t16.5 -94.5q0 -29 -5.5 -48t-18 -30.5t-33.5 -16.5t-52 -5h-205q3 -32 10.5 -58.5t22.5 -46t37.5 -30.5t55.5 -11q29 0 58 7.5t60 17.5q15 5 19.5 3t6.5 -5zM316 302
q23 0 31 5.5t8 28.5q0 22 -6.5 42.5t-18 36t-27.5 25t-36 9.5q-27 0 -46 -12t-31.5 -32t-19 -46.5t-8.5 -56.5h154z" />
    <glyph glyph-name="Ecaron" unicode="&#x11a;" horiz-adv-x="483" 
d="M70 0q-20 0 -20 20v680q0 20 20 20h353q20 0 20 -20v-50q0 -20 -20 -20h-247v-221h197q20 0 20 -20v-50q0 -20 -20 -20h-197v-229h247q20 0 20 -20v-50q0 -20 -20 -20h-353zM241 864l62 62q14 14 34 14h34q20 0 8 -16l-72 -100q-12 -16 -32 -16h-68q-20 0 -32 16l-72 100
q-12 16 8 16h34q20 0 34 -14z" />
    <glyph glyph-name="ecaron" unicode="&#x11b;" horiz-adv-x="516" 
d="M453 63q9 -14 -1 -26q-7 -8 -23.5 -17t-40 -16t-52.5 -11.5t-61 -4.5q-69 0 -114.5 22t-72.5 59t-37.5 85t-10.5 101q0 58 12 108.5t38.5 88t68.5 59.5t103 22q45 0 84.5 -13t68 -40t45 -67.5t16.5 -94.5q0 -29 -5.5 -48t-18 -30.5t-33.5 -16.5t-52 -5h-205
q3 -32 10.5 -58.5t22.5 -46t37.5 -30.5t55.5 -11q29 0 58 7.5t60 17.5q15 5 19.5 3t6.5 -5zM316 302q23 0 31 5.5t8 28.5q0 22 -6.5 42.5t-18 36t-27.5 25t-36 9.5q-27 0 -46 -12t-31.5 -32t-19 -46.5t-8.5 -56.5h154zM258 664l62 62q14 14 34 14h34q20 0 8 -16l-72 -100
q-12 -16 -32 -16h-68q-20 0 -32 16l-72 100q-12 16 8 16h34q20 0 34 -14z" />
    <glyph glyph-name="Gcircumflex" unicode="&#x11c;" horiz-adv-x="649" 
d="M472 319h-88q-20 0 -20 20v50q0 20 20 20h194q20 0 20 -20v-338q1 -9 -5 -14q-9 -7 -29.5 -15.5t-47.5 -16t-58.5 -12.5t-64.5 -5q-75 0 -139.5 23t-112 69.5t-74.5 116t-27 163.5t27 163.5t74.5 116t112 69.5t139.5 23q33 0 64.5 -5t58.5 -12.5t47.5 -16t29.5 -15.5
q5 -5 5.5 -10t-4.5 -16l-16 -37q-4 -5 -11 -4.5t-15 2.5q-23 6 -66 15t-93 9q-45 0 -85.5 -15t-70.5 -48.5t-47.5 -87t-17.5 -131.5t17.5 -131.5t48 -87t70.5 -48.5t85 -15q41 0 79 6v235zM325 822q-14 -14 -34 -14h-34q-20 0 -8 16l72 100q12 16 32 16h68q20 0 32 -16
l72 -100q12 -16 -8 -16h-34q-20 0 -34 14l-62 62z" />
    <glyph glyph-name="gcircumflex" unicode="&#x11d;" horiz-adv-x="581" 
d="M411 61h-2q-19 -29 -54.5 -51t-99.5 -22q-44 0 -83 13.5t-68 45.5t-46.5 84.5t-17.5 130.5q0 77 17 129t46 83.5t67.5 45t81.5 13.5q57 0 101.5 -18t75.5 -57h2l10 42q2 11 5.5 15.5t14.5 4.5h50q20 0 20 -20v-470q0 -59 -17.5 -107t-49 -82t-75.5 -52t-97 -18
q-32 0 -65 5t-62.5 12.5t-51.5 16t-31 15.5q-5 5 -5.5 10t4.5 16l16 42q2 6 10 5t16 -3q10 -3 29 -7t43 -7.5t49 -6.5t47 -3q27 0 49 11t38 31.5t24.5 48.5t8.5 62v42zM272 72q66 0 102.5 44t36.5 146q0 100 -35.5 143.5t-102.5 43.5q-27 0 -48.5 -8t-35.5 -29t-21.5 -57
t-7.5 -93q0 -59 8 -96t22.5 -58t35 -28.5t46.5 -7.5zM228 622q-14 -14 -34 -14h-34q-20 0 -8 16l72 100q12 16 32 16h68q20 0 32 -16l72 -100q12 -16 -8 -16h-34q-20 0 -34 14l-62 62z" />
    <glyph glyph-name="Gbreve" unicode="&#x11e;" horiz-adv-x="649" 
d="M472 319h-88q-20 0 -20 20v50q0 20 20 20h194q20 0 20 -20v-338q1 -9 -5 -14q-9 -7 -29.5 -15.5t-47.5 -16t-58.5 -12.5t-64.5 -5q-75 0 -139.5 23t-112 69.5t-74.5 116t-27 163.5t27 163.5t74.5 116t112 69.5t139.5 23q33 0 64.5 -5t58.5 -12.5t47.5 -16t29.5 -15.5
q5 -5 5.5 -10t-4.5 -16l-16 -37q-4 -5 -11 -4.5t-15 2.5q-23 6 -66 15t-93 9q-45 0 -85.5 -15t-70.5 -48.5t-47.5 -87t-17.5 -131.5t17.5 -131.5t48 -87t70.5 -48.5t85 -15q41 0 79 6v235zM303 940q4 0 7.5 -3.5t5.5 -6.5q8 -23 24.5 -33t43.5 -10q22 0 40.5 9t26.5 34
q1 4 5 7t9 3h42q6 0 10.5 -5t4.5 -11q-2 -54 -41.5 -85.5t-96.5 -31.5q-24 0 -48.5 7.5t-44 22t-32 36.5t-14.5 51q-2 7 3 11.5t12 4.5h43z" />
    <glyph glyph-name="gbreve" unicode="&#x11f;" horiz-adv-x="581" 
d="M411 61h-2q-19 -29 -54.5 -51t-99.5 -22q-44 0 -83 13.5t-68 45.5t-46.5 84.5t-17.5 130.5q0 77 17 129t46 83.5t67.5 45t81.5 13.5q57 0 101.5 -18t75.5 -57h2l10 42q2 11 5.5 15.5t14.5 4.5h50q20 0 20 -20v-470q0 -59 -17.5 -107t-49 -82t-75.5 -52t-97 -18
q-32 0 -65 5t-62.5 12.5t-51.5 16t-31 15.5q-5 5 -5.5 10t4.5 16l16 42q2 6 10 5t16 -3q10 -3 29 -7t43 -7.5t49 -6.5t47 -3q27 0 49 11t38 31.5t24.5 48.5t8.5 62v42zM272 72q66 0 102.5 44t36.5 146q0 100 -35.5 143.5t-102.5 43.5q-27 0 -48.5 -8t-35.5 -29t-21.5 -57
t-7.5 -93q0 -59 8 -96t22.5 -58t35 -28.5t46.5 -7.5zM211 740q4 0 7.5 -3.5t5.5 -6.5q8 -23 24.5 -33t43.5 -10q22 0 40.5 9t26.5 34q1 4 5 7t9 3h42q6 0 10.5 -5t4.5 -11q-2 -54 -41.5 -85.5t-96.5 -31.5q-24 0 -48.5 7.5t-44 22t-32 36.5t-14.5 51q-2 7 3 11.5t12 4.5h43z
" />
    <glyph glyph-name="Gdotaccent" unicode="&#x120;" horiz-adv-x="649" 
d="M472 319h-88q-20 0 -20 20v50q0 20 20 20h194q20 0 20 -20v-338q1 -9 -5 -14q-9 -7 -29.5 -15.5t-47.5 -16t-58.5 -12.5t-64.5 -5q-75 0 -139.5 23t-112 69.5t-74.5 116t-27 163.5t27 163.5t74.5 116t112 69.5t139.5 23q33 0 64.5 -5t58.5 -12.5t47.5 -16t29.5 -15.5
q5 -5 5.5 -10t-4.5 -16l-16 -37q-4 -5 -11 -4.5t-15 2.5q-23 6 -66 15t-93 9q-45 0 -85.5 -15t-70.5 -48.5t-47.5 -87t-17.5 -131.5t17.5 -131.5t48 -87t70.5 -48.5t85 -15q41 0 79 6v235zM347 820q-20 0 -20 20v80q0 20 20 20h80q20 0 20 -20v-80q0 -20 -20 -20h-80z" />
    <glyph glyph-name="gdotaccent" unicode="&#x121;" horiz-adv-x="581" 
d="M411 61h-2q-19 -29 -54.5 -51t-99.5 -22q-44 0 -83 13.5t-68 45.5t-46.5 84.5t-17.5 130.5q0 77 17 129t46 83.5t67.5 45t81.5 13.5q57 0 101.5 -18t75.5 -57h2l10 42q2 11 5.5 15.5t14.5 4.5h50q20 0 20 -20v-470q0 -59 -17.5 -107t-49 -82t-75.5 -52t-97 -18
q-32 0 -65 5t-62.5 12.5t-51.5 16t-31 15.5q-5 5 -5.5 10t4.5 16l16 42q2 6 10 5t16 -3q10 -3 29 -7t43 -7.5t49 -6.5t47 -3q27 0 49 11t38 31.5t24.5 48.5t8.5 62v42zM272 72q66 0 102.5 44t36.5 146q0 100 -35.5 143.5t-102.5 43.5q-27 0 -48.5 -8t-35.5 -29t-21.5 -57
t-7.5 -93q0 -59 8 -96t22.5 -58t35 -28.5t46.5 -7.5zM250 620q-20 0 -20 20v80q0 20 20 20h80q20 0 20 -20v-80q0 -20 -20 -20h-80z" />
    <glyph glyph-name="uni0122" unicode="&#x122;" horiz-adv-x="649" 
d="M472 319h-88q-20 0 -20 20v50q0 20 20 20h194q20 0 20 -20v-338q1 -9 -5 -14q-9 -7 -29.5 -15.5t-47.5 -16t-58.5 -12.5t-64.5 -5q-75 0 -139.5 23t-112 69.5t-74.5 116t-27 163.5t27 163.5t74.5 116t112 69.5t139.5 23q33 0 64.5 -5t58.5 -12.5t47.5 -16t29.5 -15.5
q5 -5 5.5 -10t-4.5 -16l-16 -37q-4 -5 -11 -4.5t-15 2.5q-23 6 -66 15t-93 9q-45 0 -85.5 -15t-70.5 -48.5t-47.5 -87t-17.5 -131.5t17.5 -131.5t48 -87t70.5 -48.5t85 -15q41 0 79 6v235zM323 -248q-20 0 -20 20v100q0 20 20 20h100q20 0 20 -20v-115q0 -25 -5 -49
t-12.5 -44t-16 -35t-15.5 -22q-5 -5 -10.5 -6.5t-15.5 5.5l-32 21q-5 4 -4.5 11.5t2.5 14.5q5 15 15 40.5t10 58.5h-36z" />
    <glyph glyph-name="uni0123" unicode="&#x123;" horiz-adv-x="581" 
d="M323 739q20 0 20 -20v-100q0 -20 -20 -20h-100q-20 0 -20 20v115q0 25 5 49t12.5 44t16 34.5t15.5 22.5q5 5 10.5 6.5t15.5 -5.5l32 -21q5 -4 4.5 -11.5t-2.5 -14.5q-5 -15 -15 -40.5t-10 -58.5h36zM411 61h-2q-19 -29 -54.5 -51t-99.5 -22q-44 0 -83 13.5t-68 45.5
t-46.5 84.5t-17.5 130.5q0 77 17 129t46 83.5t67.5 45t81.5 13.5q57 0 101.5 -18t75.5 -57h2l10 42q2 11 5.5 15.5t14.5 4.5h50q20 0 20 -20v-470q0 -59 -17.5 -107t-49 -82t-75.5 -52t-97 -18q-32 0 -65 5t-62.5 12.5t-51.5 16t-31 15.5q-5 5 -5.5 10t4.5 16l16 42
q2 6 10 5t16 -3q10 -3 29 -7t43 -7.5t49 -6.5t47 -3q27 0 49 11t38 31.5t24.5 48.5t8.5 62v42zM272 72q66 0 102.5 44t36.5 146q0 100 -35.5 143.5t-102.5 43.5q-27 0 -48.5 -8t-35.5 -29t-21.5 -57t-7.5 -93q0 -59 8 -96t22.5 -58t35 -28.5t46.5 -7.5z" />
    <glyph glyph-name="Hcircumflex" unicode="&#x124;" horiz-adv-x="609" 
d="M453 0q-20 0 -20 20v304h-257v-304q0 -20 -20 -20h-86q-20 0 -20 20v680q0 20 20 20h86q20 0 20 -20v-286h257v286q0 20 20 20h86q20 0 20 -20v-680q0 -20 -20 -20h-86zM242 822q-14 -14 -34 -14h-34q-20 0 -8 16l72 100q12 16 32 16h68q20 0 32 -16l72 -100
q12 -16 -8 -16h-34q-20 0 -34 14l-62 62z" />
    <glyph glyph-name="hcircumflex" unicode="&#x125;" horiz-adv-x="551" 
d="M401 0q-20 0 -20 20v238q0 58 -6.5 95t-18.5 58t-29 29t-38 8q-57 0 -88 -36.5t-31 -123.5v-268q0 -20 -20 -20h-80q-20 0 -20 20v700q0 20 20 20h80q20 0 20 -20v-261h2q16 29 47 51t87 22q40 0 75.5 -13.5t62 -45.5t42 -84.5t15.5 -130.5v-238q0 -20 -20 -20h-80z
M213 822q-14 -14 -34 -14h-34q-20 0 -8 16l72 100q12 16 32 16h68q20 0 32 -16l72 -100q12 -16 -8 -16h-34q-20 0 -34 14l-62 62z" />
    <glyph glyph-name="Hbar" unicode="&#x126;" horiz-adv-x="609" 
d="M20 540q-20 0 -20 20v30q0 20 20 20l569 -1q20 0 20 -20v-30q0 -20 -20 -20zM453 0q-20 0 -20 20v304h-257v-304q0 -20 -20 -20h-86q-20 0 -20 20v680q0 20 20 20h86q20 0 20 -20v-286h257v286q0 20 20 20h86q20 0 20 -20v-680q0 -20 -20 -20h-86z" />
    <glyph glyph-name="hbar" unicode="&#x127;" horiz-adv-x="587" 
d="M437 0q-20 0 -20 20v238q0 58 -6.5 95t-18.5 58t-29 29t-38 8q-57 0 -88 -36.5t-31 -123.5v-268q0 -20 -20 -20h-80q-20 0 -20 20v559h-50q-20 0 -20 20v50q0 20 20 20h50v51q0 20 20 20h80q20 0 20 -20v-51h160q20 0 20 -20v-50q0 -20 -20 -20h-160v-120h2q16 29 47 51
t87 22q40 0 75.5 -13.5t62 -45.5t42 -84.5t15.5 -130.5v-238q0 -20 -20 -20h-80z" />
    <glyph glyph-name="Itilde" unicode="&#x128;" horiz-adv-x="226" 
d="M70 0q-20 0 -20 20v680q0 20 20 20h86q20 0 20 -20v-680q0 -20 -20 -20h-86zM-10 809q-7 0 -11.5 5t-4.5 11q1 20 6 38t15.5 31.5t27 21.5t39.5 8q17 0 33.5 -6t32.5 -13q24 -11 31 -13.5t9 -2.5q8 0 11.5 5t6.5 11.5t8 11.5t16 5h30q6 0 10.5 -5t4.5 -11q-1 -41 -21 -70
t-66 -29q-9 0 -17.5 2.5t-16.5 5.5q-26 10 -46 18.5t-26 8.5q-8 0 -12.5 -5t-8 -11.5t-8.5 -11.5t-13 -5h-30z" />
    <glyph glyph-name="itilde" unicode="&#x129;" horiz-adv-x="220" 
d="M70 0q-20 0 -20 20v480q0 20 20 20h80q20 0 20 -20v-480q0 -20 -20 -20h-80zM-13 609q-7 0 -11.5 5t-4.5 11q1 20 6 38t15.5 31.5t27 21.5t39.5 8q17 0 33.5 -6t32.5 -13q24 -11 31 -13.5t9 -2.5q8 0 11.5 5t6.5 11.5t8 11.5t16 5h30q6 0 10.5 -5t4.5 -11q-1 -41 -21 -70
t-66 -29q-9 0 -17.5 2.5t-16.5 5.5q-26 10 -46 18.5t-26 8.5q-8 0 -12.5 -5t-8 -11.5t-8.5 -11.5t-13 -5h-30z" />
    <glyph glyph-name="Imacron" unicode="&#x12a;" horiz-adv-x="226" 
d="M70 0q-20 0 -20 20v680q0 20 20 20h86q20 0 20 -20v-680q0 -20 -20 -20h-86zM-41 830q-20 0 -20 20v30q0 20 20 20h310q20 0 20 -20v-30q0 -20 -20 -20h-310z" />
    <glyph glyph-name="imacron" unicode="&#x12b;" horiz-adv-x="220" 
d="M70 0q-20 0 -20 20v480q0 20 20 20h80q20 0 20 -20v-480q0 -20 -20 -20h-80zM-44 630q-20 0 -20 20v30q0 20 20 20h310q20 0 20 -20v-30q0 -20 -20 -20h-310z" />
    <glyph glyph-name="Ibreve" unicode="&#x12c;" horiz-adv-x="226" 
d="M70 0q-20 0 -20 20v680q0 20 20 20h86q20 0 20 -20v-680q0 -20 -20 -20h-86zM35 940q4 0 7.5 -3.5t5.5 -6.5q8 -23 24.5 -33t43.5 -10q22 0 40.5 9t26.5 34q1 4 5 7t9 3h42q6 0 10.5 -5t4.5 -11q-2 -54 -41.5 -85.5t-96.5 -31.5q-24 0 -48.5 7.5t-44 22t-32 36.5
t-14.5 51q-2 7 3 11.5t12 4.5h43z" />
    <glyph glyph-name="ibreve" unicode="&#x12d;" horiz-adv-x="220" 
d="M70 0q-20 0 -20 20v480q0 20 20 20h80q20 0 20 -20v-480q0 -20 -20 -20h-80zM32 740q4 0 7.5 -3.5t5.5 -6.5q8 -23 24.5 -33t43.5 -10q22 0 40.5 9t26.5 34q1 4 5 7t9 3h42q6 0 10.5 -5t4.5 -11q-2 -54 -41.5 -85.5t-96.5 -31.5q-24 0 -48.5 7.5t-44 22t-32 36.5
t-14.5 51q-2 7 3 11.5t12 4.5h43z" />
    <glyph glyph-name="Iogonek" unicode="&#x12e;" horiz-adv-x="226" 
d="M70 0q-20 0 -20 20v680q0 20 20 20h86q20 0 20 -20v-680l-1 -20l-37 -58q-15 -25 -15 -43q0 -21 20 -21q5 0 8.5 2.5t7.5 4.5q9 8 15 2.5t9 -13.5l4 -10l4 -10q3 -11 -0.5 -13.5t-12.5 -10.5q-7 -5 -25 -14.5t-42 -11.5q-38 2 -58 19t-20 52q0 16 6 39t23 46l29 40h-21z
" />
    <glyph glyph-name="iogonek" unicode="&#x12f;" horiz-adv-x="220" 
d="M70 0q-20 0 -20 20v480q0 20 20 20h80q20 0 20 -20v-480q0 -21 -11 -37l-26 -41q-15 -25 -15 -43q0 -21 20 -21q5 0 8.5 2.5t7.5 4.5q11 7 15.5 2t8.5 -13l4 -10l4 -10q4 -11 0 -13.5t-13 -10.5q-7 -5 -25 -14.5t-42 -11.5q-38 2 -58 19t-20 52q0 16 6 39t23 46l29 40
h-16zM70 620q-20 0 -20 20v80q0 20 20 20h80q20 0 20 -20v-80q0 -20 -20 -20h-80z" />
    <glyph glyph-name="Idotaccent" unicode="&#x130;" horiz-adv-x="226" 
d="M70 0q-20 0 -20 20v680q0 20 20 20h86q20 0 20 -20v-680q0 -20 -20 -20h-86zM73 820q-20 0 -20 20v80q0 20 20 20h80q20 0 20 -20v-80q0 -20 -20 -20h-80z" />
    <glyph glyph-name="dotlessi" unicode="&#x131;" horiz-adv-x="220" 
d="M70 0q-20 0 -20 20v480q0 20 20 20h80q20 0 20 -20v-480q0 -20 -20 -20h-80z" />
    <glyph glyph-name="IJ" unicode="&#x132;" horiz-adv-x="582" 
d="M70 0q-20 0 -20 20v680q0 20 20 20h86q20 0 20 -20v-680q0 -20 -20 -20h-86zM236 70q0 20 20 20h13q37 0 64.5 9.5t46 31.5t27.5 58.5t9 90.5v420q0 20 20 20h86q20 0 20 -20v-441q-2 -128 -69 -193.5t-181 -65.5q-17 0 -28.5 0.5t-9.5 0.5q-18 1 -18 21v48z" />
    <glyph glyph-name="ij" unicode="&#x133;" horiz-adv-x="440" 
d="M70 620q-20 0 -20 20v80q0 20 20 20h80q20 0 20 -20v-80q0 -20 -20 -20h-80zM70 0q-20 0 -20 20v480q0 20 20 20h80q20 0 20 -20v-480q0 -20 -20 -20h-80zM290 620q-20 0 -20 20v80q0 20 20 20h80q20 0 20 -20v-80q0 -20 -20 -20h-80zM235 -220q-20 0 -20 20v44
q0 20 20 20h7q10 0 19 18.5t9 60.5v557q0 20 20 20h80q20 0 20 -20v-564q0 -79 -35 -117.5t-103 -38.5h-17z" />
    <glyph glyph-name="Jcircumflex" unicode="&#x134;" horiz-adv-x="356" 
d="M10 70q0 20 20 20h13q37 0 64.5 9.5t46 31.5t27.5 58.5t9 90.5v420q0 20 20 20h86q20 0 20 -20v-441q-2 -128 -69 -193.5t-181 -65.5q-17 0 -28.5 0.5t-9.5 0.5q-18 1 -18 21v48zM193 822q-14 -14 -34 -14h-34q-20 0 -8 16l72 100q12 16 32 16h68q20 0 32 -16l72 -100
q12 -16 -8 -16h-34q-20 0 -34 14l-62 62z" />
    <glyph glyph-name="jcircumflex" unicode="&#x135;" horiz-adv-x="220" 
d="M15 -220q-20 0 -20 20v44q0 20 20 20h7q10 0 19 18.5t9 60.5v557q0 20 20 20h80q20 0 20 -20v-564q0 -79 -35 -117.5t-103 -38.5h-17zM49 622q-14 -14 -34 -14h-34q-20 0 -8 16l72 100q12 16 32 16h68q20 0 32 -16l72 -100q12 -16 -8 -16h-34q-20 0 -34 14l-62 62z" />
    <glyph glyph-name="uni0136" unicode="&#x136;" horiz-adv-x="637" 
d="M449 0q-20 0 -32 16l-241 311v-307q0 -20 -20 -20h-86q-20 0 -20 20v680q0 20 20 20h86q20 0 20 -20v-308l248 312q12 16 32 16h103q20 0 8 -16l-279 -335l287 -353q12 -16 -8 -16h-118zM268 -248q-20 0 -20 20v100q0 20 20 20h100q20 0 20 -20v-115q0 -25 -5 -49
t-12.5 -44t-16 -35t-15.5 -22q-5 -5 -10.5 -6.5t-15.5 5.5l-32 21q-5 4 -4.5 11.5t2.5 14.5q5 15 15 40.5t10 58.5h-36z" />
    <glyph glyph-name="uni0137" unicode="&#x137;" horiz-adv-x="487" 
d="M365 0q-20 0 -32 16l-164 211v-207q0 -20 -20 -20h-79q-20 0 -20 20v700q0 20 20 20h79q20 0 20 -20v-428l168 212q12 16 32 16h83q22 0 8 -16l-199 -235l210 -253q14 -16 -8 -16h-98zM193 -248q-20 0 -20 20v100q0 20 20 20h100q20 0 20 -20v-115q0 -25 -5 -49
t-12.5 -44t-16 -35t-15.5 -22q-5 -5 -10.5 -6.5t-15.5 5.5l-32 21q-5 4 -4.5 11.5t2.5 14.5q5 15 15 40.5t10 58.5h-36z" />
    <glyph glyph-name="kgreenlandic" unicode="&#x138;" horiz-adv-x="487" 
d="M365 0q-20 0 -32 16l-164 211v-207q0 -20 -20 -20h-79q-20 0 -20 20v480q0 20 20 20h79q20 0 20 -20v-208l168 212q12 16 32 16h83q22 0 8 -16l-199 -235l210 -253q14 -16 -8 -16h-98z" />
    <glyph glyph-name="Lacute" unicode="&#x139;" horiz-adv-x="463" 
d="M443 20q0 -20 -20 -20h-353q-20 0 -20 20v680q0 20 20 20h86q20 0 20 -20v-610h247q20 0 20 -20v-50zM171 923q11 17 31 17h91q20 0 5 -14l-111 -104q-15 -14 -35 -14h-31q-20 0 -10 17z" />
    <glyph glyph-name="lacute" unicode="&#x13a;" horiz-adv-x="226" 
d="M188 0q-68 0 -103 38.5t-35 117.5v564q0 20 20 20h80q20 0 20 -20v-557q0 -42 9 -60.5t19 -18.5h7q20 0 20 -20v-44q0 -20 -20 -20h-17zM171 923q11 17 31 17h91q20 0 5 -14l-111 -104q-15 -14 -35 -14h-31q-20 0 -10 17z" />
    <glyph glyph-name="uni013B" unicode="&#x13b;" horiz-adv-x="463" 
d="M443 20q0 -20 -20 -20h-353q-20 0 -20 20v680q0 20 20 20h86q20 0 20 -20v-610h247q20 0 20 -20v-50zM181 -248q-20 0 -20 20v100q0 20 20 20h100q20 0 20 -20v-115q0 -25 -5 -49t-12.5 -44t-16 -35t-15.5 -22q-5 -5 -10.5 -6.5t-15.5 5.5l-32 21q-5 4 -4.5 11.5
t2.5 14.5q5 15 15 40.5t10 58.5h-36z" />
    <glyph glyph-name="uni013C" unicode="&#x13c;" horiz-adv-x="226" 
d="M188 0q-68 0 -103 38.5t-35 117.5v564q0 20 20 20h80q20 0 20 -20v-557q0 -42 9 -60.5t19 -18.5h7q20 0 20 -20v-44q0 -20 -20 -20h-17zM105 -248q-20 0 -20 20v100q0 20 20 20h100q20 0 20 -20v-115q0 -25 -5 -49t-12.5 -44t-16 -35t-15.5 -22q-5 -5 -10.5 -6.5
t-15.5 5.5l-32 21q-5 4 -4.5 11.5t2.5 14.5q5 15 15 40.5t10 58.5h-36z" />
    <glyph glyph-name="Lcaron" unicode="&#x13d;" horiz-adv-x="463" 
d="M443 20q0 -20 -20 -20h-353q-20 0 -20 20v680q0 20 20 20h86q20 0 20 -20v-610h247q20 0 20 -20v-50zM114 864l62 62q14 14 34 14h34q20 0 8 -16l-72 -100q-12 -16 -32 -16h-68q-20 0 -32 16l-72 100q-12 16 8 16h34q20 0 34 -14z" />
    <glyph glyph-name="lcaron" unicode="&#x13e;" horiz-adv-x="376" 
d="M188 0q-68 0 -103 38.5t-35 117.5v564q0 20 20 20h80q20 0 20 -20v-557q0 -42 9 -60.5t19 -18.5h7q20 0 20 -20v-44q0 -20 -20 -20h-17zM246 600q-20 0 -20 20v100q0 20 20 20h100q20 0 20 -20v-115q0 -25 -5 -49t-12.5 -44t-16 -35t-15.5 -22q-5 -5 -10.5 -6.5
t-15.5 5.5l-32 21q-5 4 -4.5 11.5t2.5 14.5q5 15 15 40.5t10 58.5h-36z" />
    <glyph glyph-name="Ldot" unicode="&#x13f;" horiz-adv-x="463" 
d="M443 20q0 -20 -20 -20h-353q-20 0 -20 20v680q0 20 20 20h86q20 0 20 -20v-610h247q20 0 20 -20v-50zM410 370q20 0 20 -20v-100q0 -20 -20 -20h-100q-20 0 -20 20v100q0 20 20 20h100z" />
    <glyph glyph-name="ldot" unicode="&#x140;" horiz-adv-x="376" 
d="M188 0q-68 0 -103 38.5t-35 117.5v564q0 20 20 20h80q20 0 20 -20v-557q0 -42 9 -60.5t19 -18.5h7q20 0 20 -20v-44q0 -20 -20 -20h-17zM346 370q20 0 20 -20v-100q0 -20 -20 -20h-100q-20 0 -20 20v100q0 20 20 20h100z" />
    <glyph glyph-name="Lslash" unicode="&#x141;" horiz-adv-x="531" 
d="M63 232q-19 -9 -26 10l-22 45q-7 19 10 27l390 182q19 9 26 -10l22 -45q7 -19 -10 -27zM511 20q0 -20 -20 -20h-353q-20 0 -20 20v680q0 20 20 20h86q20 0 20 -20v-610h247q20 0 20 -20v-50z" />
    <glyph glyph-name="lslash" unicode="&#x142;" horiz-adv-x="382" 
d="M58 232q-19 -9 -26 10l-22 45q-7 19 10 27l305 141q19 9 26 -10l22 -45q7 -19 -10 -27zM251 0q-68 0 -103 38.5t-35 117.5v564q0 20 20 20h80q20 0 20 -20v-557q0 -42 9 -60.5t19 -18.5h7q20 0 20 -20v-44q0 -20 -20 -20h-17z" />
    <glyph glyph-name="Nacute" unicode="&#x143;" horiz-adv-x="636" 
d="M496 0q-22 0 -33 16l-305 488h-2l10 -204v-280q0 -20 -20 -20h-76q-20 0 -20 20v680q0 20 20 20h70q22 0 33 -16l305 -488h2l-10 204v280q0 20 20 20h76q20 0 20 -20v-680q0 -20 -20 -20h-70zM329 923q11 17 31 17h91q20 0 5 -14l-111 -104q-15 -14 -35 -14h-31
q-20 0 -10 17z" />
    <glyph glyph-name="nacute" unicode="&#x144;" horiz-adv-x="536" 
d="M385 0q-19 0 -19 20v282q0 29 -4.5 55.5t-15 46.5t-28 32t-43.5 12q-105 0 -105 -156v-272q0 -20 -20 -20h-80q-20 0 -20 20v480q0 20 20 20h50q11 0 14.5 -4.5t5.5 -15.5l10 -41h2q9 18 23.5 31.5t32.5 22.5t38 14t39 5q42 0 78.5 -13t63.5 -38t43 -61.5t16 -83.5v-316
q0 -20 -19 -20h-82zM294 723q11 17 31 17h91q20 0 5 -14l-111 -104q-15 -14 -35 -14h-31q-20 0 -10 17z" />
    <glyph glyph-name="uni0145" unicode="&#x145;" horiz-adv-x="636" 
d="M496 0q-22 0 -33 16l-305 488h-2l10 -204v-280q0 -20 -20 -20h-76q-20 0 -20 20v680q0 20 20 20h70q22 0 33 -16l305 -488h2l-10 204v280q0 20 20 20h76q20 0 20 -20v-680q0 -20 -20 -20h-70zM268 -248q-20 0 -20 20v100q0 20 20 20h100q20 0 20 -20v-115q0 -25 -5 -49
t-12.5 -44t-16 -35t-15.5 -22q-5 -5 -10.5 -6.5t-15.5 5.5l-32 21q-5 4 -4.5 11.5t2.5 14.5q5 15 15 40.5t10 58.5h-36z" />
    <glyph glyph-name="uni0146" unicode="&#x146;" horiz-adv-x="536" 
d="M385 0q-19 0 -19 20v282q0 29 -4.5 55.5t-15 46.5t-28 32t-43.5 12q-105 0 -105 -156v-272q0 -20 -20 -20h-80q-20 0 -20 20v480q0 20 20 20h50q11 0 14.5 -4.5t5.5 -15.5l10 -41h2q9 18 23.5 31.5t32.5 22.5t38 14t39 5q42 0 78.5 -13t63.5 -38t43 -61.5t16 -83.5v-316
q0 -20 -19 -20h-82zM218 -248q-20 0 -20 20v100q0 20 20 20h100q20 0 20 -20v-115q0 -25 -5 -49t-12.5 -44t-16 -35t-15.5 -22q-5 -5 -10.5 -6.5t-15.5 5.5l-32 21q-5 4 -4.5 11.5t2.5 14.5q5 15 15 40.5t10 58.5h-36z" />
    <glyph glyph-name="Ncaron" unicode="&#x147;" horiz-adv-x="636" 
d="M496 0q-22 0 -33 16l-305 488h-2l10 -204v-280q0 -20 -20 -20h-76q-20 0 -20 20v680q0 20 20 20h70q22 0 33 -16l305 -488h2l-10 204v280q0 20 20 20h76q20 0 20 -20v-680q0 -20 -20 -20h-70zM318 864l62 62q14 14 34 14h34q20 0 8 -16l-72 -100q-12 -16 -32 -16h-68
q-20 0 -32 16l-72 100q-12 16 8 16h34q20 0 34 -14z" />
    <glyph glyph-name="ncaron" unicode="&#x148;" horiz-adv-x="536" 
d="M385 0q-19 0 -19 20v282q0 29 -4.5 55.5t-15 46.5t-28 32t-43.5 12q-105 0 -105 -156v-272q0 -20 -20 -20h-80q-20 0 -20 20v480q0 20 20 20h50q11 0 14.5 -4.5t5.5 -15.5l10 -41h2q9 18 23.5 31.5t32.5 22.5t38 14t39 5q42 0 78.5 -13t63.5 -38t43 -61.5t16 -83.5v-316
q0 -20 -19 -20h-82zM268 664l62 62q14 14 34 14h34q20 0 8 -16l-72 -100q-12 -16 -32 -16h-68q-20 0 -32 16l-72 100q-12 16 8 16h34q20 0 34 -14z" />
    <glyph glyph-name="napostrophe" unicode="&#x149;" horiz-adv-x="536" 
d="M385 0q-19 0 -19 20v282q0 29 -4.5 55.5t-15 46.5t-28 32t-43.5 12q-105 0 -105 -156v-272q0 -20 -20 -20h-80q-20 0 -20 20v480q0 20 20 20h50q11 0 14.5 -4.5t5.5 -15.5l10 -41h2q9 18 23.5 31.5t32.5 22.5t38 14t39 5q42 0 78.5 -13t63.5 -38t43 -61.5t16 -83.5v-316
q0 -20 -19 -20h-82zM73 720q-20 0 -20 20v100q0 20 20 20h100q20 0 20 -20v-115q0 -25 -5 -49t-12.5 -44t-16 -35t-15.5 -22q-5 -5 -10.5 -6.5t-15.5 5.5l-32 21q-5 4 -4.5 11.5t2.5 14.5q5 15 15 40.5t10 58.5h-36z" />
    <glyph glyph-name="Eng" unicode="&#x14a;" horiz-adv-x="636" 
d="M280 -180q0 20 20 20h13q37 0 65.5 8.5t48 28t30 51.5t12.5 80l-311 496h-2l10 -204v-280q0 -20 -20 -20h-76q-20 0 -20 20v680q0 20 20 20h70q22 0 33 -16l305 -488h2l-10 204v280q0 20 20 20h76q20 0 20 -20v-691q-2 -128 -69 -193.5t-181 -65.5q-17 0 -28.5 0.5
t-9.5 0.5q-18 1 -18 21v48z" />
    <glyph glyph-name="eng" unicode="&#x14b;" horiz-adv-x="536" 
d="M331 -250q-20 0 -20 20v44q0 20 20 20h7q10 0 19 18.5t9 60.5v389q0 29 -4.5 55.5t-15 46.5t-28 32t-43.5 12q-105 0 -105 -156v-272q0 -20 -20 -20h-80q-20 0 -20 20v480q0 20 20 20h50q11 0 14.5 -4.5t5.5 -15.5l10 -41h2q9 18 23.5 31.5t32.5 22.5t38 14t39 5
q42 0 78.5 -13t63.5 -38t43 -61.5t16 -83.5v-430q0 -79 -35 -117.5t-103 -38.5h-17z" />
    <glyph glyph-name="Omacron" unicode="&#x14c;" horiz-adv-x="786" 
d="M393 -12q-75 0 -139.5 23t-112 69.5t-74.5 116t-27 163.5t27 163.5t74.5 116t112 69.5t139.5 23t139.5 -23t112 -69.5t74.5 -116t27 -163.5t-27 -163.5t-74.5 -116t-112 -69.5t-139.5 -23zM393 83q45 0 85 14.5t70.5 47.5t48 86t17.5 129t-17.5 129t-47.5 86t-70.5 47.5
t-85.5 14.5t-85.5 -14.5t-70.5 -47.5t-47.5 -86t-17.5 -129t17.5 -129t48 -86t70.5 -47.5t85 -14.5zM238 830q-20 0 -20 20v30q0 20 20 20h310q20 0 20 -20v-30q0 -20 -20 -20h-310z" />
    <glyph glyph-name="omacron" unicode="&#x14d;" 
d="M282 -12q-72 0 -119 21.5t-74 58t-38 86t-11 105.5t11 105.5t38 87t74 59.5t119 22t119 -22t74 -59t38 -87t11 -105q0 -56 -11 -105.5t-38 -86.5t-74 -58.5t-119 -21.5zM282 78q37 0 61 14.5t37.5 39t18.5 57.5t5 71q0 37 -5 70.5t-18.5 58.5t-37.5 39.5t-61 14.5
q-38 0 -61.5 -14.5t-37 -39.5t-18.5 -58.5t-5 -70.5q0 -38 5 -71t18.5 -57.5t37 -39t61.5 -14.5zM127 630q-20 0 -20 20v30q0 20 20 20h310q20 0 20 -20v-30q0 -20 -20 -20h-310z" />
    <glyph glyph-name="Obreve" unicode="&#x14e;" horiz-adv-x="786" 
d="M393 -12q-75 0 -139.5 23t-112 69.5t-74.5 116t-27 163.5t27 163.5t74.5 116t112 69.5t139.5 23t139.5 -23t112 -69.5t74.5 -116t27 -163.5t-27 -163.5t-74.5 -116t-112 -69.5t-139.5 -23zM393 83q45 0 85 14.5t70.5 47.5t48 86t17.5 129t-17.5 129t-47.5 86t-70.5 47.5
t-85.5 14.5t-85.5 -14.5t-70.5 -47.5t-47.5 -86t-17.5 -129t17.5 -129t48 -86t70.5 -47.5t85 -14.5zM313 940q4 0 7.5 -3.5t5.5 -6.5q8 -23 24.5 -33t43.5 -10q22 0 40.5 9t26.5 34q1 4 5 7t9 3h42q6 0 10.5 -5t4.5 -11q-2 -54 -41.5 -85.5t-96.5 -31.5q-24 0 -48.5 7.5
t-44 22t-32 36.5t-14.5 51q-2 7 3 11.5t12 4.5h43z" />
    <glyph glyph-name="obreve" unicode="&#x14f;" 
d="M282 -12q-72 0 -119 21.5t-74 58t-38 86t-11 105.5t11 105.5t38 87t74 59.5t119 22t119 -22t74 -59t38 -87t11 -105q0 -56 -11 -105.5t-38 -86.5t-74 -58.5t-119 -21.5zM282 78q37 0 61 14.5t37.5 39t18.5 57.5t5 71q0 37 -5 70.5t-18.5 58.5t-37.5 39.5t-61 14.5
q-38 0 -61.5 -14.5t-37 -39.5t-18.5 -58.5t-5 -70.5q0 -38 5 -71t18.5 -57.5t37 -39t61.5 -14.5zM202 740q4 0 7.5 -3.5t5.5 -6.5q8 -23 24.5 -33t43.5 -10q22 0 40.5 9t26.5 34q1 4 5 7t9 3h42q6 0 10.5 -5t4.5 -11q-2 -54 -41.5 -85.5t-96.5 -31.5q-24 0 -48.5 7.5t-44 22
t-32 36.5t-14.5 51q-2 7 3 11.5t12 4.5h43z" />
    <glyph glyph-name="Ohungarumlaut" unicode="&#x150;" horiz-adv-x="786" 
d="M393 -12q-75 0 -139.5 23t-112 69.5t-74.5 116t-27 163.5t27 163.5t74.5 116t112 69.5t139.5 23t139.5 -23t112 -69.5t74.5 -116t27 -163.5t-27 -163.5t-74.5 -116t-112 -69.5t-139.5 -23zM393 83q45 0 85 14.5t70.5 47.5t48 86t17.5 129t-17.5 129t-47.5 86t-70.5 47.5
t-85.5 14.5t-85.5 -14.5t-70.5 -47.5t-47.5 -86t-17.5 -129t17.5 -129t48 -86t70.5 -47.5t85 -14.5zM329 923q11 17 31 17h91q20 0 5 -14l-111 -104q-15 -14 -35 -14h-31q-20 0 -10 17zM528 923q11 17 31 17h91q20 0 5 -14l-111 -104q-15 -14 -35 -14h-31q-20 0 -10 17z" />
    <glyph glyph-name="ohungarumlaut" unicode="&#x151;" 
d="M282 -12q-72 0 -119 21.5t-74 58t-38 86t-11 105.5t11 105.5t38 87t74 59.5t119 22t119 -22t74 -59t38 -87t11 -105q0 -56 -11 -105.5t-38 -86.5t-74 -58.5t-119 -21.5zM282 78q37 0 61 14.5t37.5 39t18.5 57.5t5 71q0 37 -5 70.5t-18.5 58.5t-37.5 39.5t-61 14.5
q-38 0 -61.5 -14.5t-37 -39.5t-18.5 -58.5t-5 -70.5q0 -38 5 -71t18.5 -57.5t37 -39t61.5 -14.5zM190 723q11 17 31 17h91q20 0 5 -14l-111 -104q-15 -14 -35 -14h-31q-20 0 -10 17zM389 723q11 17 31 17h91q20 0 5 -14l-111 -104q-15 -14 -35 -14h-31q-20 0 -10 17z" />
    <glyph glyph-name="OE" unicode="&#x152;" horiz-adv-x="917" 
d="M504 0h-7q-25 -5 -51 -8.5t-53 -3.5q-75 0 -139.5 23t-112 69.5t-74.5 116t-27 163.5t27 163.5t74.5 116t112 69.5t139.5 23q57 0 105 -13q2 1 6 1h353q20 0 20 -20v-50q0 -20 -20 -20h-247v-221h197q20 0 20 -20v-50q0 -20 -20 -20h-197v-229h247q20 0 20 -20v-50
q0 -20 -20 -20h-353zM393 83q24 0 47 4t44 13v520q-21 9 -44 13t-47 4q-45 0 -85.5 -14.5t-70.5 -47.5t-47.5 -86t-17.5 -129t17.5 -129t48 -86t70.5 -47.5t85 -14.5z" />
    <glyph glyph-name="oe" unicode="&#x153;" horiz-adv-x="880" 
d="M817 63q9 -14 -1 -26q-7 -8 -23.5 -17t-40 -16t-52.5 -11.5t-61 -4.5q-66 0 -108.5 23.5t-66.5 63.5q-25 -41 -69 -64t-113 -23q-72 0 -119 21.5t-74 58t-38 86t-11 105.5t11 105.5t38 87t74 59.5t119 22q70 0 113.5 -24t68.5 -66q24 42 63.5 66t98.5 24q45 0 84.5 -13
t68 -40t45 -67.5t16.5 -94.5q0 -29 -5.5 -48t-18 -30.5t-33.5 -16.5t-52 -5h-205q3 -32 10.5 -58.5t22.5 -46t37.5 -30.5t55.5 -11q29 0 58 7.5t60 17.5q15 5 19.5 3t6.5 -5zM282 78q37 0 61 14.5t37.5 39t18.5 57.5t5 71q0 37 -5 70.5t-18.5 58.5t-37.5 39.5t-61 14.5
q-38 0 -61.5 -14.5t-37 -39.5t-18.5 -58.5t-5 -70.5q0 -38 5 -71t18.5 -57.5t37 -39t61.5 -14.5zM680 302q23 0 31 5.5t8 28.5q0 22 -6.5 42.5t-18 36t-27.5 25t-36 9.5q-27 0 -46 -12t-31.5 -32t-19 -46.5t-8.5 -56.5h154z" />
    <glyph glyph-name="Racute" unicode="&#x154;" horiz-adv-x="567" 
d="M411 0q-20 0 -30 17l-127 202h-78v-199q0 -20 -20 -20h-86q-20 0 -20 20v680q0 20 20 20h190q57 0 104 -19.5t81 -53.5t53 -80t19 -98q0 -74 -38 -134t-104 -91l154 -228q6 -8 5 -12t-13 -4h-110zM240 308q74 0 112.5 40t38.5 121t-38.5 121t-112.5 41h-64v-323h64z
M248 923q11 17 31 17h91q20 0 5 -14l-111 -104q-15 -14 -35 -14h-31q-20 0 -10 17z" />
    <glyph glyph-name="racute" unicode="&#x155;" horiz-adv-x="316" 
d="M70 0q-20 0 -20 20v480q0 20 20 20h50q11 0 13 -5t7 -15l10 -38h2q16 25 33.5 38t34.5 19t34.5 7.5t33.5 1.5q11 0 14.5 -2t3.5 -13v-75q0 -10 -3.5 -13.5t-9.5 -4t-13.5 1t-14.5 1.5q-95 0 -95 -97v-306q0 -20 -20 -20h-80zM178 723q11 17 31 17h91q20 0 5 -14
l-111 -104q-15 -14 -35 -14h-31q-20 0 -10 17z" />
    <glyph glyph-name="uni0156" unicode="&#x156;" horiz-adv-x="567" 
d="M411 0q-20 0 -30 17l-127 202h-78v-199q0 -20 -20 -20h-86q-20 0 -20 20v680q0 20 20 20h190q57 0 104 -19.5t81 -53.5t53 -80t19 -98q0 -74 -38 -134t-104 -91l154 -228q6 -8 5 -12t-13 -4h-110zM240 308q74 0 112.5 40t38.5 121t-38.5 121t-112.5 41h-64v-323h64z
M233 -248q-20 0 -20 20v100q0 20 20 20h100q20 0 20 -20v-115q0 -25 -5 -49t-12.5 -44t-16 -35t-15.5 -22q-5 -5 -10.5 -6.5t-15.5 5.5l-32 21q-5 4 -4.5 11.5t2.5 14.5q5 15 15 40.5t10 58.5h-36z" />
    <glyph glyph-name="uni0157" unicode="&#x157;" horiz-adv-x="316" 
d="M70 0q-20 0 -20 20v480q0 20 20 20h50q11 0 13 -5t7 -15l10 -38h2q16 25 33.5 38t34.5 19t34.5 7.5t33.5 1.5q11 0 14.5 -2t3.5 -13v-75q0 -10 -3.5 -13.5t-9.5 -4t-13.5 1t-14.5 1.5q-95 0 -95 -97v-306q0 -20 -20 -20h-80zM108 -248q-20 0 -20 20v100q0 20 20 20h100
q20 0 20 -20v-115q0 -25 -5 -49t-12.5 -44t-16 -35t-15.5 -22q-5 -5 -10.5 -6.5t-15.5 5.5l-32 21q-5 4 -4.5 11.5t2.5 14.5q5 15 15 40.5t10 58.5h-36z" />
    <glyph glyph-name="Rcaron" unicode="&#x158;" horiz-adv-x="567" 
d="M411 0q-20 0 -30 17l-127 202h-78v-199q0 -20 -20 -20h-86q-20 0 -20 20v680q0 20 20 20h190q57 0 104 -19.5t81 -53.5t53 -80t19 -98q0 -74 -38 -134t-104 -91l154 -228q6 -8 5 -12t-13 -4h-110zM240 308q74 0 112.5 40t38.5 121t-38.5 121t-112.5 41h-64v-323h64z
M283 864l62 62q14 14 34 14h34q20 0 8 -16l-72 -100q-12 -16 -32 -16h-68q-20 0 -32 16l-72 100q-12 16 8 16h34q20 0 34 -14z" />
    <glyph glyph-name="rcaron" unicode="&#x159;" horiz-adv-x="316" 
d="M70 0q-20 0 -20 20v480q0 20 20 20h50q11 0 13 -5t7 -15l10 -38h2q16 25 33.5 38t34.5 19t34.5 7.5t33.5 1.5q11 0 14.5 -2t3.5 -13v-75q0 -10 -3.5 -13.5t-9.5 -4t-13.5 1t-14.5 1.5q-95 0 -95 -97v-306q0 -20 -20 -20h-80zM159 664l62 62q14 14 34 14h34q20 0 8 -16
l-72 -100q-12 -16 -32 -16h-68q-20 0 -32 16l-72 100q-12 16 8 16h34q20 0 34 -14z" />
    <glyph glyph-name="Sacute" unicode="&#x15a;" horiz-adv-x="555" 
d="M209 319q-73 28 -118.5 77t-45.5 126q0 49 19.5 88t52.5 66t77 41.5t94 14.5q33 0 66.5 -5.5t62 -13.5t49.5 -16t28 -14q5 -4 5.5 -9t-4.5 -17l-16 -42q-2 -6 -10 -5t-16 3q-10 3 -28 7t-40 7.5t-46 6.5t-45 3q-40 0 -66 -10t-41 -25.5t-20.5 -33.5t-5.5 -34
q0 -27 17.5 -50.5t68.5 -43.5l96 -36q43 -16 75.5 -39.5t54 -52t32 -60.5t10.5 -65q0 -46 -19 -82.5t-53 -62.5t-82 -40t-105 -14q-32 0 -65 5t-62.5 12.5t-51.5 16t-31 15.5q-5 5 -5.5 10t4.5 16l16 42q2 6 10 5t16 -3q10 -3 29 -7t43 -7.5t49 -6.5t47 -3q66 0 105 25.5
t39 67.5q0 36 -27.5 63t-65.5 42zM278 923q11 17 31 17h91q20 0 5 -14l-111 -104q-15 -14 -35 -14h-31q-20 0 -10 17z" />
    <glyph glyph-name="sacute" unicode="&#x15b;" horiz-adv-x="474" 
d="M156 227q-56 17 -81 56t-25 89q0 34 12 63.5t35.5 51.5t58.5 34t81 12q64 0 110.5 -16t63.5 -33q3 -3 5.5 -9t-5.5 -17l-21 -32q-3 -7 -11 -5.5t-15 3.5q-27 10 -55.5 17.5t-60.5 7.5q-45 0 -64.5 -18t-19.5 -47q0 -17 9 -30t30 -19l117 -34q65 -19 89.5 -56t24.5 -95
q0 -41 -17 -71t-45.5 -50.5t-66.5 -30.5t-79 -10q-32 0 -61 4t-53 10.5t-41.5 15.5t-24.5 19q-9 13 -1 26l21 32q4 5 11.5 4.5t14.5 -2.5q29 -10 60 -17.5t68 -7.5q31 0 50.5 6t30.5 15.5t15 21.5t4 24q0 23 -17.5 35.5t-60.5 26.5zM248 723q11 17 31 17h91q20 0 5 -14
l-111 -104q-15 -14 -35 -14h-31q-20 0 -10 17z" />
    <glyph glyph-name="Scircumflex" unicode="&#x15c;" horiz-adv-x="555" 
d="M209 319q-73 28 -118.5 77t-45.5 126q0 49 19.5 88t52.5 66t77 41.5t94 14.5q33 0 66.5 -5.5t62 -13.5t49.5 -16t28 -14q5 -4 5.5 -9t-4.5 -17l-16 -42q-2 -6 -10 -5t-16 3q-10 3 -28 7t-40 7.5t-46 6.5t-45 3q-40 0 -66 -10t-41 -25.5t-20.5 -33.5t-5.5 -34
q0 -27 17.5 -50.5t68.5 -43.5l96 -36q43 -16 75.5 -39.5t54 -52t32 -60.5t10.5 -65q0 -46 -19 -82.5t-53 -62.5t-82 -40t-105 -14q-32 0 -65 5t-62.5 12.5t-51.5 16t-31 15.5q-5 5 -5.5 10t4.5 16l16 42q2 6 10 5t16 -3q10 -3 29 -7t43 -7.5t49 -6.5t47 -3q66 0 105 25.5
t39 67.5q0 36 -27.5 63t-65.5 42zM224 822q-14 -14 -34 -14h-34q-20 0 -8 16l72 100q12 16 32 16h68q20 0 32 -16l72 -100q12 -16 -8 -16h-34q-20 0 -34 14l-62 62z" />
    <glyph glyph-name="scircumflex" unicode="&#x15d;" horiz-adv-x="474" 
d="M156 227q-56 17 -81 56t-25 89q0 34 12 63.5t35.5 51.5t58.5 34t81 12q64 0 110.5 -16t63.5 -33q3 -3 5.5 -9t-5.5 -17l-21 -32q-3 -7 -11 -5.5t-15 3.5q-27 10 -55.5 17.5t-60.5 7.5q-45 0 -64.5 -18t-19.5 -47q0 -17 9 -30t30 -19l117 -34q65 -19 89.5 -56t24.5 -95
q0 -41 -17 -71t-45.5 -50.5t-66.5 -30.5t-79 -10q-32 0 -61 4t-53 10.5t-41.5 15.5t-24.5 19q-9 13 -1 26l21 32q4 5 11.5 4.5t14.5 -2.5q29 -10 60 -17.5t68 -7.5q31 0 50.5 6t30.5 15.5t15 21.5t4 24q0 23 -17.5 35.5t-60.5 26.5zM183 622q-14 -14 -34 -14h-34
q-20 0 -8 16l72 100q12 16 32 16h68q20 0 32 -16l72 -100q12 -16 -8 -16h-34q-20 0 -34 14l-62 62z" />
    <glyph glyph-name="Scedilla" unicode="&#x15e;" horiz-adv-x="555" 
d="M251 -12q-31 0 -64 5t-61.5 12.5t-49.5 16t-30 15.5q-5 5 -5.5 10t4.5 16l16 42q2 6 10 5t16 -3q10 -3 29 -7t43 -7.5t49 -6.5t47 -3q66 0 105 25.5t39 67.5q0 36 -27.5 63t-65.5 42l-97 38q-73 28 -118.5 77t-45.5 126q0 49 19.5 88t52.5 66t77 41.5t94 14.5
q33 0 66.5 -5.5t62 -13.5t49.5 -16t28 -14q5 -4 5.5 -9t-4.5 -17l-16 -42q-2 -6 -10 -5t-16 3q-10 3 -28 7t-40 7.5t-46 6.5t-45 3q-40 0 -66 -10t-41 -25.5t-20.5 -33.5t-5.5 -34q0 -27 17.5 -50.5t68.5 -43.5l96 -36q43 -16 75.5 -39.5t54 -52t32 -60.5t10.5 -65
q0 -41 -15 -74.5t-42.5 -58.5t-66 -41t-85.5 -22l-11 -45q34 -5 52 -25.5t18 -49.5q0 -39 -31 -66t-85 -27q-18 0 -30.5 1t-10.5 3q-19 1 -18 22l1 18q1 20 21 19v-1h21q33 0 48.5 10.5t15.5 27.5q0 15 -11 18.5t-36 5.5q-11 1 -13.5 9.5t0.5 18.5z" />
    <glyph glyph-name="scedilla" unicode="&#x15f;" horiz-adv-x="474" 
d="M211 -12q-59 2 -105 16t-60 33q-9 13 -1 26l21 32q4 5 11.5 4.5t14.5 -2.5q29 -10 60 -17.5t68 -7.5q31 0 50.5 6t30.5 15.5t15 21.5t4 24q0 23 -17 37t-61 25l-86 26q-57 16 -81.5 55.5t-24.5 89.5q0 34 12 63.5t35.5 51.5t58.5 34t81 12q64 0 110.5 -16t63.5 -33
q3 -3 5.5 -9t-5.5 -17l-21 -32q-3 -7 -11 -5.5t-15 3.5q-27 10 -55.5 17.5t-60.5 7.5q-45 0 -64.5 -18t-19.5 -47q0 -17 9 -30t30 -19l117 -34q65 -19 89.5 -56t24.5 -95q0 -36 -13 -63.5t-36 -47.5t-53.5 -32t-65.5 -16l-11 -45q34 -5 52 -25.5t18 -49.5q0 -39 -31 -66
t-85 -27q-18 0 -30.5 1t-10.5 3q-19 1 -18 22l1 18q1 20 21 19v-1h21q33 0 48.5 10.5t15.5 27.5q0 15 -11 18.5t-36 5.5q-11 1 -13 9.5t0 18.5z" />
    <glyph glyph-name="Scaron" unicode="&#x160;" horiz-adv-x="555" 
d="M209 319q-73 28 -118.5 77t-45.5 126q0 49 19.5 88t52.5 66t77 41.5t94 14.5q33 0 66.5 -5.5t62 -13.5t49.5 -16t28 -14q5 -4 5.5 -9t-4.5 -17l-16 -42q-2 -6 -10 -5t-16 3q-10 3 -28 7t-40 7.5t-46 6.5t-45 3q-40 0 -66 -10t-41 -25.5t-20.5 -33.5t-5.5 -34
q0 -27 17.5 -50.5t68.5 -43.5l96 -36q43 -16 75.5 -39.5t54 -52t32 -60.5t10.5 -65q0 -46 -19 -82.5t-53 -62.5t-82 -40t-105 -14q-32 0 -65 5t-62.5 12.5t-51.5 16t-31 15.5q-5 5 -5.5 10t4.5 16l16 42q2 6 10 5t16 -3q10 -3 29 -7t43 -7.5t49 -6.5t47 -3q66 0 105 25.5
t39 67.5q0 36 -27.5 63t-65.5 42zM277 864l62 62q14 14 34 14h34q20 0 8 -16l-72 -100q-12 -16 -32 -16h-68q-20 0 -32 16l-72 100q-12 16 8 16h34q20 0 34 -14z" />
    <glyph glyph-name="scaron" unicode="&#x161;" horiz-adv-x="474" 
d="M156 227q-56 17 -81 56t-25 89q0 34 12 63.5t35.5 51.5t58.5 34t81 12q64 0 110.5 -16t63.5 -33q3 -3 5.5 -9t-5.5 -17l-21 -32q-3 -7 -11 -5.5t-15 3.5q-27 10 -55.5 17.5t-60.5 7.5q-45 0 -64.5 -18t-19.5 -47q0 -17 9 -30t30 -19l117 -34q65 -19 89.5 -56t24.5 -95
q0 -41 -17 -71t-45.5 -50.5t-66.5 -30.5t-79 -10q-32 0 -61 4t-53 10.5t-41.5 15.5t-24.5 19q-9 13 -1 26l21 32q4 5 11.5 4.5t14.5 -2.5q29 -10 60 -17.5t68 -7.5q31 0 50.5 6t30.5 15.5t15 21.5t4 24q0 23 -17.5 35.5t-60.5 26.5zM245 664l62 62q14 14 34 14h34
q20 0 8 -16l-72 -100q-12 -16 -32 -16h-68q-20 0 -32 16l-72 100q-12 16 8 16h34q20 0 34 -14z" />
    <glyph glyph-name="uni0162" unicode="&#x162;" horiz-adv-x="480" 
d="M197 0q-20 0 -20 20v610h-147q-20 0 -20 20v50q0 20 20 20h420q20 0 20 -20v-50q0 -20 -20 -20h-147v-610q0 -20 -20 -20h-86zM190 -248q-20 0 -20 20v100q0 20 20 20h100q20 0 20 -20v-115q0 -25 -5 -49t-12.5 -44t-16 -35t-15.5 -22q-5 -5 -10.5 -6.5t-15.5 5.5l-32 21
q-5 4 -4.5 11.5t2.5 14.5q5 15 15 40.5t10 58.5h-36z" />
    <glyph glyph-name="uni0163" unicode="&#x163;" horiz-adv-x="315" 
d="M220 0q-68 0 -103 38.5t-35 117.5v285h-52q-20 0 -20 20v39q0 20 20 20h52v77q0 11 5 13.5t15 6.5l80 30q10 4 15 -2.5t5 -17.5v-107h63q20 0 20 -20v-39q0 -20 -20 -20h-63v-288q0 -37 15.5 -53t32.5 -16h7q20 0 20 -20v-44q0 -20 -20 -20h-37zM107 -248q-20 0 -20 20
v100q0 20 20 20h100q20 0 20 -20v-115q0 -25 -5 -49t-12.5 -44t-16 -35t-15.5 -22q-5 -5 -10.5 -6.5t-15.5 5.5l-32 21q-5 4 -4.5 11.5t2.5 14.5q5 15 15 40.5t10 58.5h-36z" />
    <glyph glyph-name="Tcaron" unicode="&#x164;" horiz-adv-x="480" 
d="M197 0q-20 0 -20 20v610h-147q-20 0 -20 20v50q0 20 20 20h420q20 0 20 -20v-50q0 -20 -20 -20h-147v-610q0 -20 -20 -20h-86zM240 864l62 62q14 14 34 14h34q20 0 8 -16l-72 -100q-12 -16 -32 -16h-68q-20 0 -32 16l-72 100q-12 16 8 16h34q20 0 34 -14z" />
    <glyph glyph-name="tcaron" unicode="&#x165;" horiz-adv-x="315" 
d="M220 0q-68 0 -103 38.5t-35 117.5v285h-52q-20 0 -20 20v39q0 20 20 20h52v77q0 11 5 13.5t15 6.5l80 30q10 4 15 -2.5t5 -17.5v-107h63q20 0 20 -20v-39q0 -20 -20 -20h-63v-288q0 -37 15.5 -53t32.5 -16h7q20 0 20 -20v-44q0 -20 -20 -20h-37zM143 775l62 62
q14 14 34 14h34q20 0 8 -16l-72 -100q-12 -16 -32 -16h-68q-20 0 -32 16l-72 100q-12 16 8 16h34q20 0 34 -14z" />
    <glyph glyph-name="Tbar" unicode="&#x166;" horiz-adv-x="480" 
d="M303 450v-430q0 -20 -20 -20h-86q-20 0 -20 20v430h-92q-20 0 -20 20v30q0 20 20 20h92v110h-147q-20 0 -20 20v50q0 20 20 20h420q20 0 20 -20v-50q0 -20 -20 -20h-147v-110h92q20 0 20 -20v-30q0 -20 -20 -20h-92z" />
    <glyph glyph-name="tbar" unicode="&#x167;" horiz-adv-x="315" 
d="M220 0q-68 0 -103 38.5t-35 117.5v144h-53q-20 0 -20 20v30q0 20 20 20h53v71h-52q-20 0 -20 20v39q0 20 20 20h52v77q0 11 5 13.5t15 6.5l80 30q10 4 15 -2.5t5 -17.5v-107h63q20 0 20 -20v-39q0 -20 -20 -20h-63v-71h63q20 0 20 -20v-30q0 -20 -20 -20h-63v-147
q0 -37 15.5 -53t32.5 -16h7q20 0 20 -20v-44q0 -20 -20 -20h-37z" />
    <glyph glyph-name="Utilde" unicode="&#x168;" horiz-adv-x="636" 
d="M490 700q0 20 20 20h56q20 0 20 -20v-444q0 -58 -20 -107t-56 -85t-85.5 -56t-108.5 -20q-57 0 -106 20.5t-84.5 56.5t-55.5 85t-20 106v444q0 20 20 20h86q20 0 20 -20v-416q0 -42 9 -79.5t27 -65.5t44.5 -44.5t61.5 -16.5q42 0 74 16t53.5 44t33 65.5t11.5 80.5v416z
M193 809q-7 0 -11.5 5t-4.5 11q1 20 6 38t15.5 31.5t27 21.5t39.5 8q17 0 33.5 -6t32.5 -13q24 -11 31 -13.5t9 -2.5q8 0 11.5 5t6.5 11.5t8 11.5t16 5h30q6 0 10.5 -5t4.5 -11q-1 -41 -21 -70t-66 -29q-9 0 -17.5 2.5t-16.5 5.5q-26 10 -46 18.5t-26 8.5q-8 0 -12.5 -5
t-8 -11.5t-8.5 -11.5t-13 -5h-30z" />
    <glyph glyph-name="utilde" unicode="&#x169;" horiz-adv-x="536" 
d="M416 0q-11 0 -14.5 4.5t-5.5 15.5l-10 41h-2q-9 -18 -23.5 -31.5t-32.5 -22.5t-38 -14t-39 -5q-42 0 -78.5 13t-63.5 38t-43 61.5t-16 83.5v316q0 20 19 20h82q19 0 19 -20v-282q0 -29 4.5 -55.5t15 -46.5t28 -32t43.5 -12q105 0 105 156v272q0 20 20 20h80q20 0 20 -20
v-480q0 -20 -20 -20h-50zM143 609q-7 0 -11.5 5t-4.5 11q1 20 6 38t15.5 31.5t27 21.5t39.5 8q17 0 33.5 -6t32.5 -13q24 -11 31 -13.5t9 -2.5q8 0 11.5 5t6.5 11.5t8 11.5t16 5h30q6 0 10.5 -5t4.5 -11q-1 -41 -21 -70t-66 -29q-9 0 -17.5 2.5t-16.5 5.5q-26 10 -46 18.5
t-26 8.5q-8 0 -12.5 -5t-8 -11.5t-8.5 -11.5t-13 -5h-30z" />
    <glyph glyph-name="Umacron" unicode="&#x16a;" horiz-adv-x="636" 
d="M490 700q0 20 20 20h56q20 0 20 -20v-444q0 -58 -20 -107t-56 -85t-85.5 -56t-108.5 -20q-57 0 -106 20.5t-84.5 56.5t-55.5 85t-20 106v444q0 20 20 20h86q20 0 20 -20v-416q0 -42 9 -79.5t27 -65.5t44.5 -44.5t61.5 -16.5q42 0 74 16t53.5 44t33 65.5t11.5 80.5v416z
M163 830q-20 0 -20 20v30q0 20 20 20h310q20 0 20 -20v-30q0 -20 -20 -20h-310z" />
    <glyph glyph-name="umacron" unicode="&#x16b;" horiz-adv-x="536" 
d="M416 0q-11 0 -14.5 4.5t-5.5 15.5l-10 41h-2q-9 -18 -23.5 -31.5t-32.5 -22.5t-38 -14t-39 -5q-42 0 -78.5 13t-63.5 38t-43 61.5t-16 83.5v316q0 20 19 20h82q19 0 19 -20v-282q0 -29 4.5 -55.5t15 -46.5t28 -32t43.5 -12q105 0 105 156v272q0 20 20 20h80q20 0 20 -20
v-480q0 -20 -20 -20h-50zM113 630q-20 0 -20 20v30q0 20 20 20h310q20 0 20 -20v-30q0 -20 -20 -20h-310z" />
    <glyph glyph-name="Ubreve" unicode="&#x16c;" horiz-adv-x="636" 
d="M490 700q0 20 20 20h56q20 0 20 -20v-444q0 -58 -20 -107t-56 -85t-85.5 -56t-108.5 -20q-57 0 -106 20.5t-84.5 56.5t-55.5 85t-20 106v444q0 20 20 20h86q20 0 20 -20v-416q0 -42 9 -79.5t27 -65.5t44.5 -44.5t61.5 -16.5q42 0 74 16t53.5 44t33 65.5t11.5 80.5v416z
M238 940q4 0 7.5 -3.5t5.5 -6.5q8 -23 24.5 -33t43.5 -10q22 0 40.5 9t26.5 34q1 4 5 7t9 3h42q6 0 10.5 -5t4.5 -11q-2 -54 -41.5 -85.5t-96.5 -31.5q-24 0 -48.5 7.5t-44 22t-32 36.5t-14.5 51q-2 7 3 11.5t12 4.5h43z" />
    <glyph glyph-name="ubreve" unicode="&#x16d;" horiz-adv-x="536" 
d="M416 0q-11 0 -14.5 4.5t-5.5 15.5l-10 41h-2q-9 -18 -23.5 -31.5t-32.5 -22.5t-38 -14t-39 -5q-42 0 -78.5 13t-63.5 38t-43 61.5t-16 83.5v316q0 20 19 20h82q19 0 19 -20v-282q0 -29 4.5 -55.5t15 -46.5t28 -32t43.5 -12q105 0 105 156v272q0 20 20 20h80q20 0 20 -20
v-480q0 -20 -20 -20h-50zM188 740q4 0 7.5 -3.5t5.5 -6.5q8 -23 24.5 -33t43.5 -10q22 0 40.5 9t26.5 34q1 4 5 7t9 3h42q6 0 10.5 -5t4.5 -11q-2 -54 -41.5 -85.5t-96.5 -31.5q-24 0 -48.5 7.5t-44 22t-32 36.5t-14.5 51q-2 7 3 11.5t12 4.5h43z" />
    <glyph glyph-name="Uring" unicode="&#x16e;" horiz-adv-x="636" 
d="M490 700q0 20 20 20h56q20 0 20 -20v-444q0 -58 -20 -107t-56 -85t-85.5 -56t-108.5 -20q-57 0 -106 20.5t-84.5 56.5t-55.5 85t-20 106v444q0 20 20 20h86q20 0 20 -20v-416q0 -42 9 -79.5t27 -65.5t44.5 -44.5t61.5 -16.5q42 0 74 16t53.5 44t33 65.5t11.5 80.5v416z
M225 868q0 19 7.5 36t20 30t29.5 20t36 7q40 0 66.5 -26.5t26.5 -66.5q0 -19 -7 -36t-20 -29.5t-30 -20t-36 -7.5q-18 0 -35 7.5t-30 20t-20.5 29.5t-7.5 36zM267 868q0 -20 15.5 -35.5t35.5 -15.5t35.5 14t15.5 37q0 22 -14 36.5t-37 14.5t-37 -15.5t-14 -35.5z" />
    <glyph glyph-name="uring" unicode="&#x16f;" horiz-adv-x="536" 
d="M416 0q-11 0 -14.5 4.5t-5.5 15.5l-10 41h-2q-9 -18 -23.5 -31.5t-32.5 -22.5t-38 -14t-39 -5q-42 0 -78.5 13t-63.5 38t-43 61.5t-16 83.5v316q0 20 19 20h82q19 0 19 -20v-282q0 -29 4.5 -55.5t15 -46.5t28 -32t43.5 -12q105 0 105 156v272q0 20 20 20h80q20 0 20 -20
v-480q0 -20 -20 -20h-50zM175 668q0 19 7.5 36t20 30t29.5 20t36 7q40 0 66.5 -26.5t26.5 -66.5q0 -19 -7 -36t-20 -29.5t-30 -20t-36 -7.5q-18 0 -35 7.5t-30 20t-20.5 29.5t-7.5 36zM217 668q0 -20 15.5 -35.5t35.5 -15.5t35.5 14t15.5 37q0 22 -14 36.5t-37 14.5
t-37 -15.5t-14 -35.5z" />
    <glyph glyph-name="Uhungarumlaut" unicode="&#x170;" horiz-adv-x="636" 
d="M490 700q0 20 20 20h56q20 0 20 -20v-444q0 -58 -20 -107t-56 -85t-85.5 -56t-108.5 -20q-57 0 -106 20.5t-84.5 56.5t-55.5 85t-20 106v444q0 20 20 20h86q20 0 20 -20v-416q0 -42 9 -79.5t27 -65.5t44.5 -44.5t61.5 -16.5q42 0 74 16t53.5 44t33 65.5t11.5 80.5v416z
M237 923q11 17 31 17h91q20 0 5 -14l-111 -104q-15 -14 -35 -14h-31q-20 0 -10 17zM436 923q11 17 31 17h91q20 0 5 -14l-111 -104q-15 -14 -35 -14h-31q-20 0 -10 17z" />
    <glyph glyph-name="uhungarumlaut" unicode="&#x171;" horiz-adv-x="536" 
d="M416 0q-11 0 -14.5 4.5t-5.5 15.5l-10 41h-2q-9 -18 -23.5 -31.5t-32.5 -22.5t-38 -14t-39 -5q-42 0 -78.5 13t-63.5 38t-43 61.5t-16 83.5v316q0 20 19 20h82q19 0 19 -20v-282q0 -29 4.5 -55.5t15 -46.5t28 -32t43.5 -12q105 0 105 156v272q0 20 20 20h80q20 0 20 -20
v-480q0 -20 -20 -20h-50zM176 723q11 17 31 17h91q20 0 5 -14l-111 -104q-15 -14 -35 -14h-31q-20 0 -10 17zM375 723q11 17 31 17h91q20 0 5 -14l-111 -104q-15 -14 -35 -14h-31q-20 0 -10 17z" />
    <glyph glyph-name="Uogonek" unicode="&#x172;" horiz-adv-x="636" 
d="M490 700q0 20 20 20h56q20 0 20 -20v-444q0 -48 -13.5 -89.5t-38 -74.5t-59.5 -57t-77 -36q-9 -14 -18 -28.5t-18 -28.5q-15 -25 -15 -43q0 -21 20 -21q5 0 8.5 2.5t7.5 4.5q9 8 15 2.5t9 -13.5l4 -10l4 -10q3 -11 -0.5 -13.5t-12.5 -10.5q-7 -5 -25 -14.5t-42 -11.5
q-38 2 -58 19t-20 52q0 16 6 39t23 46l20 28q-56 2 -102.5 23t-81 56.5t-53.5 84t-19 104.5v444q0 20 20 20h86q20 0 20 -20v-416q0 -42 9 -79.5t27 -65.5t44.5 -44.5t61.5 -16.5q42 0 74 16t53.5 44t33 65.5t11.5 80.5v416z" />
    <glyph glyph-name="uogonek" unicode="&#x173;" horiz-adv-x="536" 
d="M412 0q-8 1 -11 5.5t-5 14.5l-10 41h-2q-9 -18 -23.5 -31.5t-32.5 -22.5t-38 -14t-39 -5q-42 0 -78.5 13t-63.5 38t-43 61.5t-16 83.5v316q0 20 19 20h82q19 0 19 -20v-282q0 -29 4.5 -55.5t15 -46.5t28 -32t43.5 -12q105 0 105 156v272q0 20 20 20h80q20 0 20 -20v-480
q0 -21 -11 -37l-26 -41q-15 -25 -15 -43q0 -21 20 -21q5 0 8.5 2.5t7.5 4.5q11 7 16 2t8 -13l4 -10l4 -10q4 -11 0 -13.5t-13 -10.5q-7 -5 -25 -15.5t-42 -10.5q-38 -1 -58 17.5t-20 53.5q0 14 6 34t23 41l39 50v0z" />
    <glyph glyph-name="Wcircumflex" unicode="&#x174;" horiz-adv-x="872" 
d="M564 0q-11 0 -18.5 4t-9.5 14l-102 486l-108 -486q-2 -10 -9.5 -14t-18.5 -4h-64q-22 0 -28 18l-193 684q-9 18 12 18h95q23 0 27 -19l96 -401l28 -175l28 175l96 401q4 19 25 19h62q21 0 25 -19l89 -401l25 -175l31 175l103 401q7 19 27 19h65q9 0 13 -4.5t-1 -13.5
l-203 -684q-6 -18 -28 -18h-64zM374 822q-14 -14 -34 -14h-34q-20 0 -8 16l72 100q12 16 32 16h68q20 0 32 -16l72 -100q12 -16 -8 -16h-34q-20 0 -34 14l-62 62z" />
    <glyph glyph-name="wcircumflex" unicode="&#x175;" horiz-adv-x="784" 
d="M520 0q-19 0 -28 18l-100 324l-100 -324q-9 -18 -28 -18h-64q-19 0 -28 18l-159 484q-9 18 12 18h92q20 0 26 -19l89 -381l99 381q4 19 25 19h72q21 0 25 -19l99 -381l89 381q4 19 26 19h92q9 0 13 -4.5t-1 -13.5l-159 -484q-9 -18 -28 -18h-64zM330 622q-14 -14 -34 -14
h-34q-20 0 -8 16l72 100q12 16 32 16h68q20 0 32 -16l72 -100q12 -16 -8 -16h-34q-20 0 -34 14l-62 62z" />
    <glyph glyph-name="Ycircumflex" unicode="&#x176;" horiz-adv-x="628" 
d="M266 0q-20 0 -20 20v243l-232 440q-10 17 10 17h107q20 0 30 -17l160 -324l172 323q8 18 29 18h82q19 0 11 -18l-243 -439v-243q0 -20 -20 -20h-86zM252 822q-14 -14 -34 -14h-34q-20 0 -8 16l72 100q12 16 32 16h68q20 0 32 -16l72 -100q12 -16 -8 -16h-34q-20 0 -34 14
l-62 62z" />
    <glyph glyph-name="ycircumflex" unicode="&#x177;" horiz-adv-x="524" 
d="M120 -220q-9 0 -13 4.5t1 13.5l94 210l-189 494q-9 18 12 18h92q20 0 26 -19l121 -382l122 382q7 19 27 19h86q9 0 13 -4.5t-1 -13.5l-274 -704q-9 -18 -28 -18h-89zM200 622q-14 -14 -34 -14h-34q-20 0 -8 16l72 100q12 16 32 16h68q20 0 32 -16l72 -100q12 -16 -8 -16
h-34q-20 0 -34 14l-62 62z" />
    <glyph glyph-name="Ydieresis" unicode="&#x178;" horiz-adv-x="628" 
d="M266 0q-20 0 -20 20v243l-232 440q-10 17 10 17h107q20 0 30 -17l160 -324l172 323q8 18 29 18h82q19 0 11 -18l-243 -439v-243q0 -20 -20 -20h-86zM184 810q-20 0 -20 20v70q0 20 20 20h70q20 0 20 -20v-70q0 -20 -20 -20h-70zM374 810q-20 0 -20 20v70q0 20 20 20h70
q20 0 20 -20v-70q0 -20 -20 -20h-70z" />
    <glyph glyph-name="Zacute" unicode="&#x179;" horiz-adv-x="486" 
d="M30 0q-20 0 -20 20v36q0 19 10 38l303 536h-287q-20 0 -20 20v50q0 20 20 20h412q20 0 20 -20v-36q0 -19 -10 -38l-302 -536h300q20 0 20 -20v-50q0 -20 -20 -20h-426zM207 923q11 17 31 17h91q20 0 5 -14l-111 -104q-15 -14 -35 -14h-31q-20 0 -10 17z" />
    <glyph glyph-name="zacute" unicode="&#x17a;" horiz-adv-x="426" 
d="M50 0q-20 0 -20 20v36q0 19 10 38l210 347h-194q-20 0 -20 20v39q0 20 20 20h312q20 0 20 -20v-36q0 -19 -10 -38l-209 -347h207q20 0 20 -20v-39q0 -20 -20 -20h-326zM177 723q11 17 31 17h91q20 0 5 -14l-111 -104q-15 -14 -35 -14h-31q-20 0 -10 17z" />
    <glyph glyph-name="Zdotaccent" unicode="&#x17b;" horiz-adv-x="486" 
d="M30 0q-20 0 -20 20v36q0 19 10 38l303 536h-287q-20 0 -20 20v50q0 20 20 20h412q20 0 20 -20v-36q0 -19 -10 -38l-302 -536h300q20 0 20 -20v-50q0 -20 -20 -20h-426zM203 820q-20 0 -20 20v80q0 20 20 20h80q20 0 20 -20v-80q0 -20 -20 -20h-80z" />
    <glyph glyph-name="zdotaccent" unicode="&#x17c;" horiz-adv-x="426" 
d="M50 0q-20 0 -20 20v36q0 19 10 38l210 347h-194q-20 0 -20 20v39q0 20 20 20h312q20 0 20 -20v-36q0 -19 -10 -38l-209 -347h207q20 0 20 -20v-39q0 -20 -20 -20h-326zM173 620q-20 0 -20 20v80q0 20 20 20h80q20 0 20 -20v-80q0 -20 -20 -20h-80z" />
    <glyph glyph-name="Zcaron" unicode="&#x17d;" horiz-adv-x="486" 
d="M30 0q-20 0 -20 20v36q0 19 10 38l303 536h-287q-20 0 -20 20v50q0 20 20 20h412q20 0 20 -20v-36q0 -19 -10 -38l-302 -536h300q20 0 20 -20v-50q0 -20 -20 -20h-426zM243 864l62 62q14 14 34 14h34q20 0 8 -16l-72 -100q-12 -16 -32 -16h-68q-20 0 -32 16l-72 100
q-12 16 8 16h34q20 0 34 -14z" />
    <glyph glyph-name="zcaron" unicode="&#x17e;" horiz-adv-x="426" 
d="M50 0q-20 0 -20 20v36q0 19 10 38l210 347h-194q-20 0 -20 20v39q0 20 20 20h312q20 0 20 -20v-36q0 -19 -10 -38l-209 -347h207q20 0 20 -20v-39q0 -20 -20 -20h-326zM213 664l62 62q14 14 34 14h34q20 0 8 -16l-72 -100q-12 -16 -32 -16h-68q-20 0 -32 16l-72 100
q-12 16 8 16h34q20 0 34 -14z" />
    <glyph glyph-name="uni0182" unicode="&#x182;" 
d="M70 0q-20 0 -20 20v680q0 20 20 20h383q20 0 20 -20v-50q0 -20 -20 -20h-277v-181h120q58 0 100.5 -19t71 -50t42.5 -71.5t14 -83.5q0 -48 -17.5 -89t-48.5 -71.5t-72.5 -47.5t-90.5 -17h-225zM262 84q41 0 67.5 12t41.5 31.5t21 45t6 51.5t-6.5 51t-22.5 45t-42 32.5
t-65 12.5h-86v-281h86z" />
    <glyph glyph-name="uni0186" unicode="&#x186;" horiz-adv-x="639" 
d="M62 105q4 5 11.5 4.5t14.5 -2.5q23 -6 66 -15t93 -9q45 0 85 14.5t70.5 47.5t48 86t17.5 129t-17.5 129t-47.5 86t-70.5 47.5t-85.5 14.5q-50 0 -93 -9t-66 -15q-8 -2 -15 -2.5t-11 4.5l-16 42q-5 11 -4.5 16t5.5 10q9 7 29.5 15.5t47.5 16t58.5 12.5t64.5 5
q75 0 139.5 -23t112 -69.5t74.5 -116t27 -163.5t-27 -163.5t-74.5 -116t-112 -69.5t-139.5 -23q-33 0 -64.5 5t-58.5 12.5t-47.5 16t-29.5 15.5q-5 5 -5.5 11t4.5 20z" />
    <glyph glyph-name="uni0189" unicode="&#x189;" horiz-adv-x="705" 
d="M130 0q-20 0 -20 20v299h-50q-20 0 -20 20v50q0 20 20 20h50v291q0 20 20 20h230q61 0 116.5 -26.5t97.5 -74t66.5 -113t24.5 -143.5t-26 -144t-70.5 -114.5t-104.5 -76t-128 -28.5h-206zM335 90q43 0 79.5 21t63 58.5t41 88t14.5 110.5q0 58 -16.5 106.5t-44.5 83
t-65.5 53.5t-79.5 19h-91v-221h154q20 0 20 -20v-50q0 -20 -20 -20h-154v-229h99z" />
    <glyph glyph-name="uni018B" unicode="&#x18b;" 
d="M269 0q-49 0 -91 17t-72.5 47.5t-48 71.5t-17.5 89q0 43 14 83.5t42.5 71.5t71 50t100.5 19h120v181h-277q-20 0 -20 20v50q0 20 20 20h383q20 0 20 -20v-680q0 -20 -20 -20h-225zM388 84v281h-86q-39 0 -65 -12.5t-42 -32.5t-22.5 -45t-6.5 -51t6 -51.5t21 -45
t41.5 -31.5t67.5 -12h86z" />
    <glyph glyph-name="uni018E" unicode="&#x18e;" horiz-adv-x="483" 
d="M70 0q-20 0 -20 20v50q0 20 20 20h247v229h-197q-20 0 -20 20v50q0 20 20 20h197v221h-247q-20 0 -20 20v50q0 20 20 20h353q20 0 20 -20v-680q0 -20 -20 -20h-353z" />
    <glyph glyph-name="uni0190" unicode="&#x190;" horiz-adv-x="567" 
d="M311 -11q-58 0 -107.5 16.5t-86 45.5t-57 68.5t-20.5 85.5q0 68 37.5 115t110.5 58v2q-55 22 -85 59t-30 91q0 46 17.5 83t50.5 63.5t80 40.5t106 14q28 0 55 -5t50 -12.5t40 -16t25 -15.5q5 -5 5.5 -10t-4.5 -16l-16 -42q-2 -6 -10 -5t-16 3q-19 6 -53.5 15t-75.5 9
q-67 0 -97.5 -29.5t-30.5 -78.5q0 -28 10.5 -50t28 -37.5t41 -23.5t49.5 -8h40q20 0 20 -20v-44q0 -20 -20 -20h-66q-39 0 -65 -10.5t-42 -28t-22.5 -39t-6.5 -43.5q0 -23 6.5 -44.5t23 -38t44.5 -27t72 -10.5q22 0 47 3t49 6.5t43 7.5t29 7q8 2 16 3t10 -5l16 -42
q5 -11 4.5 -16t-5.5 -10q-9 -7 -31 -15.5t-51.5 -16t-63 -12.5t-64.5 -5z" />
    <glyph glyph-name="uni0191" unicode="&#x191;" horiz-adv-x="483" 
d="M50 700q0 20 20 20h353q20 0 20 -20v-50q0 -20 -20 -20h-247v-221h197q20 0 20 -20v-50q0 -20 -20 -20h-197v-413q0 -79 -35 -117.5t-103 -38.5h-37q-20 0 -20 20v44q0 20 20 20h7q17 0 29.5 16t12.5 53v797z" />
    <glyph glyph-name="florin" unicode="&#x192;" horiz-adv-x="295" 
d="M82 441h-52q-20 0 -20 20v39q0 20 20 20h52v64q0 79 35 117.5t103 38.5h37q20 0 20 -20v-44q0 -20 -20 -20h-7q-17 0 -32.5 -16t-15.5 -53v-67h63q20 0 20 -20v-39q0 -20 -20 -20h-63v-535q0 -79 -35 -117.5t-103 -38.5h-37q-20 0 -20 20v44q0 20 20 20h7q17 0 32.5 16
t15.5 53v538z" />
    <glyph glyph-name="uni019E" unicode="&#x19e;" horiz-adv-x="536" 
d="M385 -200q-19 0 -19 20v482q0 29 -4.5 55.5t-15 46.5t-28 32t-43.5 12q-105 0 -105 -156v-272q0 -20 -20 -20h-80q-20 0 -20 20v480q0 20 20 20h50q11 0 14.5 -4.5t5.5 -15.5l10 -41h2q9 18 23.5 31.5t32.5 22.5t38 14t39 5q42 0 78.5 -13t63.5 -38t43 -61.5t16 -83.5
v-516q0 -20 -19 -20h-82z" />
    <glyph glyph-name="uni019F" unicode="&#x19f;" horiz-adv-x="786" 
d="M393 -12q-75 0 -139.5 23t-112 69.5t-74.5 116t-27 163.5t27 163.5t74.5 116t112 69.5t139.5 23t139.5 -23t112 -69.5t74.5 -116t27 -163.5t-27 -163.5t-74.5 -116t-112 -69.5t-139.5 -23zM393 83q42 0 79.5 12.5t67 41t48.5 73t24 109.5h-439q5 -65 24 -109.5t48.5 -73
t67.5 -41t80 -12.5zM393 637q-42 0 -79 -12.5t-66.5 -39.5t-48.5 -70.5t-25 -105.5h438q-6 62 -25.5 105.5t-48.5 70.5t-66.5 39.5t-78.5 12.5z" />
    <glyph glyph-name="Ohorn" unicode="&#x1a0;" horiz-adv-x="786" 
d="M393 -12q-75 0 -139.5 23t-112 69.5t-74.5 116t-27 163.5t27 163.5t74.5 116t112 69.5t139.5 23q90 0 163.5 -32.5t121.5 -98.5v1q25 0 38 30t13 73v25q0 10 10 10h63q10 0 10 -10v-39q0 -52 -30.5 -88t-78.5 -44q20 -41 31.5 -90t11.5 -109q0 -94 -27 -163.5t-74.5 -116
t-112 -69.5t-139.5 -23zM393 83q45 0 85 14.5t70.5 47.5t48 86t17.5 129t-17.5 129t-47.5 86t-70.5 47.5t-85.5 14.5t-85.5 -14.5t-70.5 -47.5t-47.5 -86t-17.5 -129t17.5 -129t48 -86t70.5 -47.5t85 -14.5z" />
    <glyph glyph-name="ohorn" unicode="&#x1a1;" 
d="M282 -12q-72 0 -119 21.5t-74 58t-38 86t-11 105.5t11 105.5t38 87t74 59.5t119 22q80 0 129 -26.5t75 -71.5v1q25 0 38 24t13 59v25q0 8 2.5 9t7.5 1h43q8 0 9 -2.5t1 -7.5v-39q0 -45 -26.5 -75.5t-68.5 -37.5q11 -29 15 -63t4 -69q0 -56 -11 -105.5t-38 -86.5
t-74 -58.5t-119 -21.5zM282 78q37 0 61 14.5t37.5 39t18.5 57.5t5 71q0 37 -5 70.5t-18.5 58.5t-37.5 39.5t-61 14.5q-38 0 -61.5 -14.5t-37 -39.5t-18.5 -58.5t-5 -70.5q0 -38 5 -71t18.5 -57.5t37 -39t61.5 -14.5z" />
    <glyph glyph-name="uni01A7" unicode="&#x1a7;" horiz-adv-x="555" 
d="M248 281q-38 -15 -65.5 -42t-27.5 -63q0 -42 39 -67.5t105 -25.5q22 0 47 3t49 6.5t43 7.5t29 7q8 2 16 3t10 -5l16 -42q5 -11 4.5 -16t-5.5 -10q-9 -7 -31 -15.5t-51.5 -16t-63 -12.5t-64.5 -5q-57 0 -105 14t-82 40t-53 62.5t-19 82.5q0 33 10.5 65t32 60.5t54 52
t75.5 39.5l96 36q51 20 68.5 43.5t17.5 50.5q0 16 -5.5 34t-20.5 33.5t-41 25.5t-66 10q-21 0 -45 -3t-46 -6.5t-40 -7.5t-28 -7q-8 -2 -16 -3t-10 5l-16 42q-5 12 -4.5 17t5.5 9q7 6 28 14t49.5 16t62 13.5t66.5 5.5q50 0 94 -14.5t77 -41.5t52.5 -66t19.5 -88
q0 -77 -45.5 -126t-118.5 -77z" />
    <glyph glyph-name="uni01A8" unicode="&#x1a8;" horiz-adv-x="474" 
d="M231 201q-22 -7 -37 -13t-24 -13t-13 -15.5t-4 -20.5t4 -24t15 -21.5t30.5 -15.5t50.5 -6q37 0 68 7.5t60 17.5q7 2 14.5 2.5t11.5 -4.5l21 -32q8 -13 -1 -26q-7 -10 -24.5 -19t-41.5 -15.5t-53.5 -10.5t-60.5 -4q-41 0 -79 10t-66.5 30.5t-45.5 50.5t-17 71
q0 58 24.5 95t89.5 56l117 34q21 6 30 19t9 30q0 29 -19.5 47t-64.5 18q-32 0 -60.5 -7.5t-55.5 -17.5q-7 -2 -15 -3.5t-11 5.5l-21 32q-8 11 -5.5 17t5.5 9q17 17 63.5 33t110.5 16q46 0 81 -12t58.5 -34t35.5 -51.5t12 -63.5q0 -50 -24.5 -89.5t-81.5 -55.5z" />
    <glyph glyph-name="Uhorn" unicode="&#x1af;" horiz-adv-x="636" 
d="M586 602q25 0 38 30t13 73v25q0 10 10 10h63q10 0 10 -10v-39q0 -29 -10.5 -53.5t-28.5 -42.5t-42.5 -28t-52.5 -10v-301q0 -58 -20 -107t-56 -85t-85.5 -56t-108.5 -20q-57 0 -106 20.5t-84.5 56.5t-55.5 85t-20 106v444q0 20 20 20h86q20 0 20 -20v-416q0 -42 9 -79.5
t27 -65.5t44.5 -44.5t61.5 -16.5q42 0 74 16t53.5 44t33 65.5t11.5 80.5v416q0 20 20 20h56q20 0 20 -20v-98z" />
    <glyph glyph-name="uhorn" unicode="&#x1b0;" horiz-adv-x="536" 
d="M416 0q-11 0 -14.5 4.5t-5.5 15.5l-10 41h-2q-9 -18 -23.5 -31.5t-32.5 -22.5t-38 -14t-39 -5q-42 0 -78.5 13t-63.5 38t-43 61.5t-16 83.5v316q0 20 19 20h82q19 0 19 -20v-282q0 -29 4.5 -55.5t15 -46.5t28 -32t43.5 -12q105 0 105 156v272q0 20 20 20h80q20 0 20 -20
v-64q25 0 38 24t13 59v25q0 8 2.5 9t7.5 1h43q8 0 9 -2.5t1 -7.5v-39q0 -24 -9 -45t-24 -36.5t-36 -24t-45 -8.5v-371q0 -20 -20 -20h-50z" />
    <glyph glyph-name="uni01C3" unicode="&#x1c3;" horiz-adv-x="220" 
d="M150 120q20 0 20 -20v-80q0 -20 -20 -20h-80q-20 0 -20 20v80q0 20 20 20h80zM150 740q20 0 20 -20v-480q0 -20 -20 -20h-80q-20 0 -20 20v480q0 20 20 20h80z" />
    <glyph glyph-name="uni01C7" unicode="&#x1c7;" horiz-adv-x="819" 
d="M443 20q0 -20 -20 -20h-353q-20 0 -20 20v680q0 20 20 20h86q20 0 20 -20v-610h247q20 0 20 -20v-50zM473 70q0 20 20 20h13q37 0 64.5 9.5t46 31.5t27.5 58.5t9 90.5v420q0 20 20 20h86q20 0 20 -20v-441q-2 -128 -69 -193.5t-181 -65.5q-17 0 -28.5 0.5t-9.5 0.5
q-18 1 -18 21v48z" />
    <glyph glyph-name="uni01C8" unicode="&#x1c8;" horiz-adv-x="683" 
d="M443 20q0 -20 -20 -20h-353q-20 0 -20 20v680q0 20 20 20h86q20 0 20 -20v-610h247q20 0 20 -20v-50zM533 620q-20 0 -20 20v80q0 20 20 20h80q20 0 20 -20v-80q0 -20 -20 -20h-80zM478 -220q-20 0 -20 20v44q0 20 20 20h7q10 0 19 18.5t9 60.5v557q0 20 20 20h80
q20 0 20 -20v-564q0 -79 -35 -117.5t-103 -38.5h-17z" />
    <glyph glyph-name="uni01C9" unicode="&#x1c9;" horiz-adv-x="446" 
d="M188 0q-68 0 -103 38.5t-35 117.5v564q0 20 20 20h80q20 0 20 -20v-557q0 -42 9 -60.5t19 -18.5h7q20 0 20 -20v-44q0 -20 -20 -20h-17zM296 620q-20 0 -20 20v80q0 20 20 20h80q20 0 20 -20v-80q0 -20 -20 -20h-80zM241 -220q-20 0 -20 20v44q0 20 20 20h7q10 0 19 18.5
t9 60.5v557q0 20 20 20h80q20 0 20 -20v-564q0 -79 -35 -117.5t-103 -38.5h-17z" />
    <glyph glyph-name="uni01CA" unicode="&#x1ca;" horiz-adv-x="992" 
d="M496 0q-22 0 -33 16l-305 488h-2l10 -204v-280q0 -20 -20 -20h-76q-20 0 -20 20v680q0 20 20 20h70q22 0 33 -16l305 -488h2l-10 204v280q0 20 20 20h76q20 0 20 -20v-680q0 -20 -20 -20h-70zM646 70q0 20 20 20h13q37 0 64.5 9.5t46 31.5t27.5 58.5t9 90.5v420
q0 20 20 20h86q20 0 20 -20v-441q-2 -128 -69 -193.5t-181 -65.5q-17 0 -28.5 0.5t-9.5 0.5q-18 1 -18 21v48z" />
    <glyph glyph-name="uni01CB" unicode="&#x1cb;" horiz-adv-x="856" 
d="M496 0q-22 0 -33 16l-305 488h-2l10 -204v-280q0 -20 -20 -20h-76q-20 0 -20 20v680q0 20 20 20h70q22 0 33 -16l305 -488h2l-10 204v280q0 20 20 20h76q20 0 20 -20v-680q0 -20 -20 -20h-70zM706 620q-20 0 -20 20v80q0 20 20 20h80q20 0 20 -20v-80q0 -20 -20 -20h-80z
M651 -220q-20 0 -20 20v44q0 20 20 20h7q10 0 19 18.5t9 60.5v557q0 20 20 20h80q20 0 20 -20v-564q0 -79 -35 -117.5t-103 -38.5h-17z" />
    <glyph glyph-name="uni01CC" unicode="&#x1cc;" horiz-adv-x="756" 
d="M385 0q-19 0 -19 20v282q0 29 -4.5 55.5t-15 46.5t-28 32t-43.5 12q-105 0 -105 -156v-272q0 -20 -20 -20h-80q-20 0 -20 20v480q0 20 20 20h50q11 0 14.5 -4.5t5.5 -15.5l10 -41h2q9 18 23.5 31.5t32.5 22.5t38 14t39 5q42 0 78.5 -13t63.5 -38t43 -61.5t16 -83.5v-316
q0 -20 -19 -20h-82zM606 620q-20 0 -20 20v80q0 20 20 20h80q20 0 20 -20v-80q0 -20 -20 -20h-80zM551 -220q-20 0 -20 20v44q0 20 20 20h7q10 0 19 18.5t9 60.5v557q0 20 20 20h80q20 0 20 -20v-564q0 -79 -35 -117.5t-103 -38.5h-17z" />
    <glyph glyph-name="uni01CD" unicode="&#x1cd;" horiz-adv-x="672" 
d="M552 0q-20 0 -27 19l-62 158h-284l-62 -158q-7 -19 -27 -19h-65q-9 0 -13 4.5t1 13.5l273 684q7 18 28 18h44q20 0 28 -18l273 -684q9 -18 -12 -18h-95zM341 520l-20 75l-19 -75l-90 -259h218zM336 864l62 62q14 14 34 14h34q20 0 8 -16l-72 -100q-12 -16 -32 -16h-68
q-20 0 -32 16l-72 100q-12 16 8 16h34q20 0 34 -14z" />
    <glyph glyph-name="uni01CE" unicode="&#x1ce;" horiz-adv-x="514" 
d="M404 0q-11 0 -14.5 4.5t-5.5 15.5l-10 41h-2q-20 -36 -56.5 -54.5t-87.5 -18.5q-38 0 -72 11t-60 33.5t-41 56.5t-15 80q0 48 16.5 79.5t45 50t66.5 26t81 7.5h103q-2 16 -7.5 36t-17.5 38t-32.5 30.5t-51.5 12.5q-24 0 -51.5 -7t-61.5 -18q-14 -5 -19 -3t-7 5l-21 32
q-9 14 1 26q7 8 24 17t40 16t51 11.5t58 4.5q65 0 107 -21.5t66.5 -58.5t34 -85t9.5 -102v-246q0 -20 -20 -20h-50zM354 248h-105q-40 0 -64 -20t-24 -56q0 -15 5 -32.5t16 -32.5t29 -25t45 -10q46 0 72 35t26 112v29zM257 664l62 62q14 14 34 14h34q20 0 8 -16l-72 -100
q-12 -16 -32 -16h-68q-20 0 -32 16l-72 100q-12 16 8 16h34q20 0 34 -14z" />
    <glyph glyph-name="uni01CF" unicode="&#x1cf;" horiz-adv-x="226" 
d="M70 0q-20 0 -20 20v680q0 20 20 20h86q20 0 20 -20v-680q0 -20 -20 -20h-86zM114 864l62 62q14 14 34 14h34q20 0 8 -16l-72 -100q-12 -16 -32 -16h-68q-20 0 -32 16l-72 100q-12 16 8 16h34q20 0 34 -14z" />
    <glyph glyph-name="uni01D0" unicode="&#x1d0;" horiz-adv-x="220" 
d="M70 0q-20 0 -20 20v480q0 20 20 20h80q20 0 20 -20v-480q0 -20 -20 -20h-80zM111 664l62 62q14 14 34 14h34q20 0 8 -16l-72 -100q-12 -16 -32 -16h-68q-20 0 -32 16l-72 100q-12 16 8 16h34q20 0 34 -14z" />
    <glyph glyph-name="uni01D1" unicode="&#x1d1;" horiz-adv-x="786" 
d="M393 -12q-75 0 -139.5 23t-112 69.5t-74.5 116t-27 163.5t27 163.5t74.5 116t112 69.5t139.5 23t139.5 -23t112 -69.5t74.5 -116t27 -163.5t-27 -163.5t-74.5 -116t-112 -69.5t-139.5 -23zM393 83q45 0 85 14.5t70.5 47.5t48 86t17.5 129t-17.5 129t-47.5 86t-70.5 47.5
t-85.5 14.5t-85.5 -14.5t-70.5 -47.5t-47.5 -86t-17.5 -129t17.5 -129t48 -86t70.5 -47.5t85 -14.5zM393 864l62 62q14 14 34 14h34q20 0 8 -16l-72 -100q-12 -16 -32 -16h-68q-20 0 -32 16l-72 100q-12 16 8 16h34q20 0 34 -14z" />
    <glyph glyph-name="uni01D2" unicode="&#x1d2;" 
d="M282 -12q-72 0 -119 21.5t-74 58t-38 86t-11 105.5t11 105.5t38 87t74 59.5t119 22t119 -22t74 -59t38 -87t11 -105q0 -56 -11 -105.5t-38 -86.5t-74 -58.5t-119 -21.5zM282 78q37 0 61 14.5t37.5 39t18.5 57.5t5 71q0 37 -5 70.5t-18.5 58.5t-37.5 39.5t-61 14.5
q-38 0 -61.5 -14.5t-37 -39.5t-18.5 -58.5t-5 -70.5q0 -38 5 -71t18.5 -57.5t37 -39t61.5 -14.5zM282 664l62 62q14 14 34 14h34q20 0 8 -16l-72 -100q-12 -16 -32 -16h-68q-20 0 -32 16l-72 100q-12 16 8 16h34q20 0 34 -14z" />
    <glyph glyph-name="uni01D3" unicode="&#x1d3;" horiz-adv-x="636" 
d="M490 700q0 20 20 20h56q20 0 20 -20v-444q0 -58 -20 -107t-56 -85t-85.5 -56t-108.5 -20q-57 0 -106 20.5t-84.5 56.5t-55.5 85t-20 106v444q0 20 20 20h86q20 0 20 -20v-416q0 -42 9 -79.5t27 -65.5t44.5 -44.5t61.5 -16.5q42 0 74 16t53.5 44t33 65.5t11.5 80.5v416z
M318 864l62 62q14 14 34 14h34q20 0 8 -16l-72 -100q-12 -16 -32 -16h-68q-20 0 -32 16l-72 100q-12 16 8 16h34q20 0 34 -14z" />
    <glyph glyph-name="uni01D4" unicode="&#x1d4;" horiz-adv-x="536" 
d="M416 0q-11 0 -14.5 4.5t-5.5 15.5l-10 41h-2q-9 -18 -23.5 -31.5t-32.5 -22.5t-38 -14t-39 -5q-42 0 -78.5 13t-63.5 38t-43 61.5t-16 83.5v316q0 20 19 20h82q19 0 19 -20v-282q0 -29 4.5 -55.5t15 -46.5t28 -32t43.5 -12q105 0 105 156v272q0 20 20 20h80q20 0 20 -20
v-480q0 -20 -20 -20h-50zM268 664l62 62q14 14 34 14h34q20 0 8 -16l-72 -100q-12 -16 -32 -16h-68q-20 0 -32 16l-72 100q-12 16 8 16h34q20 0 34 -14z" />
    <glyph glyph-name="uni01D5" unicode="&#x1d5;" horiz-adv-x="636" 
d="M490 700q0 20 20 20h56q20 0 20 -20v-444q0 -58 -20 -107t-56 -85t-85.5 -56t-108.5 -20q-57 0 -106 20.5t-84.5 56.5t-55.5 85t-20 106v444q0 20 20 20h86q20 0 20 -20v-416q0 -42 9 -79.5t27 -65.5t44.5 -44.5t61.5 -16.5q42 0 74 16t53.5 44t33 65.5t11.5 80.5v416z
M188 810q-20 0 -20 20v70q0 20 20 20h70q20 0 20 -20v-70q0 -20 -20 -20h-70zM378 810q-20 0 -20 20v70q0 20 20 20h70q20 0 20 -20v-70q0 -20 -20 -20h-70zM163 980q-20 0 -20 20v30q0 20 20 20h310q20 0 20 -20v-30q0 -20 -20 -20h-310z" />
    <glyph glyph-name="uni01D6" unicode="&#x1d6;" horiz-adv-x="536" 
d="M416 0q-11 0 -14.5 4.5t-5.5 15.5l-10 41h-2q-9 -18 -23.5 -31.5t-32.5 -22.5t-38 -14t-39 -5q-42 0 -78.5 13t-63.5 38t-43 61.5t-16 83.5v316q0 20 19 20h82q19 0 19 -20v-282q0 -29 4.5 -55.5t15 -46.5t28 -32t43.5 -12q105 0 105 156v272q0 20 20 20h80q20 0 20 -20
v-480q0 -20 -20 -20h-50zM138 610q-20 0 -20 20v70q0 20 20 20h70q20 0 20 -20v-70q0 -20 -20 -20h-70zM328 610q-20 0 -20 20v70q0 20 20 20h70q20 0 20 -20v-70q0 -20 -20 -20h-70zM113 780q-20 0 -20 20v30q0 20 20 20h310q20 0 20 -20v-30q0 -20 -20 -20h-310z" />
    <glyph glyph-name="uni01D7" unicode="&#x1d7;" horiz-adv-x="636" 
d="M490 700q0 20 20 20h56q20 0 20 -20v-444q0 -58 -20 -107t-56 -85t-85.5 -56t-108.5 -20q-57 0 -106 20.5t-84.5 56.5t-55.5 85t-20 106v444q0 20 20 20h86q20 0 20 -20v-416q0 -42 9 -79.5t27 -65.5t44.5 -44.5t61.5 -16.5q42 0 74 16t53.5 44t33 65.5t11.5 80.5v416z
M188 810q-20 0 -20 20v70q0 20 20 20h70q20 0 20 -20v-70q0 -20 -20 -20h-70zM378 810q-20 0 -20 20v70q0 20 20 20h70q20 0 20 -20v-70q0 -20 -20 -20h-70zM352 1073q11 17 31 17h91q20 0 5 -14l-111 -104q-15 -14 -35 -14h-31q-20 0 -10 17z" />
    <glyph glyph-name="uni01D8" unicode="&#x1d8;" horiz-adv-x="536" 
d="M416 0q-11 0 -14.5 4.5t-5.5 15.5l-10 41h-2q-9 -18 -23.5 -31.5t-32.5 -22.5t-38 -14t-39 -5q-42 0 -78.5 13t-63.5 38t-43 61.5t-16 83.5v316q0 20 19 20h82q19 0 19 -20v-282q0 -29 4.5 -55.5t15 -46.5t28 -32t43.5 -12q105 0 105 156v272q0 20 20 20h80q20 0 20 -20
v-480q0 -20 -20 -20h-50zM138 610q-20 0 -20 20v70q0 20 20 20h70q20 0 20 -20v-70q0 -20 -20 -20h-70zM328 610q-20 0 -20 20v70q0 20 20 20h70q20 0 20 -20v-70q0 -20 -20 -20h-70zM303 873q11 17 31 17h91q20 0 5 -14l-111 -104q-15 -14 -35 -14h-31q-20 0 -10 17z" />
    <glyph glyph-name="uni01D9" unicode="&#x1d9;" horiz-adv-x="636" 
d="M490 700q0 20 20 20h56q20 0 20 -20v-444q0 -58 -20 -107t-56 -85t-85.5 -56t-108.5 -20q-57 0 -106 20.5t-84.5 56.5t-55.5 85t-20 106v444q0 20 20 20h86q20 0 20 -20v-416q0 -42 9 -79.5t27 -65.5t44.5 -44.5t61.5 -16.5q42 0 74 16t53.5 44t33 65.5t11.5 80.5v416z
M188 810q-20 0 -20 20v70q0 20 20 20h70q20 0 20 -20v-70q0 -20 -20 -20h-70zM378 810q-20 0 -20 20v70q0 20 20 20h70q20 0 20 -20v-70q0 -20 -20 -20h-70zM318 1014l62 62q14 14 34 14h34q20 0 8 -16l-72 -100q-12 -16 -32 -16h-68q-20 0 -32 16l-72 100q-12 16 8 16h34
q20 0 34 -14z" />
    <glyph glyph-name="uni01DA" unicode="&#x1da;" horiz-adv-x="536" 
d="M416 0q-11 0 -14.5 4.5t-5.5 15.5l-10 41h-2q-9 -18 -23.5 -31.5t-32.5 -22.5t-38 -14t-39 -5q-42 0 -78.5 13t-63.5 38t-43 61.5t-16 83.5v316q0 20 19 20h82q19 0 19 -20v-282q0 -29 4.5 -55.5t15 -46.5t28 -32t43.5 -12q105 0 105 156v272q0 20 20 20h80q20 0 20 -20
v-480q0 -20 -20 -20h-50zM138 610q-20 0 -20 20v70q0 20 20 20h70q20 0 20 -20v-70q0 -20 -20 -20h-70zM328 610q-20 0 -20 20v70q0 20 20 20h70q20 0 20 -20v-70q0 -20 -20 -20h-70zM268 814l62 62q14 14 34 14h34q20 0 8 -16l-72 -100q-12 -16 -32 -16h-68q-20 0 -32 16
l-72 100q-12 16 8 16h34q20 0 34 -14z" />
    <glyph glyph-name="uni01DB" unicode="&#x1db;" horiz-adv-x="636" 
d="M490 700q0 20 20 20h56q20 0 20 -20v-444q0 -58 -20 -107t-56 -85t-85.5 -56t-108.5 -20q-57 0 -106 20.5t-84.5 56.5t-55.5 85t-20 106v444q0 20 20 20h86q20 0 20 -20v-416q0 -42 9 -79.5t27 -65.5t44.5 -44.5t61.5 -16.5q42 0 74 16t53.5 44t33 65.5t11.5 80.5v416z
M188 810q-20 0 -20 20v70q0 20 20 20h70q20 0 20 -20v-70q0 -20 -20 -20h-70zM378 810q-20 0 -20 20v70q0 20 20 20h70q20 0 20 -20v-70q0 -20 -20 -20h-70zM344 975q10 -17 -10 -17h-31q-20 0 -35 14l-111 104q-15 14 5 14h91q20 0 31 -17z" />
    <glyph glyph-name="uni01DC" unicode="&#x1dc;" horiz-adv-x="536" 
d="M416 0q-11 0 -14.5 4.5t-5.5 15.5l-10 41h-2q-9 -18 -23.5 -31.5t-32.5 -22.5t-38 -14t-39 -5q-42 0 -78.5 13t-63.5 38t-43 61.5t-16 83.5v316q0 20 19 20h82q19 0 19 -20v-282q0 -29 4.5 -55.5t15 -46.5t28 -32t43.5 -12q105 0 105 156v272q0 20 20 20h80q20 0 20 -20
v-480q0 -20 -20 -20h-50zM138 610q-20 0 -20 20v70q0 20 20 20h70q20 0 20 -20v-70q0 -20 -20 -20h-70zM328 610q-20 0 -20 20v70q0 20 20 20h70q20 0 20 -20v-70q0 -20 -20 -20h-70zM295 775q10 -17 -10 -17h-31q-20 0 -35 14l-111 104q-15 14 5 14h91q20 0 31 -17z" />
    <glyph glyph-name="uni01DD" unicode="&#x1dd;" horiz-adv-x="516" 
d="M63 458q-9 14 1 26q7 8 23.5 17t40 16t52.5 11.5t61 4.5q69 0 114.5 -22t72.5 -59t37.5 -85.5t10.5 -100.5q0 -58 -12 -108.5t-38.5 -88t-68.5 -59.5t-103 -22q-45 0 -84.5 13t-68 40t-45 67.5t-16.5 94.5q0 29 5.5 48t18 30.5t33.5 16.5t52 5h205q-3 31 -10.5 58
t-22.5 46.5t-37.5 30.5t-55.5 11q-29 0 -58 -7.5t-60 -17.5q-15 -5 -19.5 -3t-6.5 5zM200 219q-23 0 -31 -5.5t-8 -28.5q0 -22 6.5 -42.5t18 -36t27.5 -25t36 -9.5q27 0 46 12t31.5 32t19 46.5t8.5 56.5h-154z" />
    <glyph glyph-name="uni01DE" unicode="&#x1de;" horiz-adv-x="672" 
d="M552 0q-20 0 -27 19l-62 158h-284l-62 -158q-7 -19 -27 -19h-65q-9 0 -13 4.5t1 13.5l273 684q7 18 28 18h44q20 0 28 -18l273 -684q9 -18 -12 -18h-95zM341 520l-20 75l-19 -75l-90 -259h218zM206 810q-20 0 -20 20v70q0 20 20 20h70q20 0 20 -20v-70q0 -20 -20 -20h-70
zM396 810q-20 0 -20 20v70q0 20 20 20h70q20 0 20 -20v-70q0 -20 -20 -20h-70zM181 980q-20 0 -20 20v30q0 20 20 20h310q20 0 20 -20v-30q0 -20 -20 -20h-310z" />
    <glyph glyph-name="uni01DF" unicode="&#x1df;" horiz-adv-x="514" 
d="M404 0q-11 0 -14.5 4.5t-5.5 15.5l-10 41h-2q-20 -36 -56.5 -54.5t-87.5 -18.5q-38 0 -72 11t-60 33.5t-41 56.5t-15 80q0 48 16.5 79.5t45 50t66.5 26t81 7.5h103q-2 16 -7.5 36t-17.5 38t-32.5 30.5t-51.5 12.5q-24 0 -51.5 -7t-61.5 -18q-14 -5 -19 -3t-7 5l-21 32
q-9 14 1 26q7 8 24 17t40 16t51 11.5t58 4.5q65 0 107 -21.5t66.5 -58.5t34 -85t9.5 -102v-246q0 -20 -20 -20h-50zM354 248h-105q-40 0 -64 -20t-24 -56q0 -15 5 -32.5t16 -32.5t29 -25t45 -10q46 0 72 35t26 112v29zM127 610q-20 0 -20 20v70q0 20 20 20h70q20 0 20 -20
v-70q0 -20 -20 -20h-70zM317 610q-20 0 -20 20v70q0 20 20 20h70q20 0 20 -20v-70q0 -20 -20 -20h-70zM102 780q-20 0 -20 20v30q0 20 20 20h310q20 0 20 -20v-30q0 -20 -20 -20h-310z" />
    <glyph glyph-name="uni01E0" unicode="&#x1e0;" horiz-adv-x="672" 
d="M552 0q-20 0 -27 19l-62 158h-284l-62 -158q-7 -19 -27 -19h-65q-9 0 -13 4.5t1 13.5l273 684q7 18 28 18h44q20 0 28 -18l273 -684q9 -18 -12 -18h-95zM341 520l-20 75l-19 -75l-90 -259h218zM296 820q-20 0 -20 20v80q0 20 20 20h80q20 0 20 -20v-80q0 -20 -20 -20h-80
zM181 980q-20 0 -20 20v30q0 20 20 20h310q20 0 20 -20v-30q0 -20 -20 -20h-310z" />
    <glyph glyph-name="uni01E1" unicode="&#x1e1;" horiz-adv-x="514" 
d="M404 0q-11 0 -14.5 4.5t-5.5 15.5l-10 41h-2q-20 -36 -56.5 -54.5t-87.5 -18.5q-38 0 -72 11t-60 33.5t-41 56.5t-15 80q0 48 16.5 79.5t45 50t66.5 26t81 7.5h103q-2 16 -7.5 36t-17.5 38t-32.5 30.5t-51.5 12.5q-24 0 -51.5 -7t-61.5 -18q-14 -5 -19 -3t-7 5l-21 32
q-9 14 1 26q7 8 24 17t40 16t51 11.5t58 4.5q65 0 107 -21.5t66.5 -58.5t34 -85t9.5 -102v-246q0 -20 -20 -20h-50zM354 248h-105q-40 0 -64 -20t-24 -56q0 -15 5 -32.5t16 -32.5t29 -25t45 -10q46 0 72 35t26 112v29zM217 620q-20 0 -20 20v80q0 20 20 20h80q20 0 20 -20
v-80q0 -20 -20 -20h-80zM102 780q-20 0 -20 20v30q0 20 20 20h310q20 0 20 -20v-30q0 -20 -20 -20h-310z" />
    <glyph glyph-name="uni01E2" unicode="&#x1e2;" horiz-adv-x="717" 
d="M354 0q-20 0 -20 20v157h-155l-62 -158q-7 -19 -27 -19h-65q-20 0 -12 18l273 684q7 18 28 18h343q20 0 20 -20v-50q0 -20 -20 -20h-197v-221h147q20 0 20 -20v-50q0 -20 -20 -20h-147v-229h197q20 0 20 -20v-50q0 -20 -20 -20h-303zM212 261h122v334h-13l-19 -75z
M203 830q-20 0 -20 20v30q0 20 20 20h310q20 0 20 -20v-30q0 -20 -20 -20h-310z" />
    <glyph glyph-name="uni01E3" unicode="&#x1e3;" horiz-adv-x="826" 
d="M585 -12q-65 0 -108.5 19t-70.5 51q-27 -32 -70.5 -51t-107.5 -19q-38 0 -72 11t-60 33.5t-41 56.5t-15 80q0 48 16.5 79.5t45 50t66.5 26t81 7.5h103q-2 16 -7.5 36t-17.5 38t-32.5 30.5t-51.5 12.5q-24 0 -51.5 -7t-61.5 -18q-14 -5 -19 -3t-7 5l-21 32q-9 14 1 26
q7 8 24 17t40 16t51 11.5t58 4.5q57 0 95 -16.5t64 -45.5q26 29 64.5 45.5t91.5 16.5q45 0 84.5 -13t68 -40t45 -67.5t16.5 -94.5q0 -29 -5.5 -48t-18 -30.5t-33.5 -16.5t-52 -5h-205q3 -32 10.5 -58.5t22.5 -46t37.5 -30.5t55.5 -11q29 0 58 7.5t60 17.5q15 5 19.5 3
t6.5 -5l21 -32q9 -14 -1 -26q-7 -8 -23.5 -17t-40 -16t-52.5 -11.5t-61 -4.5zM354 248h-105q-40 0 -64 -20t-24 -56q0 -15 5 -32.5t16 -32.5t29 -25t45 -10q46 0 72 35t26 112v29zM626 302q23 0 31 5.5t8 28.5q0 22 -6.5 42.5t-18 36t-27.5 25t-36 9.5q-27 0 -46 -12
t-31.5 -32t-19 -46.5t-8.5 -56.5h154zM258 630q-20 0 -20 20v30q0 20 20 20h310q20 0 20 -20v-30q0 -20 -20 -20h-310z" />
    <glyph glyph-name="uni01E4" unicode="&#x1e4;" horiz-adv-x="701" 
d="M598 180v-129q1 -9 -5 -14q-9 -7 -29.5 -15.5t-47.5 -16t-58.5 -12.5t-64.5 -5q-75 0 -139.5 23t-112 69.5t-74.5 116t-27 163.5t27 163.5t74.5 116t112 69.5t139.5 23q33 0 64.5 -5t58.5 -12.5t47.5 -16t29.5 -15.5q5 -5 5.5 -10t-4.5 -16l-16 -37q-4 -5 -11 -4.5
t-15 2.5q-23 6 -66 15t-93 9q-45 0 -85.5 -15t-70.5 -48.5t-47.5 -87t-17.5 -131.5t17.5 -131.5t48 -87t70.5 -48.5t85 -15q41 0 79 6v96h-117q-20 0 -20 20v30q0 20 20 20h117v69h-88q-20 0 -20 20v50q0 20 20 20h194q20 0 20 -20v-139h67q20 0 20 -20v-30q0 -20 -20 -20
h-67z" />
    <glyph glyph-name="uni01E5" unicode="&#x1e5;" horiz-adv-x="581" 
d="M499 -110q-30 -57 -83.5 -88t-123.5 -31q-32 0 -65 5t-62.5 12.5t-51.5 16t-31 15.5q-5 5 -5.5 10t4.5 16l16 42q2 6 10 5t16 -3q10 -3 29 -7t43 -7.5t49 -6.5t47 -3q39 0 69 24h-88q-20 0 -20 20v30q0 20 20 20h131q8 29 8 59v42h-2q-19 -29 -54.5 -51t-99.5 -22
q-44 0 -83 13.5t-68 45.5t-46.5 84.5t-17.5 130.5q0 77 17 129t46 83.5t67.5 45t81.5 13.5q57 0 101.5 -18t75.5 -57h2l10 42q2 11 5.5 15.5t14.5 4.5h50q20 0 20 -20v-470q0 -19 -2 -36t-5 -34h58q20 0 20 -20v-30q0 -20 -20 -20h-83zM272 72q66 0 102.5 44t36.5 146
q0 100 -35.5 143.5t-102.5 43.5q-27 0 -48.5 -8t-35.5 -29t-21.5 -57t-7.5 -93q0 -59 8 -96t22.5 -58t35 -28.5t46.5 -7.5z" />
    <glyph glyph-name="Gcaron" unicode="&#x1e6;" horiz-adv-x="649" 
d="M472 319h-88q-20 0 -20 20v50q0 20 20 20h194q20 0 20 -20v-338q1 -9 -5 -14q-9 -7 -29.5 -15.5t-47.5 -16t-58.5 -12.5t-64.5 -5q-75 0 -139.5 23t-112 69.5t-74.5 116t-27 163.5t27 163.5t74.5 116t112 69.5t139.5 23q33 0 64.5 -5t58.5 -12.5t47.5 -16t29.5 -15.5
q5 -5 5.5 -10t-4.5 -16l-16 -37q-4 -5 -11 -4.5t-15 2.5q-23 6 -66 15t-93 9q-45 0 -85.5 -15t-70.5 -48.5t-47.5 -87t-17.5 -131.5t17.5 -131.5t48 -87t70.5 -48.5t85 -15q41 0 79 6v235zM376 864l62 62q14 14 34 14h34q20 0 8 -16l-72 -100q-12 -16 -32 -16h-68
q-20 0 -32 16l-72 100q-12 16 8 16h34q20 0 34 -14z" />
    <glyph glyph-name="gcaron" unicode="&#x1e7;" horiz-adv-x="581" 
d="M411 61h-2q-19 -29 -54.5 -51t-99.5 -22q-44 0 -83 13.5t-68 45.5t-46.5 84.5t-17.5 130.5q0 77 17 129t46 83.5t67.5 45t81.5 13.5q57 0 101.5 -18t75.5 -57h2l10 42q2 11 5.5 15.5t14.5 4.5h50q20 0 20 -20v-470q0 -59 -17.5 -107t-49 -82t-75.5 -52t-97 -18
q-32 0 -65 5t-62.5 12.5t-51.5 16t-31 15.5q-5 5 -5.5 10t4.5 16l16 42q2 6 10 5t16 -3q10 -3 29 -7t43 -7.5t49 -6.5t47 -3q27 0 49 11t38 31.5t24.5 48.5t8.5 62v42zM272 72q66 0 102.5 44t36.5 146q0 100 -35.5 143.5t-102.5 43.5q-27 0 -48.5 -8t-35.5 -29t-21.5 -57
t-7.5 -93q0 -59 8 -96t22.5 -58t35 -28.5t46.5 -7.5zM276 664l62 62q14 14 34 14h34q20 0 8 -16l-72 -100q-12 -16 -32 -16h-68q-20 0 -32 16l-72 100q-12 16 8 16h34q20 0 34 -14z" />
    <glyph glyph-name="uni01E8" unicode="&#x1e8;" horiz-adv-x="637" 
d="M449 0q-20 0 -32 16l-241 311v-307q0 -20 -20 -20h-86q-20 0 -20 20v680q0 20 20 20h86q20 0 20 -20v-308l248 312q12 16 32 16h103q20 0 8 -16l-279 -335l287 -353q12 -16 -8 -16h-118zM297 864l62 62q14 14 34 14h34q20 0 8 -16l-72 -100q-12 -16 -32 -16h-68
q-20 0 -32 16l-72 100q-12 16 8 16h34q20 0 34 -14z" />
    <glyph glyph-name="uni01E9" unicode="&#x1e9;" horiz-adv-x="487" 
d="M365 0q-20 0 -32 16l-164 211v-207q0 -20 -20 -20h-79q-20 0 -20 20v700q0 20 20 20h79q20 0 20 -20v-428l168 212q12 16 32 16h83q22 0 8 -16l-199 -235l210 -253q14 -16 -8 -16h-98zM243 864l62 62q14 14 34 14h34q20 0 8 -16l-72 -100q-12 -16 -32 -16h-68
q-20 0 -32 16l-72 100q-12 16 8 16h34q20 0 34 -14z" />
    <glyph glyph-name="uni01EA" unicode="&#x1ea;" horiz-adv-x="786" 
d="M393 -12q-75 0 -139.5 23t-112 69.5t-74.5 116t-27 163.5t27 163.5t74.5 116t112 69.5t139.5 23t139.5 -23t112 -69.5t74.5 -116t27 -163.5q0 -78 -19 -140t-53.5 -107t-82 -73.5t-104.5 -41.5l-35 -56q-15 -25 -15 -43q0 -21 20 -21q5 0 8.5 2.5t7.5 4.5q9 8 15 2.5
t9 -13.5l4 -10l4 -10q3 -11 -0.5 -13.5t-12.5 -10.5q-7 -5 -25 -14.5t-42 -11.5q-38 2 -58 19t-20 52q0 16 6 39t23 46l20 28h-3zM393 83q45 0 85 14.5t70.5 47.5t48 86t17.5 129t-17.5 129t-47.5 86t-70.5 47.5t-85.5 14.5t-85.5 -14.5t-70.5 -47.5t-47.5 -86t-17.5 -129
t17.5 -129t48 -86t70.5 -47.5t85 -14.5z" />
    <glyph glyph-name="uni01EB" unicode="&#x1eb;" 
d="M524 260q0 -46 -7 -87.5t-24.5 -75.5t-46.5 -59t-73 -38l-37 -58q-15 -25 -15 -43q0 -21 20 -21q5 0 8.5 2.5t7.5 4.5q9 8 15 2.5t9 -13.5l4 -10l4 -10q3 -11 -0.5 -13.5t-12.5 -10.5q-7 -5 -25 -14.5t-42 -11.5q-38 2 -58 19t-20 52q0 16 6 39t23 46l20 28
q-71 0 -117.5 21.5t-73.5 58.5t-38 86t-11 105t11 105.5t38 87t74 59.5t119 22t119 -22t74 -59t38 -87t11 -105zM282 78q37 0 61 14.5t37.5 39t18.5 57.5t5 71q0 37 -5 70.5t-18.5 58.5t-37.5 39.5t-61 14.5q-38 0 -61.5 -14.5t-37 -39.5t-18.5 -58.5t-5 -70.5q0 -38 5 -71
t18.5 -57.5t37 -39t61.5 -14.5z" />
    <glyph glyph-name="uni01EC" unicode="&#x1ec;" horiz-adv-x="786" 
d="M393 -12q-75 0 -139.5 23t-112 69.5t-74.5 116t-27 163.5t27 163.5t74.5 116t112 69.5t139.5 23t139.5 -23t112 -69.5t74.5 -116t27 -163.5q0 -78 -19 -140t-53.5 -107t-82 -73.5t-104.5 -41.5l-35 -56q-15 -25 -15 -43q0 -21 20 -21q5 0 8.5 2.5t7.5 4.5q9 8 15 2.5
t9 -13.5l4 -10l4 -10q3 -11 -0.5 -13.5t-12.5 -10.5q-7 -5 -25 -14.5t-42 -11.5q-38 2 -58 19t-20 52q0 16 6 39t23 46l20 28h-3zM393 83q45 0 85 14.5t70.5 47.5t48 86t17.5 129t-17.5 129t-47.5 86t-70.5 47.5t-85.5 14.5t-85.5 -14.5t-70.5 -47.5t-47.5 -86t-17.5 -129
t17.5 -129t48 -86t70.5 -47.5t85 -14.5zM238 830q-20 0 -20 20v30q0 20 20 20h310q20 0 20 -20v-30q0 -20 -20 -20h-310z" />
    <glyph glyph-name="uni01ED" unicode="&#x1ed;" 
d="M524 260q0 -46 -7 -87.5t-24.5 -75.5t-46.5 -59t-73 -38l-37 -58q-15 -25 -15 -43q0 -21 20 -21q5 0 8.5 2.5t7.5 4.5q9 8 15 2.5t9 -13.5l4 -10l4 -10q3 -11 -0.5 -13.5t-12.5 -10.5q-7 -5 -25 -14.5t-42 -11.5q-38 2 -58 19t-20 52q0 16 6 39t23 46l20 28
q-71 0 -117.5 21.5t-73.5 58.5t-38 86t-11 105t11 105.5t38 87t74 59.5t119 22t119 -22t74 -59t38 -87t11 -105zM282 78q37 0 61 14.5t37.5 39t18.5 57.5t5 71q0 37 -5 70.5t-18.5 58.5t-37.5 39.5t-61 14.5q-38 0 -61.5 -14.5t-37 -39.5t-18.5 -58.5t-5 -70.5q0 -38 5 -71
t18.5 -57.5t37 -39t61.5 -14.5zM127 630q-20 0 -20 20v30q0 20 20 20h310q20 0 20 -20v-30q0 -20 -20 -20h-310z" />
    <glyph glyph-name="uni01F0" unicode="&#x1f0;" horiz-adv-x="220" 
d="M15 -220q-20 0 -20 20v44q0 20 20 20h7q10 0 19 18.5t9 60.5v557q0 20 20 20h80q20 0 20 -20v-564q0 -79 -35 -117.5t-103 -38.5h-17zM111 664l62 62q14 14 34 14h34q20 0 8 -16l-72 -100q-12 -16 -32 -16h-68q-20 0 -32 16l-72 100q-12 16 8 16h34q20 0 34 -14z" />
    <glyph glyph-name="uni01F1" unicode="&#x1f1;" horiz-adv-x="1131" 
d="M70 0q-20 0 -20 20v680q0 20 20 20h230q61 0 116.5 -26.5t97.5 -74t66.5 -113t24.5 -143.5t-26 -144t-70.5 -114.5t-104.5 -76t-128 -28.5h-206zM275 90q43 0 79.5 21t63 58.5t41 88t14.5 110.5q0 58 -16.5 106.5t-44.5 83t-65.5 53.5t-79.5 19h-91v-540h99zM675 0
q-20 0 -20 20v36q0 19 10 38l303 536h-287q-20 0 -20 20v50q0 20 20 20h412q20 0 20 -20v-36q0 -19 -10 -38l-302 -536h300q20 0 20 -20v-50q0 -20 -20 -20h-426z" />
    <glyph glyph-name="uni01F2" unicode="&#x1f2;" horiz-adv-x="1071" 
d="M70 0q-20 0 -20 20v680q0 20 20 20h230q61 0 116.5 -26.5t97.5 -74t66.5 -113t24.5 -143.5t-26 -144t-70.5 -114.5t-104.5 -76t-128 -28.5h-206zM275 90q43 0 79.5 21t63 58.5t41 88t14.5 110.5q0 58 -16.5 106.5t-44.5 83t-65.5 53.5t-79.5 19h-91v-540h99zM695 0
q-20 0 -20 20v36q0 19 10 38l210 347h-194q-20 0 -20 20v39q0 20 20 20h312q20 0 20 -20v-36q0 -19 -10 -38l-209 -347h207q20 0 20 -20v-39q0 -20 -20 -20h-326z" />
    <glyph glyph-name="uni01F3" unicode="&#x1f3;" horiz-adv-x="1007" 
d="M461 0q-11 0 -14.5 4.5t-5.5 15.5l-10 42h-2q-31 -39 -75.5 -57t-101.5 -18q-43 0 -81.5 13.5t-67.5 45t-46 83.5t-17 129q0 78 17.5 130.5t46.5 84.5t68 45.5t83 13.5q64 0 99.5 -22t54.5 -51h2v261q0 20 20 20h80q20 0 20 -20v-700q0 -20 -20 -20h-50zM273 71
q67 0 102.5 43.5t35.5 143.5q0 102 -36.5 146t-102.5 44q-26 0 -46.5 -8t-35 -29t-22.5 -58t-8 -95q0 -57 7.5 -93t21.5 -57t35.5 -29t48.5 -8zM631 0q-20 0 -20 20v36q0 19 10 38l210 347h-194q-20 0 -20 20v39q0 20 20 20h312q20 0 20 -20v-36q0 -19 -10 -38l-209 -347
h207q20 0 20 -20v-39q0 -20 -20 -20h-326z" />
    <glyph glyph-name="uni01F4" unicode="&#x1f4;" horiz-adv-x="649" 
d="M472 319h-88q-20 0 -20 20v50q0 20 20 20h194q20 0 20 -20v-338q1 -9 -5 -14q-9 -7 -29.5 -15.5t-47.5 -16t-58.5 -12.5t-64.5 -5q-75 0 -139.5 23t-112 69.5t-74.5 116t-27 163.5t27 163.5t74.5 116t112 69.5t139.5 23q33 0 64.5 -5t58.5 -12.5t47.5 -16t29.5 -15.5
q5 -5 5.5 -10t-4.5 -16l-16 -37q-4 -5 -11 -4.5t-15 2.5q-23 6 -66 15t-93 9q-45 0 -85.5 -15t-70.5 -48.5t-47.5 -87t-17.5 -131.5t17.5 -131.5t48 -87t70.5 -48.5t85 -15q41 0 79 6v235zM388 923q11 17 31 17h91q20 0 5 -14l-111 -104q-15 -14 -35 -14h-31q-20 0 -10 17z
" />
    <glyph glyph-name="uni01F5" unicode="&#x1f5;" horiz-adv-x="581" 
d="M411 61h-2q-19 -29 -54.5 -51t-99.5 -22q-44 0 -83 13.5t-68 45.5t-46.5 84.5t-17.5 130.5q0 77 17 129t46 83.5t67.5 45t81.5 13.5q57 0 101.5 -18t75.5 -57h2l10 42q2 11 5.5 15.5t14.5 4.5h50q20 0 20 -20v-470q0 -59 -17.5 -107t-49 -82t-75.5 -52t-97 -18
q-32 0 -65 5t-62.5 12.5t-51.5 16t-31 15.5q-5 5 -5.5 10t4.5 16l16 42q2 6 10 5t16 -3q10 -3 29 -7t43 -7.5t49 -6.5t47 -3q27 0 49 11t38 31.5t24.5 48.5t8.5 62v42zM272 72q66 0 102.5 44t36.5 146q0 100 -35.5 143.5t-102.5 43.5q-27 0 -48.5 -8t-35.5 -29t-21.5 -57
t-7.5 -93q0 -59 8 -96t22.5 -58t35 -28.5t46.5 -7.5zM299 723q11 17 31 17h91q20 0 5 -14l-111 -104q-15 -14 -35 -14h-31q-20 0 -10 17z" />
    <glyph glyph-name="uni01F8" unicode="&#x1f8;" horiz-adv-x="636" 
d="M496 0q-22 0 -33 16l-305 488h-2l10 -204v-280q0 -20 -20 -20h-76q-20 0 -20 20v680q0 20 20 20h70q22 0 33 -16l305 -488h2l-10 204v280q0 20 20 20h76q20 0 20 -20v-680q0 -20 -20 -20h-70zM362 825q10 -17 -10 -17h-31q-20 0 -35 14l-111 104q-15 14 5 14h91
q20 0 31 -17z" />
    <glyph glyph-name="uni01F9" unicode="&#x1f9;" horiz-adv-x="536" 
d="M385 0q-19 0 -19 20v282q0 29 -4.5 55.5t-15 46.5t-28 32t-43.5 12q-105 0 -105 -156v-272q0 -20 -20 -20h-80q-20 0 -20 20v480q0 20 20 20h50q11 0 14.5 -4.5t5.5 -15.5l10 -41h2q9 18 23.5 31.5t32.5 22.5t38 14t39 5q42 0 78.5 -13t63.5 -38t43 -61.5t16 -83.5v-316
q0 -20 -19 -20h-82zM318 625q10 -17 -10 -17h-31q-20 0 -35 14l-111 104q-15 14 5 14h91q20 0 31 -17z" />
    <glyph glyph-name="Aringacute" unicode="&#x1fa;" horiz-adv-x="672" 
d="M552 0q-20 0 -27 19l-62 158h-284l-62 -158q-7 -19 -27 -19h-65q-9 0 -13 4.5t1 13.5l273 684q7 18 28 18h44q20 0 28 -18l273 -684q9 -18 -12 -18h-95zM341 520l-20 75l-19 -75l-90 -259h218zM243 868q0 19 7.5 36t20 30t29.5 20t36 7q40 0 66.5 -26.5t26.5 -66.5
q0 -19 -7 -36t-20 -29.5t-30 -20t-36 -7.5q-18 0 -35 7.5t-30 20t-20.5 29.5t-7.5 36zM285 868q0 -20 15.5 -35.5t35.5 -15.5t35.5 14t15.5 37q0 22 -14 36.5t-37 14.5t-37 -15.5t-14 -35.5zM368 1123q11 17 31 17h91q20 0 5 -14l-111 -104q-15 -14 -35 -14h-31
q-20 0 -10 17z" />
    <glyph glyph-name="aringacute" unicode="&#x1fb;" horiz-adv-x="514" 
d="M404 0q-11 0 -14.5 4.5t-5.5 15.5l-10 41h-2q-20 -36 -56.5 -54.5t-87.5 -18.5q-38 0 -72 11t-60 33.5t-41 56.5t-15 80q0 48 16.5 79.5t45 50t66.5 26t81 7.5h103q-2 16 -7.5 36t-17.5 38t-32.5 30.5t-51.5 12.5q-24 0 -51.5 -7t-61.5 -18q-14 -5 -19 -3t-7 5l-21 32
q-9 14 1 26q7 8 24 17t40 16t51 11.5t58 4.5q65 0 107 -21.5t66.5 -58.5t34 -85t9.5 -102v-246q0 -20 -20 -20h-50zM354 248h-105q-40 0 -64 -20t-24 -56q0 -15 5 -32.5t16 -32.5t29 -25t45 -10q46 0 72 35t26 112v29zM164 668q0 19 7.5 36t20 30t29.5 20t36 7
q40 0 66.5 -26.5t26.5 -66.5q0 -19 -7 -36t-20 -29.5t-30 -20t-36 -7.5q-18 0 -35 7.5t-30 20t-20.5 29.5t-7.5 36zM206 668q0 -20 15.5 -35.5t35.5 -15.5t35.5 14t15.5 37q0 22 -14 36.5t-37 14.5t-37 -15.5t-14 -35.5zM296 923q11 17 31 17h91q20 0 5 -14l-111 -104
q-15 -14 -35 -14h-31q-20 0 -10 17z" />
    <glyph glyph-name="AEacute" unicode="&#x1fc;" horiz-adv-x="717" 
d="M354 0q-20 0 -20 20v157h-155l-62 -158q-7 -19 -27 -19h-65q-20 0 -12 18l273 684q7 18 28 18h343q20 0 20 -20v-50q0 -20 -20 -20h-197v-221h147q20 0 20 -20v-50q0 -20 -20 -20h-147v-229h197q20 0 20 -20v-50q0 -20 -20 -20h-303zM212 261h122v334h-13l-19 -75z
M441 923q11 17 31 17h91q20 0 5 -14l-111 -104q-15 -14 -35 -14h-31q-20 0 -10 17z" />
    <glyph glyph-name="aeacute" unicode="&#x1fd;" horiz-adv-x="826" 
d="M585 -12q-65 0 -108.5 19t-70.5 51q-27 -32 -70.5 -51t-107.5 -19q-38 0 -72 11t-60 33.5t-41 56.5t-15 80q0 48 16.5 79.5t45 50t66.5 26t81 7.5h103q-2 16 -7.5 36t-17.5 38t-32.5 30.5t-51.5 12.5q-24 0 -51.5 -7t-61.5 -18q-14 -5 -19 -3t-7 5l-21 32q-9 14 1 26
q7 8 24 17t40 16t51 11.5t58 4.5q57 0 95 -16.5t64 -45.5q26 29 64.5 45.5t91.5 16.5q45 0 84.5 -13t68 -40t45 -67.5t16.5 -94.5q0 -29 -5.5 -48t-18 -30.5t-33.5 -16.5t-52 -5h-205q3 -32 10.5 -58.5t22.5 -46t37.5 -30.5t55.5 -11q29 0 58 7.5t60 17.5q15 5 19.5 3
t6.5 -5l21 -32q9 -14 -1 -26q-7 -8 -23.5 -17t-40 -16t-52.5 -11.5t-61 -4.5zM354 248h-105q-40 0 -64 -20t-24 -56q0 -15 5 -32.5t16 -32.5t29 -25t45 -10q46 0 72 35t26 112v29zM626 302q23 0 31 5.5t8 28.5q0 22 -6.5 42.5t-18 36t-27.5 25t-36 9.5q-27 0 -46 -12
t-31.5 -32t-19 -46.5t-8.5 -56.5h154zM437 723q11 17 31 17h91q20 0 5 -14l-111 -104q-15 -14 -35 -14h-31q-20 0 -10 17z" />
    <glyph glyph-name="Oslashacute" unicode="&#x1fe;" horiz-adv-x="786" 
d="M90 42q-16 13 -2 29l30 35q-37 46 -57.5 109t-20.5 145q0 94 27 163.5t74.5 116t112 69.5t139.5 23q60 0 112 -14.5t96 -43.5l28 33q13 16 29 3l38 -32q16 -13 2 -29l-30 -36q37 -46 57.5 -109t20.5 -144q0 -94 -27 -163.5t-74.5 -116t-112 -69.5t-139.5 -23
q-60 0 -112 14.5t-96 43.5l-28 -33q-13 -16 -29 -3zM172 360q0 -95 28 -157l331 388q-29 24 -64 35t-74 11q-45 0 -85.5 -14.5t-70.5 -47.5t-47.5 -86t-17.5 -129zM393 83q45 0 85 14.5t70.5 47.5t48 86t17.5 129q0 49 -7 87.5t-21 69.5l-331 -389q29 -24 64 -34.5t74 -10.5
zM404 923q11 17 31 17h91q20 0 5 -14l-111 -104q-15 -14 -35 -14h-31q-20 0 -10 17z" />
    <glyph glyph-name="oslashacute" unicode="&#x1ff;" 
d="M38 16q-16 13 -2 29l38 45q-19 35 -26.5 78t-7.5 91q0 56 11 105.5t38 87t74 59.5t119 22q44 0 78 -8.5t60 -23.5l29 34q13 16 29 3l38 -32q16 -13 2 -29l-34 -40q22 -36 31 -81t9 -96q0 -56 -11 -105.5t-38 -86.5t-74 -58.5t-119 -21.5q-48 0 -84 9.5t-62 26.5l-31 -37
q-13 -16 -29 -3zM282 78q37 0 61 14.5t37.5 39t18.5 57.5t5 71q0 40 -6 75l-194 -230q14 -13 33 -20t45 -7zM160 260q0 -17 1 -33t3 -31l189 225q-27 22 -71 22q-38 0 -61.5 -14.5t-37 -39.5t-18.5 -58.5t-5 -70.5zM305 723q11 17 31 17h91q20 0 5 -14l-111 -104
q-15 -14 -35 -14h-31q-20 0 -10 17z" />
    <glyph glyph-name="uni0200" unicode="&#x200;" horiz-adv-x="672" 
d="M552 0q-20 0 -27 19l-62 158h-284l-62 -158q-7 -19 -27 -19h-65q-9 0 -13 4.5t1 13.5l273 684q7 18 28 18h44q20 0 28 -18l273 -684q9 -18 -12 -18h-95zM341 520l-20 75l-19 -75l-90 -259h218zM491 825q10 -17 -10 -17h-31q-20 0 -35 14l-111 104q-15 14 5 14h91
q20 0 31 -17zM292 825q10 -17 -10 -17h-31q-20 0 -35 14l-111 104q-15 14 5 14h91q20 0 31 -17z" />
    <glyph glyph-name="uni0201" unicode="&#x201;" horiz-adv-x="514" 
d="M404 0q-11 0 -14.5 4.5t-5.5 15.5l-10 41h-2q-20 -36 -56.5 -54.5t-87.5 -18.5q-38 0 -72 11t-60 33.5t-41 56.5t-15 80q0 48 16.5 79.5t45 50t66.5 26t81 7.5h103q-2 16 -7.5 36t-17.5 38t-32.5 30.5t-51.5 12.5q-24 0 -51.5 -7t-61.5 -18q-14 -5 -19 -3t-7 5l-21 32
q-9 14 1 26q7 8 24 17t40 16t51 11.5t58 4.5q65 0 107 -21.5t66.5 -58.5t34 -85t9.5 -102v-246q0 -20 -20 -20h-50zM354 248h-105q-40 0 -64 -20t-24 -56q0 -15 5 -32.5t16 -32.5t29 -25t45 -10q46 0 72 35t26 112v29zM418 625q10 -17 -10 -17h-31q-20 0 -35 14l-111 104
q-15 14 5 14h91q20 0 31 -17zM219 625q10 -17 -10 -17h-31q-20 0 -35 14l-111 104q-15 14 5 14h91q20 0 31 -17z" />
    <glyph glyph-name="uni0202" unicode="&#x202;" horiz-adv-x="672" 
d="M552 0q-20 0 -27 19l-62 158h-284l-62 -158q-7 -19 -27 -19h-65q-9 0 -13 4.5t1 13.5l273 684q7 18 28 18h44q20 0 28 -18l273 -684q9 -18 -12 -18h-95zM341 520l-20 75l-19 -75l-90 -259h218zM213 807q-7 0 -12 4.5t-3 11.5q2 29 14.5 51t32 36.5t44 22t48.5 7.5
q57 0 96.5 -31.5t41.5 -85.5q0 -6 -4.5 -11t-10.5 -5h-42q-5 0 -9 3t-5 7q-8 25 -26.5 34t-40.5 9q-27 0 -43.5 -10t-24.5 -33q-2 -3 -5.5 -6.5t-7.5 -3.5h-43z" />
    <glyph glyph-name="uni0203" unicode="&#x203;" horiz-adv-x="514" 
d="M404 0q-11 0 -14.5 4.5t-5.5 15.5l-10 41h-2q-20 -36 -56.5 -54.5t-87.5 -18.5q-38 0 -72 11t-60 33.5t-41 56.5t-15 80q0 48 16.5 79.5t45 50t66.5 26t81 7.5h103q-2 16 -7.5 36t-17.5 38t-32.5 30.5t-51.5 12.5q-24 0 -51.5 -7t-61.5 -18q-14 -5 -19 -3t-7 5l-21 32
q-9 14 1 26q7 8 24 17t40 16t51 11.5t58 4.5q65 0 107 -21.5t66.5 -58.5t34 -85t9.5 -102v-246q0 -20 -20 -20h-50zM354 248h-105q-40 0 -64 -20t-24 -56q0 -15 5 -32.5t16 -32.5t29 -25t45 -10q46 0 72 35t26 112v29zM134 607q-7 0 -12 4.5t-3 11.5q2 29 14.5 51t32 36.5
t44 22t48.5 7.5q57 0 96.5 -31.5t41.5 -85.5q0 -6 -4.5 -11t-10.5 -5h-42q-5 0 -9 3t-5 7q-8 25 -26.5 34t-40.5 9q-27 0 -43.5 -10t-24.5 -33q-2 -3 -5.5 -6.5t-7.5 -3.5h-43z" />
    <glyph glyph-name="uni0204" unicode="&#x204;" horiz-adv-x="483" 
d="M70 0q-20 0 -20 20v680q0 20 20 20h353q20 0 20 -20v-50q0 -20 -20 -20h-247v-221h197q20 0 20 -20v-50q0 -20 -20 -20h-197v-229h247q20 0 20 -20v-50q0 -20 -20 -20h-353zM400 825q10 -17 -10 -17h-31q-20 0 -35 14l-111 104q-15 14 5 14h91q20 0 31 -17zM201 825
q10 -17 -10 -17h-31q-20 0 -35 14l-111 104q-15 14 5 14h91q20 0 31 -17z" />
    <glyph glyph-name="uni0205" unicode="&#x205;" horiz-adv-x="516" 
d="M453 63q9 -14 -1 -26q-7 -8 -23.5 -17t-40 -16t-52.5 -11.5t-61 -4.5q-69 0 -114.5 22t-72.5 59t-37.5 85t-10.5 101q0 58 12 108.5t38.5 88t68.5 59.5t103 22q45 0 84.5 -13t68 -40t45 -67.5t16.5 -94.5q0 -29 -5.5 -48t-18 -30.5t-33.5 -16.5t-52 -5h-205
q3 -32 10.5 -58.5t22.5 -46t37.5 -30.5t55.5 -11q29 0 58 7.5t60 17.5q15 5 19.5 3t6.5 -5zM316 302q23 0 31 5.5t8 28.5q0 22 -6.5 42.5t-18 36t-27.5 25t-36 9.5q-27 0 -46 -12t-31.5 -32t-19 -46.5t-8.5 -56.5h154zM444 625q10 -17 -10 -17h-31q-20 0 -35 14l-111 104
q-15 14 5 14h91q20 0 31 -17zM245 625q10 -17 -10 -17h-31q-20 0 -35 14l-111 104q-15 14 5 14h91q20 0 31 -17z" />
    <glyph glyph-name="uni0206" unicode="&#x206;" horiz-adv-x="483" 
d="M70 0q-20 0 -20 20v680q0 20 20 20h353q20 0 20 -20v-50q0 -20 -20 -20h-247v-221h197q20 0 20 -20v-50q0 -20 -20 -20h-197v-229h247q20 0 20 -20v-50q0 -20 -20 -20h-353zM119 807q-7 0 -12 4.5t-3 11.5q2 29 14.5 51t32 36.5t44 22t48.5 7.5q57 0 96.5 -31.5
t41.5 -85.5q0 -6 -4.5 -11t-10.5 -5h-42q-5 0 -9 3t-5 7q-8 25 -26.5 34t-40.5 9q-27 0 -43.5 -10t-24.5 -33q-2 -3 -5.5 -6.5t-7.5 -3.5h-43z" />
    <glyph glyph-name="uni0207" unicode="&#x207;" horiz-adv-x="516" 
d="M453 63q9 -14 -1 -26q-7 -8 -23.5 -17t-40 -16t-52.5 -11.5t-61 -4.5q-69 0 -114.5 22t-72.5 59t-37.5 85t-10.5 101q0 58 12 108.5t38.5 88t68.5 59.5t103 22q45 0 84.5 -13t68 -40t45 -67.5t16.5 -94.5q0 -29 -5.5 -48t-18 -30.5t-33.5 -16.5t-52 -5h-205
q3 -32 10.5 -58.5t22.5 -46t37.5 -30.5t55.5 -11q29 0 58 7.5t60 17.5q15 5 19.5 3t6.5 -5zM316 302q23 0 31 5.5t8 28.5q0 22 -6.5 42.5t-18 36t-27.5 25t-36 9.5q-27 0 -46 -12t-31.5 -32t-19 -46.5t-8.5 -56.5h154zM135 607q-7 0 -12 4.5t-3 11.5q2 29 14.5 51t32 36.5
t44 22t48.5 7.5q57 0 96.5 -31.5t41.5 -85.5q0 -6 -4.5 -11t-10.5 -5h-42q-5 0 -9 3t-5 7q-8 25 -26.5 34t-40.5 9q-27 0 -43.5 -10t-24.5 -33q-2 -3 -5.5 -6.5t-7.5 -3.5h-43z" />
    <glyph glyph-name="uni0208" unicode="&#x208;" horiz-adv-x="226" 
d="M70 0q-20 0 -20 20v680q0 20 20 20h86q20 0 20 -20v-680q0 -20 -20 -20h-86zM281 825q10 -17 -10 -17h-31q-20 0 -35 14l-111 104q-15 14 5 14h91q20 0 31 -17zM82 825q10 -17 -10 -17h-31q-20 0 -35 14l-111 104q-15 14 5 14h91q20 0 31 -17z" />
    <glyph glyph-name="uni0209" unicode="&#x209;" horiz-adv-x="220" 
d="M70 0q-20 0 -20 20v480q0 20 20 20h80q20 0 20 -20v-480q0 -20 -20 -20h-80zM286 625q10 -17 -10 -17h-31q-20 0 -35 14l-111 104q-15 14 5 14h91q20 0 31 -17zM87 625q10 -17 -10 -17h-31q-20 0 -35 14l-111 104q-15 14 5 14h91q20 0 31 -17z" />
    <glyph glyph-name="uni020A" unicode="&#x20a;" horiz-adv-x="226" 
d="M70 0q-20 0 -20 20v680q0 20 20 20h86q20 0 20 -20v-680q0 -20 -20 -20h-86zM-8 807q-7 0 -12 4.5t-3 11.5q2 29 14.5 51t32 36.5t44 22t48.5 7.5q57 0 96.5 -31.5t41.5 -85.5q0 -6 -4.5 -11t-10.5 -5h-42q-5 0 -9 3t-5 7q-8 25 -26.5 34t-40.5 9q-27 0 -43.5 -10
t-24.5 -33q-2 -3 -5.5 -6.5t-7.5 -3.5h-43z" />
    <glyph glyph-name="uni020B" unicode="&#x20b;" horiz-adv-x="220" 
d="M70 0q-20 0 -20 20v480q0 20 20 20h80q20 0 20 -20v-480q0 -20 -20 -20h-80zM-11 607q-7 0 -12 4.5t-3 11.5q2 29 14.5 51t32 36.5t44 22t48.5 7.5q57 0 96.5 -31.5t41.5 -85.5q0 -6 -4.5 -11t-10.5 -5h-42q-5 0 -9 3t-5 7q-8 25 -26.5 34t-40.5 9q-27 0 -43.5 -10
t-24.5 -33q-2 -3 -5.5 -6.5t-7.5 -3.5h-43z" />
    <glyph glyph-name="uni020C" unicode="&#x20c;" horiz-adv-x="786" 
d="M393 -12q-75 0 -139.5 23t-112 69.5t-74.5 116t-27 163.5t27 163.5t74.5 116t112 69.5t139.5 23t139.5 -23t112 -69.5t74.5 -116t27 -163.5t-27 -163.5t-74.5 -116t-112 -69.5t-139.5 -23zM393 83q45 0 85 14.5t70.5 47.5t48 86t17.5 129t-17.5 129t-47.5 86t-70.5 47.5
t-85.5 14.5t-85.5 -14.5t-70.5 -47.5t-47.5 -86t-17.5 -129t17.5 -129t48 -86t70.5 -47.5t85 -14.5zM555 825q10 -17 -10 -17h-31q-20 0 -35 14l-111 104q-15 14 5 14h91q20 0 31 -17zM356 825q10 -17 -10 -17h-31q-20 0 -35 14l-111 104q-15 14 5 14h91q20 0 31 -17z" />
    <glyph glyph-name="uni020D" unicode="&#x20d;" 
d="M282 -12q-72 0 -119 21.5t-74 58t-38 86t-11 105.5t11 105.5t38 87t74 59.5t119 22t119 -22t74 -59t38 -87t11 -105q0 -56 -11 -105.5t-38 -86.5t-74 -58.5t-119 -21.5zM282 78q37 0 61 14.5t37.5 39t18.5 57.5t5 71q0 37 -5 70.5t-18.5 58.5t-37.5 39.5t-61 14.5
q-38 0 -61.5 -14.5t-37 -39.5t-18.5 -58.5t-5 -70.5q0 -38 5 -71t18.5 -57.5t37 -39t61.5 -14.5zM441 625q10 -17 -10 -17h-31q-20 0 -35 14l-111 104q-15 14 5 14h91q20 0 31 -17zM242 625q10 -17 -10 -17h-31q-20 0 -35 14l-111 104q-15 14 5 14h91q20 0 31 -17z" />
    <glyph glyph-name="uni020E" unicode="&#x20e;" horiz-adv-x="786" 
d="M393 -12q-75 0 -139.5 23t-112 69.5t-74.5 116t-27 163.5t27 163.5t74.5 116t112 69.5t139.5 23t139.5 -23t112 -69.5t74.5 -116t27 -163.5t-27 -163.5t-74.5 -116t-112 -69.5t-139.5 -23zM393 83q45 0 85 14.5t70.5 47.5t48 86t17.5 129t-17.5 129t-47.5 86t-70.5 47.5
t-85.5 14.5t-85.5 -14.5t-70.5 -47.5t-47.5 -86t-17.5 -129t17.5 -129t48 -86t70.5 -47.5t85 -14.5zM270 807q-7 0 -12 4.5t-3 11.5q2 29 14.5 51t32 36.5t44 22t48.5 7.5q57 0 96.5 -31.5t41.5 -85.5q0 -6 -4.5 -11t-10.5 -5h-42q-5 0 -9 3t-5 7q-8 25 -26.5 34t-40.5 9
q-27 0 -43.5 -10t-24.5 -33q-2 -3 -5.5 -6.5t-7.5 -3.5h-43z" />
    <glyph glyph-name="uni020F" unicode="&#x20f;" 
d="M282 -12q-72 0 -119 21.5t-74 58t-38 86t-11 105.5t11 105.5t38 87t74 59.5t119 22t119 -22t74 -59t38 -87t11 -105q0 -56 -11 -105.5t-38 -86.5t-74 -58.5t-119 -21.5zM282 78q37 0 61 14.5t37.5 39t18.5 57.5t5 71q0 37 -5 70.5t-18.5 58.5t-37.5 39.5t-61 14.5
q-38 0 -61.5 -14.5t-37 -39.5t-18.5 -58.5t-5 -70.5q0 -38 5 -71t18.5 -57.5t37 -39t61.5 -14.5zM159 607q-7 0 -12 4.5t-3 11.5q2 29 14.5 51t32 36.5t44 22t48.5 7.5q57 0 96.5 -31.5t41.5 -85.5q0 -6 -4.5 -11t-10.5 -5h-42q-5 0 -9 3t-5 7q-8 25 -26.5 34t-40.5 9
q-27 0 -43.5 -10t-24.5 -33q-2 -3 -5.5 -6.5t-7.5 -3.5h-43z" />
    <glyph glyph-name="uni0210" unicode="&#x210;" horiz-adv-x="567" 
d="M411 0q-20 0 -30 17l-127 202h-78v-199q0 -20 -20 -20h-86q-20 0 -20 20v680q0 20 20 20h190q57 0 104 -19.5t81 -53.5t53 -80t19 -98q0 -74 -38 -134t-104 -91l154 -228q6 -8 5 -12t-13 -4h-110zM240 308q74 0 112.5 40t38.5 121t-38.5 121t-112.5 41h-64v-323h64z
M399 825q10 -17 -10 -17h-31q-20 0 -35 14l-111 104q-15 14 5 14h91q20 0 31 -17zM200 825q10 -17 -10 -17h-31q-20 0 -35 14l-111 104q-15 14 5 14h91q20 0 31 -17z" />
    <glyph glyph-name="uni0211" unicode="&#x211;" horiz-adv-x="316" 
d="M70 0q-20 0 -20 20v480q0 20 20 20h50q11 0 13 -5t7 -15l10 -38h2q16 25 33.5 38t34.5 19t34.5 7.5t33.5 1.5q11 0 14.5 -2t3.5 -13v-75q0 -10 -3.5 -13.5t-9.5 -4t-13.5 1t-14.5 1.5q-95 0 -95 -97v-306q0 -20 -20 -20h-80zM354 625q10 -17 -10 -17h-31q-20 0 -35 14
l-111 104q-15 14 5 14h91q20 0 31 -17zM155 625q10 -17 -10 -17h-31q-20 0 -35 14l-111 104q-15 14 5 14h91q20 0 31 -17z" />
    <glyph glyph-name="uni0212" unicode="&#x212;" horiz-adv-x="567" 
d="M411 0q-20 0 -30 17l-127 202h-78v-199q0 -20 -20 -20h-86q-20 0 -20 20v680q0 20 20 20h190q57 0 104 -19.5t81 -53.5t53 -80t19 -98q0 -74 -38 -134t-104 -91l154 -228q6 -8 5 -12t-13 -4h-110zM240 308q74 0 112.5 40t38.5 121t-38.5 121t-112.5 41h-64v-323h64z
M130 807q-7 0 -12 4.5t-3 11.5q2 29 14.5 51t32 36.5t44 22t48.5 7.5q57 0 96.5 -31.5t41.5 -85.5q0 -6 -4.5 -11t-10.5 -5h-42q-5 0 -9 3t-5 7q-8 25 -26.5 34t-40.5 9q-27 0 -43.5 -10t-24.5 -33q-2 -3 -5.5 -6.5t-7.5 -3.5h-43z" />
    <glyph glyph-name="uni0213" unicode="&#x213;" horiz-adv-x="316" 
d="M70 0q-20 0 -20 20v480q0 20 20 20h50q11 0 13 -5t7 -15l10 -38h2q16 25 33.5 38t34.5 19t34.5 7.5t33.5 1.5q11 0 14.5 -2t3.5 -13v-75q0 -10 -3.5 -13.5t-9.5 -4t-13.5 1t-14.5 1.5q-95 0 -95 -97v-306q0 -20 -20 -20h-80zM37 607q-7 0 -12 4.5t-3 11.5q2 29 14.5 51
t32 36.5t44 22t48.5 7.5q57 0 96.5 -31.5t41.5 -85.5q0 -6 -4.5 -11t-10.5 -5h-42q-5 0 -9 3t-5 7q-8 25 -26.5 34t-40.5 9q-27 0 -43.5 -10t-24.5 -33q-2 -3 -5.5 -6.5t-7.5 -3.5h-43z" />
    <glyph glyph-name="uni0214" unicode="&#x214;" horiz-adv-x="636" 
d="M490 700q0 20 20 20h56q20 0 20 -20v-444q0 -58 -20 -107t-56 -85t-85.5 -56t-108.5 -20q-57 0 -106 20.5t-84.5 56.5t-55.5 85t-20 106v444q0 20 20 20h86q20 0 20 -20v-416q0 -42 9 -79.5t27 -65.5t44.5 -44.5t61.5 -16.5q42 0 74 16t53.5 44t33 65.5t11.5 80.5v416z
M479 825q10 -17 -10 -17h-31q-20 0 -35 14l-111 104q-15 14 5 14h91q20 0 31 -17zM280 825q10 -17 -10 -17h-31q-20 0 -35 14l-111 104q-15 14 5 14h91q20 0 31 -17z" />
    <glyph glyph-name="uni0215" unicode="&#x215;" horiz-adv-x="536" 
d="M416 0q-11 0 -14.5 4.5t-5.5 15.5l-10 41h-2q-9 -18 -23.5 -31.5t-32.5 -22.5t-38 -14t-39 -5q-42 0 -78.5 13t-63.5 38t-43 61.5t-16 83.5v316q0 20 19 20h82q19 0 19 -20v-282q0 -29 4.5 -55.5t15 -46.5t28 -32t43.5 -12q105 0 105 156v272q0 20 20 20h80q20 0 20 -20
v-480q0 -20 -20 -20h-50zM435 625q10 -17 -10 -17h-31q-20 0 -35 14l-111 104q-15 14 5 14h91q20 0 31 -17zM236 625q10 -17 -10 -17h-31q-20 0 -35 14l-111 104q-15 14 5 14h91q20 0 31 -17z" />
    <glyph glyph-name="uni0216" unicode="&#x216;" horiz-adv-x="636" 
d="M490 700q0 20 20 20h56q20 0 20 -20v-444q0 -58 -20 -107t-56 -85t-85.5 -56t-108.5 -20q-57 0 -106 20.5t-84.5 56.5t-55.5 85t-20 106v444q0 20 20 20h86q20 0 20 -20v-416q0 -42 9 -79.5t27 -65.5t44.5 -44.5t61.5 -16.5q42 0 74 16t53.5 44t33 65.5t11.5 80.5v416z
M195 807q-7 0 -12 4.5t-3 11.5q2 29 14.5 51t32 36.5t44 22t48.5 7.5q57 0 96.5 -31.5t41.5 -85.5q0 -6 -4.5 -11t-10.5 -5h-42q-5 0 -9 3t-5 7q-8 25 -26.5 34t-40.5 9q-27 0 -43.5 -10t-24.5 -33q-2 -3 -5.5 -6.5t-7.5 -3.5h-43z" />
    <glyph glyph-name="uni0217" unicode="&#x217;" horiz-adv-x="536" 
d="M416 0q-11 0 -14.5 4.5t-5.5 15.5l-10 41h-2q-9 -18 -23.5 -31.5t-32.5 -22.5t-38 -14t-39 -5q-42 0 -78.5 13t-63.5 38t-43 61.5t-16 83.5v316q0 20 19 20h82q19 0 19 -20v-282q0 -29 4.5 -55.5t15 -46.5t28 -32t43.5 -12q105 0 105 156v272q0 20 20 20h80q20 0 20 -20
v-480q0 -20 -20 -20h-50zM145 607q-7 0 -12 4.5t-3 11.5q2 29 14.5 51t32 36.5t44 22t48.5 7.5q57 0 96.5 -31.5t41.5 -85.5q0 -6 -4.5 -11t-10.5 -5h-42q-5 0 -9 3t-5 7q-8 25 -26.5 34t-40.5 9q-27 0 -43.5 -10t-24.5 -33q-2 -3 -5.5 -6.5t-7.5 -3.5h-43z" />
    <glyph glyph-name="uni0218" unicode="&#x218;" horiz-adv-x="555" 
d="M209 319q-73 28 -118.5 77t-45.5 126q0 49 19.5 88t52.5 66t77 41.5t94 14.5q33 0 66.5 -5.5t62 -13.5t49.5 -16t28 -14q5 -4 5.5 -9t-4.5 -17l-16 -42q-2 -6 -10 -5t-16 3q-10 3 -28 7t-40 7.5t-46 6.5t-45 3q-40 0 -66 -10t-41 -25.5t-20.5 -33.5t-5.5 -34
q0 -27 17.5 -50.5t68.5 -43.5l96 -36q43 -16 75.5 -39.5t54 -52t32 -60.5t10.5 -65q0 -46 -19 -82.5t-53 -62.5t-82 -40t-105 -14q-32 0 -65 5t-62.5 12.5t-51.5 16t-31 15.5q-5 5 -5.5 10t4.5 16l16 42q2 6 10 5t16 -3q10 -3 29 -7t43 -7.5t49 -6.5t47 -3q66 0 105 25.5
t39 67.5q0 36 -27.5 63t-65.5 42zM227 -248q-20 0 -20 20v100q0 20 20 20h100q20 0 20 -20v-115q0 -25 -5 -49t-12.5 -44t-16 -35t-15.5 -22q-5 -5 -10.5 -6.5t-15.5 5.5l-32 21q-5 4 -4.5 11.5t2.5 14.5q5 15 15 40.5t10 58.5h-36z" />
    <glyph glyph-name="uni0219" unicode="&#x219;" horiz-adv-x="474" 
d="M156 227q-56 17 -81 56t-25 89q0 34 12 63.5t35.5 51.5t58.5 34t81 12q64 0 110.5 -16t63.5 -33q3 -3 5.5 -9t-5.5 -17l-21 -32q-3 -7 -11 -5.5t-15 3.5q-27 10 -55.5 17.5t-60.5 7.5q-45 0 -64.5 -18t-19.5 -47q0 -17 9 -30t30 -19l117 -34q65 -19 89.5 -56t24.5 -95
q0 -41 -17 -71t-45.5 -50.5t-66.5 -30.5t-79 -10q-32 0 -61 4t-53 10.5t-41.5 15.5t-24.5 19q-9 13 -1 26l21 32q4 5 11.5 4.5t14.5 -2.5q29 -10 60 -17.5t68 -7.5q31 0 50.5 6t30.5 15.5t15 21.5t4 24q0 23 -17.5 35.5t-60.5 26.5zM187 -248q-20 0 -20 20v100q0 20 20 20
h100q20 0 20 -20v-115q0 -25 -5 -49t-12.5 -44t-16 -35t-15.5 -22q-5 -5 -10.5 -6.5t-15.5 5.5l-32 21q-5 4 -4.5 11.5t2.5 14.5q5 15 15 40.5t10 58.5h-36z" />
    <glyph glyph-name="uni021A" unicode="&#x21a;" horiz-adv-x="480" 
d="M197 0q-20 0 -20 20v610h-147q-20 0 -20 20v50q0 20 20 20h420q20 0 20 -20v-50q0 -20 -20 -20h-147v-610q0 -20 -20 -20h-86zM190 -248q-20 0 -20 20v100q0 20 20 20h100q20 0 20 -20v-115q0 -25 -5 -49t-12.5 -44t-16 -35t-15.5 -22q-5 -5 -10.5 -6.5t-15.5 5.5l-32 21
q-5 4 -4.5 11.5t2.5 14.5q5 15 15 40.5t10 58.5h-36z" />
    <glyph glyph-name="uni021B" unicode="&#x21b;" horiz-adv-x="315" 
d="M220 0q-68 0 -103 38.5t-35 117.5v285h-52q-20 0 -20 20v39q0 20 20 20h52v77q0 11 5 13.5t15 6.5l80 30q10 4 15 -2.5t5 -17.5v-107h63q20 0 20 -20v-39q0 -20 -20 -20h-63v-288q0 -37 15.5 -53t32.5 -16h7q20 0 20 -20v-44q0 -20 -20 -20h-37zM107 -248q-20 0 -20 20
v100q0 20 20 20h100q20 0 20 -20v-115q0 -25 -5 -49t-12.5 -44t-16 -35t-15.5 -22q-5 -5 -10.5 -6.5t-15.5 5.5l-32 21q-5 4 -4.5 11.5t2.5 14.5q5 15 15 40.5t10 58.5h-36z" />
    <glyph glyph-name="uni021C" unicode="&#x21c;" 
d="M253 -11q-32 0 -65 5t-62.5 12.5t-51.5 16t-31 15.5q-5 5 -5.5 10t4.5 16l16 42q2 6 10 5t16 -3q10 -3 29 -7t43 -7.5t49 -6.5t47 -3q44 0 72 10.5t44.5 27t23 38t6.5 44.5q0 22 -6.5 43.5t-22.5 39t-42 28t-65 10.5h-66q-20 0 -20 20v44q0 20 20 20h40q26 0 49.5 8
t41 23.5t28 37.5t10.5 50q0 49 -30.5 78.5t-97.5 29.5q-41 0 -75.5 -9t-53.5 -15q-8 -2 -16 -3t-10 5l-16 42q-5 11 -4.5 16t5.5 10q8 7 25 15.5t40 16t50 12.5t55 5q58 0 105 -14t80 -40.5t51 -63.5t18 -83q0 -54 -30 -91t-85 -59v-2q73 -11 110.5 -58t37.5 -115
q0 -46 -20.5 -85.5t-57 -68.5t-86 -45.5t-107.5 -16.5z" />
    <glyph glyph-name="uni021D" unicode="&#x21d;" 
d="M253 -211q-32 0 -65 5t-62.5 12.5t-51.5 16t-31 15.5q-5 5 -5.5 10t4.5 16l16 42q2 6 10 5t16 -3q10 -3 29 -7t43 -7.5t49 -6.5t47 -3q44 0 72 10.5t44.5 27t23 38t6.5 44.5q0 22 -6.5 43.5t-22.5 39t-42 28t-65 10.5h-66q-20 0 -20 20v44q0 20 20 20h40q26 0 49.5 8
t41 23.5t28 37.5t10.5 50q0 49 -30.5 78.5t-97.5 29.5q-41 0 -75.5 -9t-53.5 -15q-8 -2 -16 -3t-10 5l-16 42q-5 11 -4.5 16t5.5 10q8 7 25 15.5t40 16t50 12.5t55 5q58 0 105 -14t80 -40.5t51 -63.5t18 -83q0 -54 -30 -91t-85 -59v-2q73 -11 110.5 -58t37.5 -115
q0 -46 -20.5 -85.5t-57 -68.5t-86 -45.5t-107.5 -16.5z" />
    <glyph glyph-name="uni021E" unicode="&#x21e;" horiz-adv-x="609" 
d="M453 0q-20 0 -20 20v304h-257v-304q0 -20 -20 -20h-86q-20 0 -20 20v680q0 20 20 20h86q20 0 20 -20v-286h257v286q0 20 20 20h86q20 0 20 -20v-680q0 -20 -20 -20h-86zM304 864l62 62q14 14 34 14h34q20 0 8 -16l-72 -100q-12 -16 -32 -16h-68q-20 0 -32 16l-72 100
q-12 16 8 16h34q20 0 34 -14z" />
    <glyph glyph-name="uni021F" unicode="&#x21f;" horiz-adv-x="551" 
d="M401 0q-20 0 -20 20v238q0 58 -6.5 95t-18.5 58t-29 29t-38 8q-57 0 -88 -36.5t-31 -123.5v-268q0 -20 -20 -20h-80q-20 0 -20 20v700q0 20 20 20h80q20 0 20 -20v-261h2q16 29 47 51t87 22q40 0 75.5 -13.5t62 -45.5t42 -84.5t15.5 -130.5v-238q0 -20 -20 -20h-80z
M275 864l62 62q14 14 34 14h34q20 0 8 -16l-72 -100q-12 -16 -32 -16h-68q-20 0 -32 16l-72 100q-12 16 8 16h34q20 0 34 -14z" />
    <glyph glyph-name="uni0220" unicode="&#x220;" horiz-adv-x="536" 
d="M385 -249q-19 0 -19 20v531q0 29 -4.5 55.5t-15 46.5t-28 32t-43.5 12q-105 0 -105 -156v-272q0 -20 -20 -20h-80q-20 0 -20 20v480q0 20 20 20h50q11 0 14.5 -4.5t5.5 -15.5l10 -41h2q9 18 23.5 31.5t32.5 22.5t38 14t39 5q42 0 78.5 -13t63.5 -38t43 -61.5t16 -83.5
v-565q0 -20 -19 -20h-82z" />
    <glyph glyph-name="uni0226" unicode="&#x226;" horiz-adv-x="672" 
d="M552 0q-20 0 -27 19l-62 158h-284l-62 -158q-7 -19 -27 -19h-65q-9 0 -13 4.5t1 13.5l273 684q7 18 28 18h44q20 0 28 -18l273 -684q9 -18 -12 -18h-95zM341 520l-20 75l-19 -75l-90 -259h218zM296 820q-20 0 -20 20v80q0 20 20 20h80q20 0 20 -20v-80q0 -20 -20 -20h-80
z" />
    <glyph glyph-name="uni0227" unicode="&#x227;" horiz-adv-x="514" 
d="M404 0q-11 0 -14.5 4.5t-5.5 15.5l-10 41h-2q-20 -36 -56.5 -54.5t-87.5 -18.5q-38 0 -72 11t-60 33.5t-41 56.5t-15 80q0 48 16.5 79.5t45 50t66.5 26t81 7.5h103q-2 16 -7.5 36t-17.5 38t-32.5 30.5t-51.5 12.5q-24 0 -51.5 -7t-61.5 -18q-14 -5 -19 -3t-7 5l-21 32
q-9 14 1 26q7 8 24 17t40 16t51 11.5t58 4.5q65 0 107 -21.5t66.5 -58.5t34 -85t9.5 -102v-246q0 -20 -20 -20h-50zM354 248h-105q-40 0 -64 -20t-24 -56q0 -15 5 -32.5t16 -32.5t29 -25t45 -10q46 0 72 35t26 112v29zM217 620q-20 0 -20 20v80q0 20 20 20h80q20 0 20 -20
v-80q0 -20 -20 -20h-80z" />
    <glyph glyph-name="uni0228" unicode="&#x228;" horiz-adv-x="483" 
d="M218 0h-148q-20 0 -20 20v680q0 20 20 20h353q20 0 20 -20v-50q0 -20 -20 -20h-247v-221h197q20 0 20 -20v-50q0 -20 -20 -20h-197v-229h247q20 0 20 -20v-50q0 -20 -20 -20h-150l-14 -54q34 -5 52 -25.5t18 -49.5q0 -39 -31 -66t-85 -27q-18 0 -30.5 1t-10.5 3
q-19 1 -18 22l1 18q1 20 21 19v-1h21q33 0 48.5 10.5t15.5 27.5q0 15 -13.5 24t-51.5 9z" />
    <glyph glyph-name="uni0229" unicode="&#x229;" horiz-adv-x="516" 
d="M232 -9q-56 7 -93 31t-59 59.5t-31 80.5t-9 93q0 58 12 108.5t38.5 88t68.5 59.5t103 22q45 0 84.5 -13t68 -40t45 -67.5t16.5 -94.5q0 -29 -5.5 -48t-18 -30.5t-33.5 -16.5t-52 -5h-205q3 -32 10.5 -58.5t22.5 -46t37.5 -30.5t55.5 -11q29 0 58 7.5t60 17.5q15 5 19.5 3
t6.5 -5l21 -32q9 -14 -1 -26q-14 -16 -59.5 -31.5t-105.5 -17.5l-11 -42q34 -5 52 -25.5t18 -49.5q0 -39 -31 -66t-85 -27q-18 0 -30.5 1t-10.5 3q-19 1 -18 22l1 18q1 20 21 19v-1h21q33 0 48.5 10.5t15.5 27.5q0 15 -13.5 24t-51.5 9zM316 302q23 0 31 5.5t8 28.5
q0 22 -6.5 42.5t-18 36t-27.5 25t-36 9.5q-27 0 -46 -12t-31.5 -32t-19 -46.5t-8.5 -56.5h154z" />
    <glyph glyph-name="uni022A" unicode="&#x22a;" horiz-adv-x="786" 
d="M393 -12q-75 0 -139.5 23t-112 69.5t-74.5 116t-27 163.5t27 163.5t74.5 116t112 69.5t139.5 23t139.5 -23t112 -69.5t74.5 -116t27 -163.5t-27 -163.5t-74.5 -116t-112 -69.5t-139.5 -23zM393 83q45 0 85 14.5t70.5 47.5t48 86t17.5 129t-17.5 129t-47.5 86t-70.5 47.5
t-85.5 14.5t-85.5 -14.5t-70.5 -47.5t-47.5 -86t-17.5 -129t17.5 -129t48 -86t70.5 -47.5t85 -14.5zM263 810q-20 0 -20 20v70q0 20 20 20h70q20 0 20 -20v-70q0 -20 -20 -20h-70zM453 810q-20 0 -20 20v70q0 20 20 20h70q20 0 20 -20v-70q0 -20 -20 -20h-70zM238 980
q-20 0 -20 20v30q0 20 20 20h310q20 0 20 -20v-30q0 -20 -20 -20h-310z" />
    <glyph glyph-name="uni022B" unicode="&#x22b;" 
d="M282 -12q-72 0 -119 21.5t-74 58t-38 86t-11 105.5t11 105.5t38 87t74 59.5t119 22t119 -22t74 -59t38 -87t11 -105q0 -56 -11 -105.5t-38 -86.5t-74 -58.5t-119 -21.5zM282 78q37 0 61 14.5t37.5 39t18.5 57.5t5 71q0 37 -5 70.5t-18.5 58.5t-37.5 39.5t-61 14.5
q-38 0 -61.5 -14.5t-37 -39.5t-18.5 -58.5t-5 -70.5q0 -38 5 -71t18.5 -57.5t37 -39t61.5 -14.5zM152 610q-20 0 -20 20v70q0 20 20 20h70q20 0 20 -20v-70q0 -20 -20 -20h-70zM342 610q-20 0 -20 20v70q0 20 20 20h70q20 0 20 -20v-70q0 -20 -20 -20h-70zM127 780
q-20 0 -20 20v30q0 20 20 20h310q20 0 20 -20v-30q0 -20 -20 -20h-310z" />
    <glyph glyph-name="uni022C" unicode="&#x22c;" horiz-adv-x="786" 
d="M393 -12q-75 0 -139.5 23t-112 69.5t-74.5 116t-27 163.5t27 163.5t74.5 116t112 69.5t139.5 23t139.5 -23t112 -69.5t74.5 -116t27 -163.5t-27 -163.5t-74.5 -116t-112 -69.5t-139.5 -23zM393 83q45 0 85 14.5t70.5 47.5t48 86t17.5 129t-17.5 129t-47.5 86t-70.5 47.5
t-85.5 14.5t-85.5 -14.5t-70.5 -47.5t-47.5 -86t-17.5 -129t17.5 -129t48 -86t70.5 -47.5t85 -14.5zM268 809q-7 0 -11.5 5t-4.5 11q1 20 6 38t15.5 31.5t27 21.5t39.5 8q17 0 33.5 -6t32.5 -13q24 -11 31 -13.5t9 -2.5q8 0 11.5 5t6.5 11.5t8 11.5t16 5h30q6 0 10.5 -5
t4.5 -11q-1 -41 -21 -70t-66 -29q-9 0 -17.5 2.5t-16.5 5.5q-26 10 -46 18.5t-26 8.5q-8 0 -12.5 -5t-8 -11.5t-8.5 -11.5t-13 -5h-30zM238 980q-20 0 -20 20v30q0 20 20 20h310q20 0 20 -20v-30q0 -20 -20 -20h-310z" />
    <glyph glyph-name="uni022D" unicode="&#x22d;" 
d="M282 -12q-72 0 -119 21.5t-74 58t-38 86t-11 105.5t11 105.5t38 87t74 59.5t119 22t119 -22t74 -59t38 -87t11 -105q0 -56 -11 -105.5t-38 -86.5t-74 -58.5t-119 -21.5zM282 78q37 0 61 14.5t37.5 39t18.5 57.5t5 71q0 37 -5 70.5t-18.5 58.5t-37.5 39.5t-61 14.5
q-38 0 -61.5 -14.5t-37 -39.5t-18.5 -58.5t-5 -70.5q0 -38 5 -71t18.5 -57.5t37 -39t61.5 -14.5zM157 609q-7 0 -11.5 5t-4.5 11q1 20 6 38t15.5 31.5t27 21.5t39.5 8q17 0 33.5 -6t32.5 -13q24 -11 31 -13.5t9 -2.5q8 0 11.5 5t6.5 11.5t8 11.5t16 5h30q6 0 10.5 -5
t4.5 -11q-1 -41 -21 -70t-66 -29q-9 0 -17.5 2.5t-16.5 5.5q-26 10 -46 18.5t-26 8.5q-8 0 -12.5 -5t-8 -11.5t-8.5 -11.5t-13 -5h-30zM127 780q-20 0 -20 20v30q0 20 20 20h310q20 0 20 -20v-30q0 -20 -20 -20h-310z" />
    <glyph glyph-name="uni022E" unicode="&#x22e;" horiz-adv-x="786" 
d="M393 -12q-75 0 -139.5 23t-112 69.5t-74.5 116t-27 163.5t27 163.5t74.5 116t112 69.5t139.5 23t139.5 -23t112 -69.5t74.5 -116t27 -163.5t-27 -163.5t-74.5 -116t-112 -69.5t-139.5 -23zM393 83q45 0 85 14.5t70.5 47.5t48 86t17.5 129t-17.5 129t-47.5 86t-70.5 47.5
t-85.5 14.5t-85.5 -14.5t-70.5 -47.5t-47.5 -86t-17.5 -129t17.5 -129t48 -86t70.5 -47.5t85 -14.5zM353 820q-20 0 -20 20v80q0 20 20 20h80q20 0 20 -20v-80q0 -20 -20 -20h-80z" />
    <glyph glyph-name="uni022F" unicode="&#x22f;" 
d="M282 -12q-72 0 -119 21.5t-74 58t-38 86t-11 105.5t11 105.5t38 87t74 59.5t119 22t119 -22t74 -59t38 -87t11 -105q0 -56 -11 -105.5t-38 -86.5t-74 -58.5t-119 -21.5zM282 78q37 0 61 14.5t37.5 39t18.5 57.5t5 71q0 37 -5 70.5t-18.5 58.5t-37.5 39.5t-61 14.5
q-38 0 -61.5 -14.5t-37 -39.5t-18.5 -58.5t-5 -70.5q0 -38 5 -71t18.5 -57.5t37 -39t61.5 -14.5zM242 620q-20 0 -20 20v80q0 20 20 20h80q20 0 20 -20v-80q0 -20 -20 -20h-80z" />
    <glyph glyph-name="uni0230" unicode="&#x230;" horiz-adv-x="786" 
d="M393 -12q-75 0 -139.5 23t-112 69.5t-74.5 116t-27 163.5t27 163.5t74.5 116t112 69.5t139.5 23t139.5 -23t112 -69.5t74.5 -116t27 -163.5t-27 -163.5t-74.5 -116t-112 -69.5t-139.5 -23zM393 83q45 0 85 14.5t70.5 47.5t48 86t17.5 129t-17.5 129t-47.5 86t-70.5 47.5
t-85.5 14.5t-85.5 -14.5t-70.5 -47.5t-47.5 -86t-17.5 -129t17.5 -129t48 -86t70.5 -47.5t85 -14.5zM353 820q-20 0 -20 20v80q0 20 20 20h80q20 0 20 -20v-80q0 -20 -20 -20h-80zM238 980q-20 0 -20 20v30q0 20 20 20h310q20 0 20 -20v-30q0 -20 -20 -20h-310z" />
    <glyph glyph-name="uni0231" unicode="&#x231;" 
d="M282 -12q-72 0 -119 21.5t-74 58t-38 86t-11 105.5t11 105.5t38 87t74 59.5t119 22t119 -22t74 -59t38 -87t11 -105q0 -56 -11 -105.5t-38 -86.5t-74 -58.5t-119 -21.5zM282 78q37 0 61 14.5t37.5 39t18.5 57.5t5 71q0 37 -5 70.5t-18.5 58.5t-37.5 39.5t-61 14.5
q-38 0 -61.5 -14.5t-37 -39.5t-18.5 -58.5t-5 -70.5q0 -38 5 -71t18.5 -57.5t37 -39t61.5 -14.5zM242 620q-20 0 -20 20v80q0 20 20 20h80q20 0 20 -20v-80q0 -20 -20 -20h-80zM127 780q-20 0 -20 20v30q0 20 20 20h310q20 0 20 -20v-30q0 -20 -20 -20h-310z" />
    <glyph glyph-name="uni0232" unicode="&#x232;" horiz-adv-x="628" 
d="M266 0q-20 0 -20 20v243l-232 440q-10 17 10 17h107q20 0 30 -17l160 -324l172 323q8 18 29 18h82q19 0 11 -18l-243 -439v-243q0 -20 -20 -20h-86zM159 830q-20 0 -20 20v30q0 20 20 20h310q20 0 20 -20v-30q0 -20 -20 -20h-310z" />
    <glyph glyph-name="uni0233" unicode="&#x233;" horiz-adv-x="524" 
d="M120 -220q-9 0 -13 4.5t1 13.5l94 210l-189 494q-9 18 12 18h92q20 0 26 -19l121 -382l122 382q7 19 27 19h86q9 0 13 -4.5t-1 -13.5l-274 -704q-9 -18 -28 -18h-89zM107 630q-20 0 -20 20v30q0 20 20 20h310q20 0 20 -20v-30q0 -20 -20 -20h-310z" />
    <glyph glyph-name="dotlessj" unicode="&#x237;" horiz-adv-x="220" 
d="M15 -220q-20 0 -20 20v44q0 20 20 20h7q10 0 19 18.5t9 60.5v557q0 20 20 20h80q20 0 20 -20v-564q0 -79 -35 -117.5t-103 -38.5h-17z" />
    <glyph glyph-name="circumflex" unicode="&#x2c6;" horiz-adv-x="376" 
d="M131 622q-14 -14 -34 -14h-34q-20 0 -8 16l72 100q12 16 32 16h68q20 0 32 -16l72 -100q12 -16 -8 -16h-34q-20 0 -34 14l-62 62z" />
    <glyph glyph-name="caron" unicode="&#x2c7;" horiz-adv-x="376" 
d="M193 664l62 62q14 14 34 14h34q20 0 8 -16l-72 -100q-12 -16 -32 -16h-68q-20 0 -32 16l-72 100q-12 16 8 16h34q20 0 34 -14z" />
    <glyph glyph-name="breve" unicode="&#x2d8;" horiz-adv-x="378" 
d="M109 740q4 0 7.5 -3.5t5.5 -6.5q8 -23 24.5 -33t43.5 -10q22 0 40.5 9t26.5 34q1 4 5 7t9 3h42q6 0 10.5 -5t4.5 -11q-2 -54 -41.5 -85.5t-96.5 -31.5q-24 0 -48.5 7.5t-44 22t-32 36.5t-14.5 51q-2 7 3 11.5t12 4.5h43z" />
    <glyph glyph-name="dotaccent" unicode="&#x2d9;" horiz-adv-x="220" 
d="M70 620q-20 0 -20 20v80q0 20 20 20h80q20 0 20 -20v-80q0 -20 -20 -20h-80z" />
    <glyph glyph-name="ring" unicode="&#x2da;" horiz-adv-x="286" 
d="M50 668q0 19 7.5 36t20 30t29.5 20t36 7q40 0 66.5 -26.5t26.5 -66.5q0 -19 -7 -36t-20 -29.5t-30 -20t-36 -7.5q-18 0 -35 7.5t-30 20t-20.5 29.5t-7.5 36zM92 668q0 -20 15.5 -35.5t35.5 -15.5t35.5 14t15.5 37q0 22 -14 36.5t-37 14.5t-37 -15.5t-14 -35.5z" />
    <glyph glyph-name="ogonek" unicode="&#x2db;" horiz-adv-x="254" 
d="M192 0l-37 -58q-15 -25 -15 -43q0 -21 20 -21q5 0 8.5 2.5t7.5 4.5q9 8 15 2.5t9 -13.5l4 -10l4 -10q3 -11 -0.5 -13.5t-12.5 -10.5q-7 -5 -25 -14.5t-42 -11.5q-38 2 -58 19t-20 52q0 16 6 39t23 46l29 40h84z" />
    <glyph glyph-name="tilde" unicode="&#x2dc;" horiz-adv-x="381" 
d="M66 609q-7 0 -11.5 5t-4.5 11q1 20 6 38t15.5 31.5t27 21.5t39.5 8q17 0 33.5 -6t32.5 -13q24 -11 31 -13.5t9 -2.5q8 0 11.5 5t6.5 11.5t8 11.5t16 5h30q6 0 10.5 -5t4.5 -11q-1 -41 -21 -70t-66 -29q-9 0 -17.5 2.5t-16.5 5.5q-26 10 -46 18.5t-26 8.5q-8 0 -12.5 -5
t-8 -11.5t-8.5 -11.5t-13 -5h-30z" />
    <glyph glyph-name="hungarumlaut" unicode="&#x2dd;" horiz-adv-x="498" 
d="M114 723q11 17 31 17h91q20 0 5 -14l-111 -104q-15 -14 -35 -14h-31q-20 0 -10 17zM313 723q11 17 31 17h91q20 0 5 -14l-111 -104q-15 -14 -35 -14h-31q-20 0 -10 17z" />
    <glyph glyph-name="gravecomb" unicode="&#x300;" horiz-adv-x="299" 
d="M245 625q10 -17 -10 -17h-31q-20 0 -35 14l-111 104q-15 14 5 14h91q20 0 31 -17z" />
    <glyph glyph-name="acutecomb" unicode="&#x301;" horiz-adv-x="299" 
d="M114 723q11 17 31 17h91q20 0 5 -14l-111 -104q-15 -14 -35 -14h-31q-20 0 -10 17z" />
    <glyph glyph-name="uni0302" unicode="&#x302;" horiz-adv-x="376" 
d="M131 622q-14 -14 -34 -14h-34q-20 0 -8 16l72 100q12 16 32 16h68q20 0 32 -16l72 -100q12 -16 -8 -16h-34q-20 0 -34 14l-62 62z" />
    <glyph glyph-name="tildecomb" unicode="&#x303;" horiz-adv-x="381" 
d="M66 609q-7 0 -11.5 5t-4.5 11q1 20 6 38t15.5 31.5t27 21.5t39.5 8q17 0 33.5 -6t32.5 -13q24 -11 31 -13.5t9 -2.5q8 0 11.5 5t6.5 11.5t8 11.5t16 5h30q6 0 10.5 -5t4.5 -11q-1 -41 -21 -70t-66 -29q-9 0 -17.5 2.5t-16.5 5.5q-26 10 -46 18.5t-26 8.5q-8 0 -12.5 -5
t-8 -11.5t-8.5 -11.5t-13 -5h-30z" />
    <glyph glyph-name="uni0304" unicode="&#x304;" horiz-adv-x="450" 
d="M70 630q-20 0 -20 20v30q0 20 20 20h310q20 0 20 -20v-30q0 -20 -20 -20h-310z" />
    <glyph glyph-name="uni0306" unicode="&#x306;" horiz-adv-x="378" 
d="M109 740q4 0 7.5 -3.5t5.5 -6.5q8 -23 24.5 -33t43.5 -10q22 0 40.5 9t26.5 34q1 4 5 7t9 3h42q6 0 10.5 -5t4.5 -11q-2 -54 -41.5 -85.5t-96.5 -31.5q-24 0 -48.5 7.5t-44 22t-32 36.5t-14.5 51q-2 7 3 11.5t12 4.5h43z" />
    <glyph glyph-name="uni0307" unicode="&#x307;" horiz-adv-x="220" 
d="M70 620q-20 0 -20 20v80q0 20 20 20h80q20 0 20 -20v-80q0 -20 -20 -20h-80z" />
    <glyph glyph-name="uni0308" unicode="&#x308;" horiz-adv-x="400" 
d="M70 610q-20 0 -20 20v70q0 20 20 20h70q20 0 20 -20v-70q0 -20 -20 -20h-70zM260 610q-20 0 -20 20v70q0 20 20 20h70q20 0 20 -20v-70q0 -20 -20 -20h-70z" />
    <glyph glyph-name="hookabovecomb" unicode="&#x309;" horiz-adv-x="311" 
d="M133 610q-10 0 -10 10v7q0 20 6 36t26 32q1 1 7.5 7t14 14t13 18t5.5 20q0 17 -11 30.5t-37 13.5q-15 0 -37.5 -4.5t-35.5 -7.5q-12 -3 -13 1l-8 21q-2 7 -2 8.5t2 4.5q4 3 14.5 7.5t25 8t30.5 6.5t32 3q40 0 71 -21t34 -71q1 -20 -9 -35t-28 -33l-7.5 -7.5t-12.5 -13.5
t-12 -18t-5 -20v-7q0 -10 -10 -10h-43z" />
    <glyph glyph-name="uni030A" unicode="&#x30a;" horiz-adv-x="286" 
d="M50 668q0 19 7.5 36t20 30t29.5 20t36 7q40 0 66.5 -26.5t26.5 -66.5q0 -19 -7 -36t-20 -29.5t-30 -20t-36 -7.5q-18 0 -35 7.5t-30 20t-20.5 29.5t-7.5 36zM92 668q0 -20 15.5 -35.5t35.5 -15.5t35.5 14t15.5 37q0 22 -14 36.5t-37 14.5t-37 -15.5t-14 -35.5z" />
    <glyph glyph-name="uni030B" unicode="&#x30b;" horiz-adv-x="498" 
d="M114 723q11 17 31 17h91q20 0 5 -14l-111 -104q-15 -14 -35 -14h-31q-20 0 -10 17zM313 723q11 17 31 17h91q20 0 5 -14l-111 -104q-15 -14 -35 -14h-31q-20 0 -10 17z" />
    <glyph glyph-name="uni030C" unicode="&#x30c;" horiz-adv-x="376" 
d="M193 664l62 62q14 14 34 14h34q20 0 8 -16l-72 -100q-12 -16 -32 -16h-68q-20 0 -32 16l-72 100q-12 16 8 16h34q20 0 34 -14z" />
    <glyph glyph-name="uni030F" unicode="&#x30f;" horiz-adv-x="498" 
d="M444 625q10 -17 -10 -17h-31q-20 0 -35 14l-111 104q-15 14 5 14h91q20 0 31 -17zM245 625q10 -17 -10 -17h-31q-20 0 -35 14l-111 104q-15 14 5 14h91q20 0 31 -17z" />
    <glyph glyph-name="uni0310" unicode="&#x310;" horiz-adv-x="378" 
d="M109 740q4 0 7.5 -3.5t5.5 -6.5q8 -23 24.5 -33t43.5 -10q22 0 40.5 9t26.5 34q1 4 5 7t9 3h42q6 0 10.5 -5t4.5 -11q-2 -54 -41.5 -85.5t-96.5 -31.5q-24 0 -48.5 7.5t-44 22t-32 36.5t-14.5 51q-2 7 3 11.5t12 4.5h43zM149 775q-20 0 -20 20v80q0 20 20 20h80
q20 0 20 -20v-80q0 -20 -20 -20h-80z" />
    <glyph glyph-name="uni0311" unicode="&#x311;" horiz-adv-x="378" 
d="M66 607q-7 0 -12 4.5t-3 11.5q2 29 14.5 51t32 36.5t44 22t48.5 7.5q57 0 96.5 -31.5t41.5 -85.5q0 -6 -4.5 -11t-10.5 -5h-42q-5 0 -9 3t-5 7q-8 25 -26.5 34t-40.5 9q-27 0 -43.5 -10t-24.5 -33q-2 -3 -5.5 -6.5t-7.5 -3.5h-43z" />
    <glyph glyph-name="uni0316" unicode="&#x316;" horiz-adv-x="299" 
d="M245 -175q10 -17 -10 -17h-31q-20 0 -35 14l-111 104q-15 14 5 14h91q20 0 31 -17z" />
    <glyph glyph-name="uni0317" unicode="&#x317;" horiz-adv-x="299" 
d="M114 -77q11 17 31 17h91q20 0 5 -14l-111 -104q-15 -14 -35 -14h-31q-20 0 -10 17z" />
    <glyph glyph-name="dotbelowcomb" unicode="&#x323;" horiz-adv-x="220" 
d="M70 -240q-20 0 -20 20v80q0 20 20 20h80q20 0 20 -20v-80q0 -20 -20 -20h-80z" />
    <glyph glyph-name="uni0324" unicode="&#x324;" horiz-adv-x="400" 
d="M70 -230q-20 0 -20 20v70q0 20 20 20h70q20 0 20 -20v-70q0 -20 -20 -20h-70zM260 -230q-20 0 -20 20v70q0 20 20 20h70q20 0 20 -20v-70q0 -20 -20 -20h-70z" />
    <glyph glyph-name="uni0325" unicode="&#x325;" horiz-adv-x="286" 
d="M50 -168q0 19 7.5 36t20 30t29.5 20t36 7q40 0 66.5 -26.5t26.5 -66.5q0 -19 -7 -36t-20 -29.5t-30 -20t-36 -7.5q-18 0 -35 7.5t-30 20t-20.5 29.5t-7.5 36zM92 -168q0 -20 15.5 -35.5t35.5 -15.5t35.5 14t15.5 37q0 22 -14 36.5t-37 14.5t-37 -15.5t-14 -35.5z" />
    <glyph glyph-name="uni032C" unicode="&#x32c;" horiz-adv-x="386" 
d="M193 -176l62 62q14 14 34 14h34q20 0 8 -16l-72 -100q-12 -16 -32 -16h-68q-20 0 -32 16l-72 100q-12 16 8 16h34q20 0 34 -14z" />
    <glyph glyph-name="uni032D" unicode="&#x32d;" horiz-adv-x="386" 
d="M131 -218q-14 -14 -34 -14h-34q-20 0 -8 16l72 100q12 16 32 16h68q20 0 32 -16l72 -100q12 -16 -8 -16h-34q-20 0 -34 14l-62 62z" />
    <glyph glyph-name="uni032E" unicode="&#x32e;" horiz-adv-x="378" 
d="M109 -100q4 0 7.5 -3.5t5.5 -6.5q8 -23 24.5 -33t43.5 -10q22 0 40.5 9t26.5 34q1 4 5 7t9 3h42q6 0 10.5 -5t4.5 -11q-2 -54 -41.5 -85.5t-96.5 -31.5q-24 0 -48.5 7.5t-44 22t-32 36.5t-14.5 51q-2 7 3 11.5t12 4.5h43z" />
    <glyph glyph-name="uni032F" unicode="&#x32f;" horiz-adv-x="378" 
d="M66 -233q-7 0 -12 4.5t-3 11.5q2 29 14.5 51t32 36.5t44 22t48.5 7.5q57 0 96.5 -31.5t41.5 -85.5q0 -6 -4.5 -11t-10.5 -5h-42q-5 0 -9 3t-5 7q-8 25 -26.5 34t-40.5 9q-27 0 -43.5 -10t-24.5 -33q-2 -3 -5.5 -6.5t-7.5 -3.5h-43z" />
    <glyph glyph-name="uni0330" unicode="&#x330;" horiz-adv-x="381" 
d="M66 -231q-7 0 -11.5 5t-4.5 11q1 20 6 38t15.5 31.5t27 21.5t39.5 8q17 0 33.5 -6t32.5 -13q24 -11 31 -13.5t9 -2.5q8 0 11.5 5t6.5 11.5t8 11.5t16 5h30q6 0 10.5 -5t4.5 -11q-1 -41 -21 -70t-66 -29q-9 0 -17.5 2.5t-16.5 5.5q-26 10 -46 18.5t-26 8.5q-8 0 -12.5 -5
t-8 -11.5t-8.5 -11.5t-13 -5h-30z" />
    <glyph glyph-name="uni0331" unicode="&#x331;" horiz-adv-x="450" 
d="M70 -170q-20 0 -20 20v30q0 20 20 20h310q20 0 20 -20v-30q0 -20 -20 -20h-310z" />
    <glyph glyph-name="uni0400" unicode="&#x400;" horiz-adv-x="483" 
d="M70 0q-20 0 -20 20v680q0 20 20 20h353q20 0 20 -20v-50q0 -20 -20 -20h-247v-221h197q20 0 20 -20v-50q0 -20 -20 -20h-197v-229h247q20 0 20 -20v-50q0 -20 -20 -20h-353zM337 825q10 -17 -10 -17h-31q-20 0 -35 14l-111 104q-15 14 5 14h91q20 0 31 -17z" />
    <glyph glyph-name="uni0401" unicode="&#x401;" horiz-adv-x="483" 
d="M70 0q-20 0 -20 20v680q0 20 20 20h353q20 0 20 -20v-50q0 -20 -20 -20h-247v-221h197q20 0 20 -20v-50q0 -20 -20 -20h-197v-229h247q20 0 20 -20v-50q0 -20 -20 -20h-353zM111 810q-20 0 -20 20v70q0 20 20 20h70q20 0 20 -20v-70q0 -20 -20 -20h-70zM301 810
q-20 0 -20 20v70q0 20 20 20h70q20 0 20 -20v-70q0 -20 -20 -20h-70z" />
    <glyph glyph-name="uni0402" unicode="&#x402;" horiz-adv-x="618" 
d="M298 64q0 20 20 20q40 0 65.5 12.5t40.5 32t21 44.5t6 51t-6.5 51t-22.5 45t-42 32.5t-65 12.5h-86v-345q0 -20 -20 -20h-86q-20 0 -20 20v610h-63q-20 0 -20 20v50q0 20 20 20h366q20 0 20 -20v-50q0 -20 -20 -20h-177v-181h120q58 0 100.5 -19t71 -50t42.5 -71.5
t14 -83.5q0 -48 -17.5 -89t-48.5 -71.5t-72.5 -47.5t-90.5 -17h-30q-20 0 -20 20v44z" />
    <glyph glyph-name="uni0403" unicode="&#x403;" horiz-adv-x="453" 
d="M70 0q-20 0 -20 20v680q0 20 20 20h353q20 0 20 -20v-50q0 -20 -20 -20h-247v-610q0 -20 -20 -20h-86zM269 923q11 17 31 17h91q20 0 5 -14l-111 -104q-15 -14 -35 -14h-31q-20 0 -10 17z" />
    <glyph glyph-name="uni0404" unicode="&#x404;" horiz-adv-x="639" 
d="M594 68q5 -14 4.5 -20t-5.5 -11q-9 -7 -29.5 -15.5t-47.5 -16t-58.5 -12.5t-64.5 -5q-75 0 -139.5 23t-112 69.5t-74.5 116t-27 163.5t27 163.5t74.5 116t112 69.5t139.5 23q33 0 64.5 -5t58.5 -12.5t47.5 -16t29.5 -15.5q5 -5 5.5 -10t-4.5 -16l-16 -42q-4 -5 -11 -4.5
t-15 2.5q-23 6 -66 15t-93 9q-42 0 -79 -12.5t-66.5 -39.5t-48.5 -70.5t-25 -105.5h299q20 0 20 -20v-50q0 -20 -20 -20h-300q5 -65 24 -109.5t48.5 -73t67.5 -41t80 -12.5q50 0 93 9t66 15q7 2 14.5 2.5t11.5 -4.5z" />
    <glyph glyph-name="uni0405" unicode="&#x405;" horiz-adv-x="555" 
d="M209 319q-73 28 -118.5 77t-45.5 126q0 49 19.5 88t52.5 66t77 41.5t94 14.5q33 0 66.5 -5.5t62 -13.5t49.5 -16t28 -14q5 -4 5.5 -9t-4.5 -17l-16 -42q-2 -6 -10 -5t-16 3q-10 3 -28 7t-40 7.5t-46 6.5t-45 3q-40 0 -66 -10t-41 -25.5t-20.5 -33.5t-5.5 -34
q0 -27 17.5 -50.5t68.5 -43.5l96 -36q43 -16 75.5 -39.5t54 -52t32 -60.5t10.5 -65q0 -46 -19 -82.5t-53 -62.5t-82 -40t-105 -14q-32 0 -65 5t-62.5 12.5t-51.5 16t-31 15.5q-5 5 -5.5 10t4.5 16l16 42q2 6 10 5t16 -3q10 -3 29 -7t43 -7.5t49 -6.5t47 -3q66 0 105 25.5
t39 67.5q0 36 -27.5 63t-65.5 42z" />
    <glyph glyph-name="uni0406" unicode="&#x406;" horiz-adv-x="226" 
d="M70 0q-20 0 -20 20v680q0 20 20 20h86q20 0 20 -20v-680q0 -20 -20 -20h-86z" />
    <glyph glyph-name="uni0407" unicode="&#x407;" horiz-adv-x="226" 
d="M70 0q-20 0 -20 20v680q0 20 20 20h86q20 0 20 -20v-680q0 -20 -20 -20h-86zM-16 810q-20 0 -20 20v70q0 20 20 20h70q20 0 20 -20v-70q0 -20 -20 -20h-70zM174 810q-20 0 -20 20v70q0 20 20 20h70q20 0 20 -20v-70q0 -20 -20 -20h-70z" />
    <glyph glyph-name="uni0408" unicode="&#x408;" horiz-adv-x="356" 
d="M10 70q0 20 20 20h13q37 0 64.5 9.5t46 31.5t27.5 58.5t9 90.5v420q0 20 20 20h86q20 0 20 -20v-441q-2 -128 -69 -193.5t-181 -65.5q-17 0 -28.5 0.5t-9.5 0.5q-18 1 -18 21v48z" />
    <glyph glyph-name="uni0409" unicode="&#x409;" horiz-adv-x="925" 
d="M524 720q20 0 20 -20v-199h84q56 0 103.5 -20t81.5 -54t53 -79.5t19 -96.5q0 -53 -19 -98.5t-53 -79.5t-81 -53.5t-104 -19.5h-190q-20 0 -20 20v610h-182l-45 -474q-8 -78 -39.5 -117t-104.5 -39h-17q-20 0 -20 20v44q0 20 20 20h7q14 0 23.5 18.5t14.5 60.5l49 537
q1 20 21 20h379zM608 89q74 1 112.5 41t38.5 121t-38.5 121t-112.5 40h-64v-323h64z" />
    <glyph glyph-name="uni040A" unicode="&#x40a;" horiz-adv-x="940" 
d="M539 720q20 0 20 -20v-199h84q56 0 103.5 -20t81.5 -54t53 -79.5t19 -96.5q0 -53 -19 -98.5t-53 -79.5t-81 -53.5t-104 -19.5h-190q-20 0 -20 20v304h-257v-304q0 -20 -20 -20h-86q-20 0 -20 20v680q0 20 20 20h86q20 0 20 -20v-286h257v286q0 20 20 20h86zM623 89
q74 1 112.5 41t38.5 121t-38.5 121t-112.5 40h-64v-323h64z" />
    <glyph glyph-name="uni040B" unicode="&#x40b;" horiz-adv-x="618" 
d="M123 0q-20 0 -20 20v610h-63q-20 0 -20 20v50q0 20 20 20h366q20 0 20 -20v-50q0 -20 -20 -20h-177v-181h120q58 0 100.5 -19t71 -50t42.5 -71.5t14 -83.5v-205q0 -20 -20 -20h-86q-20 0 -20 20v204q0 26 -6.5 51t-22.5 45t-42 32.5t-65 12.5h-86v-345q0 -20 -20 -20h-86
v0z" />
    <glyph glyph-name="uni040C" unicode="&#x40c;" horiz-adv-x="637" 
d="M449 0q-20 0 -32 16l-241 311v-307q0 -20 -20 -20h-86q-20 0 -20 20v680q0 20 20 20h86q20 0 20 -20v-308l248 312q12 16 32 16h103q20 0 8 -16l-279 -335l287 -353q12 -16 -8 -16h-118zM311 923q11 17 31 17h91q20 0 5 -14l-111 -104q-15 -14 -35 -14h-31q-20 0 -10 17z
" />
    <glyph glyph-name="uni040D" unicode="&#x40d;" horiz-adv-x="636" 
d="M586 20q0 -20 -20 -20h-86q-20 0 -20 20v464h-2l-285 -468q-13 -16 -33 -16h-70q-20 0 -20 20v680q0 20 20 20h86q20 0 20 -20v-464h2l285 468q13 16 33 16h70q20 0 20 -20v-680zM353 825q10 -17 -10 -17h-31q-20 0 -35 14l-111 104q-15 14 5 14h91q20 0 31 -17z" />
    </font>
</defs>
</svg>
